<?xml version="1.0" standalone="no"?>
<!DOCTYPE svg PUBLIC "-//W3C//DTD SVG 1.1//EN" "http://www.w3.org/Graphics/SVG/1.1/DTD/svg11.dtd" >
<svg xmlns="http://www.w3.org/2000/svg">
<metadata></metadata>
<defs>
<font id="pf_din_text_cond_proThIt" horiz-adv-x="1818" >
<font-face units-per-em="1000" ascent="750" descent="-250" />
<missing-glyph horiz-adv-x="189" />
<glyph unicode="fj" horiz-adv-x="385" d="M132 492l22 114q13 65 49.5 93t90.5 28q75 0 114 -47l-30 -30q-18 20 -42 27.5t-48 7.5q-76 0 -91 -81l-22 -112h195q-6 -31 -14.5 -76.5t-18.5 -98.5t-20.5 -109.5t-21 -109.5t-19 -98.5t-14.5 -76.5q-9 -54 -37.5 -90t-86.5 -36h-27l8 40h17q22 0 36.5 7.5t24 20.5 t15 30t8.5 36l101 525h-153l-118 -615h-43l118 615h-57q0 2 1.5 7t2.5 11t2 11t1 7h57z" />
<glyph unicode="ffj" horiz-adv-x="583" d="M372 492h194q-27 -146 -54.5 -289.5t-54.5 -286.5q-9 -54 -39.5 -86t-87.5 -32h-23l8 40h17q40 2 57.5 24t25.5 64l102 530h-153q-29 -155 -59 -308t-61 -307h-43l120 615h-154l-120 -615h-42q29 154 59 307t61 308h-57l7 36h57l18 98q11 60 48.5 91t94.5 31q55 0 95 -25 q23 23 49.5 32.5t58.5 9.5q75 0 116 -45l-31 -31q-19 20 -42 27.5t-47 7.5q-37 0 -63 -20.5t-34 -62.5zM329 492q7 29 12.5 58.5t10.5 58.5q2 10 4.5 20t7.5 19q-18 14 -38.5 18.5t-36.5 4.5q-40 0 -64 -21.5t-32 -60.5l-18 -97h154z" />
<glyph unicode="ff" horiz-adv-x="422" d="M294 719q25 0 49.5 -6t44.5 -17q34 42 98 42q6 0 16 -0.5t15 -1.5l-7 -41q-5 2 -13 2.5t-14 0.5q-24 0 -39.5 -8t-25 -20.5t-15 -28.5t-8.5 -31l-22 -117h98q-1 -6 -3 -18.5t-4 -17.5h-98q-3 -16 -12 -63.5t-21.5 -110.5t-26 -134t-26 -134.5t-22 -110.5t-12.5 -63h-43 l119 616h-154l-119 -616h-43l119 616h-57q2 5 4 17.5t3 18.5h57q0 3 3 18.5t7 34t7 34t4 18.5q12 64 49.5 92.5t91.5 28.5zM329 493l25 121q2 10 5 21.5t7 20.5q-18 13 -38.5 17.5t-37.5 4.5q-79 0 -94 -82l-21 -103h154z" />
<glyph unicode="fi" horiz-adv-x="385" d="M236 0l89 457h-155l-120 -617h-44l120 617h-57l7 36h57l22 114q13 66 50 93t90 27q76 0 116 -46l-32 -30q-18 20 -41.5 27.5t-47.5 7.5q-38 0 -61 -21t-31 -60l-21 -112h198l-96 -493h-43z" />
<glyph unicode="fl" horiz-adv-x="403" d="M366 671q-17 9 -36.5 13t-36.5 4q-79 0 -95 -87l-21 -108h103l-7 -36h-103l-119 -617h-44l119 617h-57l7 36h57l22 112q14 68 51 97t91 29q15 0 48 -5.5t71 -23.5l-115 -587q-3 -17 -3 -31q0 -21 12 -34t44 -13h12q-1 -6 -4 -20t-5 -20h-10q-93 0 -93 76q0 16 3 34z" />
<glyph unicode="ffi" horiz-adv-x="583" d="M433 0l88 457h-155l-119 -617h-43l119 617h-154l-120 -617h-43l119 617h-57l8 36h57l18 98q13 64 51 93t92 29q27 0 51 -5.5t44 -19.5q22 23 48.5 32.5t58.5 9.5q76 0 117 -45l-32 -31q-18 20 -41.5 27.5t-47.5 7.5q-80 0 -96 -83l-23 -113h199l-95 -493h-44zM290 672 q-41 0 -64 -21.5t-31 -60.5l-19 -97h155l22 117q2 10 5 20.5t8 19.5q-19 14 -39.5 18t-36.5 4z" />
<glyph unicode="ffl" horiz-adv-x="602" d="M295 712q58 0 93 -26q21 25 48 35.5t59 10.5q16 0 48.5 -5t70.5 -23l-115 -589q-3 -17 -3 -31q0 -21 12 -34t45 -13h12q-2 -6 -5 -20t-4 -20h-11q-93 0 -93 76q0 16 3 34l109 565q-17 10 -36.5 13.5t-36.5 3.5q-41 0 -64.5 -21t-31.5 -66l-22 -109h109l-6 -36h-110 l-119 -617h-43l119 617h-153l-120 -617h-42l118 617h-56l7 36h56l20 99q12 65 51 92.5t91 27.5zM289 671q-78 0 -93 -79l-19 -99h153l22 114q2 11 5 21t8 19q-17 15 -38 19.5t-38 4.5z" />
<glyph unicode="ft" horiz-adv-x="429" d="M330 492l26 134h44l-27 -134h83l-7 -36h-83l-65 -338q-8 -40 2 -59.5t53 -19.5h20l-7 -39h-30q-53 0 -73 29.5t-11 77.5l68 349h-154l-120 -614h-42q29 154 59 306.5t60 307.5h-57l7 36h56l20 98q6 30 15.5 55t25 43.5t38.5 29t56 10.5h15t17 -2l-7 -40q-5 2 -14 2.5 t-14 0.5q-26 0 -42 -10t-26 -25t-15 -33t-8 -35l-18 -94h155z" />
<glyph unicode=" "  horiz-adv-x="189" />
<glyph unicode="&#x09;" horiz-adv-x="189" />
<glyph unicode="&#xa0;" horiz-adv-x="189" />
<glyph unicode="!" horiz-adv-x="205" d="M80 174q5 29 12.5 70.5t16.5 90t18.5 100.5t18 100.5t16.5 90t13 70.5h45l-108 -522h-32zM37 0l10 54h51q-2 -14 -5 -27t-6 -27h-50z" />
<glyph unicode="&#x22;" horiz-adv-x="216" d="M195 519l35 177h34l-34 -177h-35zM110 519l34 177h35l-34 -177h-35z" />
<glyph unicode="#" horiz-adv-x="415" d="M17 254h82l69 191h-76l6 31h81l80 222h32l-80 -222h131l80 222h31l-78 -222h79l-6 -31h-84l-69 -191h78l-7 -30h-82l-77 -224h-34l79 224h-131l-79 -224h-33l80 224h-77zM132 254h131l68 191h-130z" />
<glyph unicode="$" horiz-adv-x="410" d="M149 -5q-55 4 -90 32.5t-55 72.5q10 5 19 10t19 10q16 -35 43.5 -58.5t70.5 -26.5q14 76 29 152t30 153q-61 25 -96 57t-35 88q0 47 16 87t43 69t63.5 44.5t77.5 14.5q4 20 7.5 40.5t8.5 41.5h28l-16 -84q26 -2 47.5 -11.5t38.5 -23t28.5 -29.5t17.5 -32q-9 -6 -18.5 -11 t-18.5 -11q-12 27 -35 49.5t-67 27.5q-14 -71 -27.5 -141t-27.5 -142q31 -11 56 -24.5t42.5 -31t27 -40t9.5 -52.5q0 -52 -14.5 -94.5t-41.5 -72.5t-65.5 -47t-86.5 -18q-5 -26 -10 -52.5t-10 -53.5h-29zM343 218q0 23 -8 40.5t-21.5 30t-32 22.5t-39.5 18q-15 -74 -29 -147 t-28 -148q37 1 66.5 16.5t49.5 40.5t31 57.5t11 69.5zM128 489q0 -20 7 -35.5t20 -27.5t30.5 -21.5t38.5 -18.5l51 271q-29 1 -56 -11.5t-47 -35t-32 -53.5t-12 -68z" />
<glyph unicode="%" horiz-adv-x="600" d="M164 275q-31 0 -51.5 9t-32 23.5t-14.5 33.5t1 39l44 222q9 45 34.5 70t76.5 25q23 0 42.5 -7.5t32.5 -20.5t19 -32t2 -41l-6 -32l-37 -193q-8 -41 -35 -68.5t-76 -27.5zM425 -3q-31 0 -51.5 9t-32 23.5t-14.5 33.5t1 39l44 222q9 45 34.5 70t76.5 25q23 0 42.5 -7.5 t32.5 -20.5t19 -32t2 -41l-6 -32l-37 -193q-8 -41 -35 -68.5t-76 -27.5zM222 664q-36 0 -52.5 -18.5t-22.5 -45.5l-44 -224q-5 -29 9 -48.5t51 -19.5q38 0 54.5 19.5t21.5 46.5q1 6 4.5 23.5l8 40t9.5 48.5t9.5 48.5t7.5 40t4 23.5q5 27 -10.5 46.5t-49.5 19.5zM483 386 q-36 0 -52.5 -18.5t-22.5 -45.5l-44 -224q-5 -29 9 -48.5t51 -19.5q38 0 54.5 19.5t21.5 46.5q1 6 4.5 23.5l8 40t9.5 48.5t9.5 48.5t7.5 40t4 23.5q5 27 -10.5 46.5t-49.5 19.5zM82 -17h-37l512 731h38z" />
<glyph unicode="&#x26;" horiz-adv-x="524" d="M329 703q41 0 74 -13.5t53 -43.5l-33 -26q-14 23 -38.5 33.5t-54.5 10.5q-33 0 -56 -10.5t-37.5 -27.5t-21 -38t-6.5 -43q0 -28 9 -50q9 -24 23 -55.5t30 -66.5t33 -70.5t31 -65.5t25 -53t15 -32q23 31 37 66.5t23 66.5l40 -1q-11 -42 -31.5 -87.5t-48.5 -84.5 q14 -28 28 -56.5t28 -55.5h-49l-40 78q-49 -49 -91 -66.5t-88 -17.5q-62 0 -100.5 35.5t-38.5 103.5q0 142 174 252l-35 82q-16 38 -16 80q0 31 10 59t30 49.5t50.5 34.5t71.5 13zM235 349q-80 -51 -114.5 -104.5t-34.5 -108.5q0 -48 27 -76.5t75 -28.5q35 0 78.5 21 t79.5 61q-29 60 -56 118t-55 118z" />
<glyph unicode="'" horiz-adv-x="163" d="M125 519l35 177h35l-34 -177h-36z" />
<glyph unicode="(" horiz-adv-x="236" d="M137 -117q-35 60 -53.5 135t-18.5 154q0 75 18 150t49 145.5t73.5 134t91.5 115.5l18 -11q-46 -59 -84 -124t-65.5 -135t-42.5 -143t-15 -147q0 -70 13 -136t38 -125l-22 -13v0z" />
<glyph unicode=")" horiz-adv-x="236" d="M-24 -105q45 55 83 120.5t66 136t43.5 144.5t15.5 148q0 69 -13 135t-37 126l22 11q35 -61 52.5 -134t17.5 -150q0 -76 -18 -152t-49 -147.5t-74 -135.5t-92 -115z" />
<glyph unicode="*" horiz-adv-x="336" d="M317 447l-40 -26l-46 108l-87 -108l-30 25l97 98q-2 0 -19 5.5t-36.5 11.5t-36 11.5t-18.5 6.5l20 40l105 -48l17 124h40l-31 -124l124 48q0 -2 1 -8t2 -12.5t2 -12.5t1 -7l-126 -35z" />
<glyph unicode="+" horiz-adv-x="410" d="M234 268l-34 -176h-36l34 176h-165l7 37h165l34 174h36l-34 -174h165l-7 -37h-165z" />
<glyph unicode="," horiz-adv-x="155" d="M-17 -97l41 96h-15l11 60h57l-10 -57l-57 -99h-27z" />
<glyph unicode="-" horiz-adv-x="346" d="M60 255l9 42h249l-8 -42h-250z" />
<glyph unicode="." horiz-adv-x="151" d="M9 0l11 61h56l-11 -61h-56z" />
<glyph unicode="/" horiz-adv-x="262" d="M-17 -42h-34l367 767h35z" />
<glyph unicode="0" horiz-adv-x="410" d="M335 149q-14 -79 -60.5 -117t-114.5 -38q-35 0 -62.5 12t-46 34.5t-25.5 54t1 70.5l75 383q15 75 60 114t114 39q31 0 59 -10.5t47.5 -31t27.5 -50t1 -67.5zM369 541q10 52 -17 86t-80 34q-54 0 -86 -31t-42 -84l-76 -386q-10 -57 16.5 -91.5t79.5 -34.5q55 0 87 34 t42 83z" />
<glyph unicode="1" horiz-adv-x="410" d="M192 0h-43l126 648l-117 -72l9 49l116 71h44z" />
<glyph unicode="2" horiz-adv-x="410" d="M-21 0l8 42l312 380q29 36 44.5 71t15.5 71q0 42 -24.5 69t-72.5 27q-44 0 -80 -28.5t-50 -80.5l-43 9q17 66 65 103t111 37q65 0 101.5 -34.5t36.5 -96.5q1 -51 -21 -92t-51 -78l-294 -358h260l-7 -41h-311z" />
<glyph unicode="3" horiz-adv-x="410" d="M240 701q67 0 100 -36t33 -93q0 -27 -6 -58.5t-20 -61t-37 -54t-57 -37.5q38 -13 50.5 -43.5t12.5 -63.5q0 -44 -10.5 -90t-34.5 -83.5t-63.5 -62t-96.5 -24.5t-92 32t-37 92l37 9q4 -40 24.5 -66.5t73.5 -26.5q40 0 69 18t48.5 48t29 68t9.5 78q0 47 -22 71.5t-68 24.5 h-33l8 40h32q30 0 56 13.5t44.5 38.5t29 59.5t10.5 75.5q0 40 -24.5 66t-70.5 26q-45 0 -77.5 -26.5t-47.5 -70.5l-43 9q19 63 64.5 95.5t108.5 32.5z" />
<glyph unicode="4" horiz-adv-x="410" d="M299 117l-23 -117h-43l23 117h-259l8 40l299 539h44l-299 -539h215l40 205h42l-40 -205h58l-8 -40h-57z" />
<glyph unicode="5" horiz-adv-x="410" d="M18 118q11 2 21.5 4.5t21.5 5.5q1 -41 21 -68t73 -27q48 0 79.5 29t49.5 72t25 92t7 89q0 42 -19 70t-70 28q-15 0 -31 -4t-31.5 -11.5t-29 -18t-23.5 -22.5h-40l66 339h294l-9 -41h-253l-48 -249h1q28 24 59.5 34.5t60.5 10.5q63 0 89.5 -32.5t26.5 -90.5 q0 -34 -3.5 -71.5t-12.5 -75t-24 -71.5t-38.5 -59.5t-55.5 -41t-75 -15.5q-56 0 -93.5 29.5t-38.5 94.5z" />
<glyph unicode="6" horiz-adv-x="410" d="M240 389q116 0 116 -130q0 -46 -11 -93t-34.5 -85.5t-61.5 -62.5t-92 -24q-63 0 -97 33.5t-34 99.5q0 60 18.5 114.5t40.5 89.5q59 91 116.5 182t116.5 183h45l-209 -332q19 12 41.5 18.5t44.5 6.5zM162 33q42 0 70.5 21.5t46 54t25.5 71.5t8 74q0 49 -21.5 73t-68.5 24 q-43 0 -74 -25t-49 -63q-13 -28 -21.5 -61t-8.5 -67q0 -51 22.5 -76.5t70.5 -25.5z" />
<glyph unicode="7" horiz-adv-x="410" d="M84 0h-45l346 656h-231l-19 -99h-41l27 139h316l-7 -40z" />
<glyph unicode="8" horiz-adv-x="410" d="M276 701q65 0 100.5 -36t35.5 -93q0 -32 -6 -66t-20 -63.5t-36.5 -52t-56.5 -31.5q29 -14 45 -42.5t17 -73.5q0 -46 -11 -90.5t-35 -80t-61.5 -57t-90.5 -21.5q-69 0 -105.5 38t-36.5 99q0 28 6 63.5t21 68.5t39.5 59.5t62.5 37.5q-26 14 -42 40t-16 61q0 45 10.5 88 t33 77t59 54.5t87.5 20.5zM215 342q-44 0 -74.5 -19.5t-49 -49.5t-26.5 -65.5t-8 -68.5q0 -20 5 -39t16.5 -34t31 -24.5t49.5 -9.5q42 0 71 19t47 48.5t26.5 65.5t9.5 70q0 44 -23 75.5t-75 31.5zM223 379q42 0 70 16.5t45 43t24.5 59.5t7.5 67q0 42 -26 69.5t-74 27.5 q-42 0 -69 -19t-43 -48t-22.5 -65t-6.5 -69q0 -36 25 -59t69 -23z" />
<glyph unicode="9" horiz-adv-x="410" d="M189 306q-62 0 -89 39t-27 103q0 43 11 88t34.5 82t60.5 60.5t90 23.5q65 0 98.5 -35.5t33.5 -101.5q-1 -60 -18 -113t-39 -88l-233 -364h-46l212 333h-1q-18 -14 -41.5 -20.5t-45.5 -6.5zM206 344q42 0 71 20t46.5 51.5t25.5 69t8 73.5q0 51 -23 77.5t-71 26.5 q-42 0 -70 -21.5t-45 -54.5t-24 -72t-7 -73q0 -49 21 -73t68 -24z" />
<glyph unicode=":" horiz-adv-x="155" d="M9 0l12 61h56l-12 -61h-56zM70 310l11 61h56l-11 -61h-56z" />
<glyph unicode=";" horiz-adv-x="155" d="M-17 -97l41 96h-15l11 60h57l-10 -57l-57 -99h-27zM69 310q4 15 6.5 30t5.5 30h57q-4 -15 -6.5 -30t-5.5 -30h-57z" />
<glyph unicode="&#x3c;" horiz-adv-x="410" d="M360 90l-324 179l7 35l393 179l-7 -41l-350 -158q9 -4 31.5 -16t51.5 -27.5t61.5 -33.5t61.5 -34t51.5 -28.5t32.5 -16.5z" />
<glyph unicode="=" horiz-adv-x="410" d="M47 342l7 36h366l-7 -36h-366zM15 181l8 37h367l-8 -37h-367z" />
<glyph unicode="&#x3e;" horiz-adv-x="410" d="M9 132q11 4 38.5 16.5t62.5 28.5t74 33.5t74 33.5t62.5 28t38.5 16l-288 158l8 37l325 -179l-7 -35l-396 -179z" />
<glyph unicode="?" horiz-adv-x="394" d="M93 553q25 73 76 110.5t117 37.5q71 0 107.5 -37.5t36.5 -95.5q0 -45 -16 -84t-37 -63l-36 -37q-34 -35 -65 -70.5t-44 -84.5q-4 -17 -7 -34.5t-6 -34.5h-44l13 66q13 60 58 112q24 30 50 55.5t50 52.5q19 21 30 51t11 67q0 42 -25 69t-78 27q-56 0 -93.5 -34t-54.5 -83z M140 0l12 55h52l-12 -55h-52z" />
<glyph unicode="@" horiz-adv-x="752" d="M346 145q-28 0 -47.5 9t-31.5 24t-17 33.5t-5 36.5q0 42 8 90.5t28 90t53.5 69t83.5 27.5q29 0 54 -14.5t36 -40.5h1l11 50h36l-56 -271q-6 -29 8.5 -51.5t44.5 -22.5q32 0 60.5 20.5t49.5 56t33.5 83.5t12.5 104q0 55 -18.5 98t-51 73t-77 45.5t-96.5 15.5 q-85 0 -152.5 -33t-115 -89.5t-73 -130.5t-25.5 -156q0 -123 68 -194.5t198 -71.5q100 0 188 38l11 -33q-48 -17 -97.5 -28t-101.5 -11q-142 0 -222.5 76.5t-80.5 218.5q0 94 29.5 175.5t82.5 142t127 95t163 34.5q63 0 114.5 -18.5t88 -52.5t56.5 -82.5t20 -108.5 q0 -66 -15.5 -121t-42 -95t-61.5 -62.5t-75 -22.5q-12 0 -26 3.5t-27 11t-22.5 20.5t-10.5 32q-26 -35 -58 -49t-60 -14zM353 176q43 0 73 30.5t44 73.5q10 34 16 69.5t6 67.5q0 34 -20 54t-55 20q-39 0 -65 -23.5t-42 -58.5t-23 -76t-7 -76q0 -34 16 -57.5t57 -23.5z" />
<glyph unicode="A" horiz-adv-x="475" d="M363 176h-262q-20 -45 -41 -88t-42 -88h-46q84 175 167 348t168 348h48q17 -175 33.5 -348t33.5 -348h-45zM240 467q-4 -8 -13 -27t-21.5 -44.5t-25.5 -53.5t-25.5 -53.5t-21.5 -45t-13 -27.5h240q-6 61 -11 121.5t-11 121.5q-4 45 -7 91t-8 91h-2z" />
<glyph unicode="B" horiz-adv-x="491" d="M375 363l-1 -2q42 -9 63 -46t21 -82q-1 -62 -20.5 -106.5t-51.5 -72.5t-73 -41t-86 -13h-203l135 696h186q77 0 118.5 -37.5t41.5 -105.5q0 -65 -31 -117t-99 -73zM134 342l-59 -301h160q44 0 77.5 15.5t56 42t33.5 60t11 69.5q0 53 -28 83.5t-87 30.5h-164zM195 655 q-14 -69 -27 -137t-26 -137h106q14 0 28.5 0.5t28.5 1.5q34 1 63 13.5t49.5 33.5t32 49t11.5 62q0 55 -33 84.5t-96 29.5h-137z" />
<glyph unicode="C" horiz-adv-x="457" d="M212 33q60 0 101.5 30.5t64.5 88.5q11 -4 21 -7.5t21 -6.5q-26 -73 -80 -108.5t-129 -35.5q-84 0 -126 43t-42 110q0 19 3.5 42.5t6.5 41.5l43 219q9 46 23 91.5t38.5 80.5t63.5 57t99 22q81 0 125 -39t51 -101q-11 -4 -22 -7.5t-23 -6.5q-2 48 -36.5 79.5t-94.5 31.5 q-51 0 -83 -20t-52 -52t-30.5 -71t-17.5 -78l-38 -198q-5 -23 -7.5 -47.5t-2.5 -41.5q0 -23 6.5 -44t21 -37t38 -26t57.5 -10z" />
<glyph unicode="D" horiz-adv-x="504" d="M349 696q86 0 123.5 -38t37.5 -106q0 -13 -2 -34.5t-6 -48.5t-8.5 -57t-10.5 -61q-15 -78 -29.5 -142.5t-31.5 -98.5q-17 -32 -38.5 -53.5t-47.5 -34t-56 -17.5t-63 -5h-192l134 696h190zM411 218q11 53 22 105.5t19 104.5q6 37 12 77.5t-1.5 73.5t-35 54.5t-87.5 21.5 h-144l-119 -614h146q56 0 96 21.5t60 60.5q11 19 19 45.5t13 49.5z" />
<glyph unicode="E" horiz-adv-x="436" d="M25 0l135 696h349l-9 -41h-304l-54 -280h263l-8 -40h-262l-58 -294h304l-7 -41h-349z" />
<glyph unicode="F" horiz-adv-x="425" d="M197 655l-54 -281h262l-8 -40h-262l-64 -334h-46l135 696h349l-8 -41h-304z" />
<glyph unicode="G" horiz-adv-x="484" d="M317 702q81 0 125 -39t51 -101l-45 -14q-2 48 -36.5 79.5t-94.5 31.5q-51 0 -83 -20t-52 -52t-30.5 -71t-17.5 -78l-38 -198q-5 -23 -8.5 -50t-3.5 -44q0 -23 7 -43t22 -35t38.5 -24t57.5 -9q61 0 103 30.5t62 81.5q9 21 15 44t11 46l16 78h-121l8 40h165 q-5 -31 -11.5 -61.5t-13.5 -62.5q-9 -51 -28 -98q-26 -66 -78 -102t-129 -36q-84 0 -125.5 43t-41.5 110q0 19 3 42.5t6 41.5l43 219q9 46 23 91.5t38.5 80.5t63.5 57t99 22z" />
<glyph unicode="H" horiz-adv-x="512" d="M364 0l65 334h-294l-65 -334h-45l136 696h44l-63 -321h295l62 321h45l-136 -696h-44z" />
<glyph unicode="I" horiz-adv-x="191" d="M33 0l136 696h44l-135 -696h-45z" />
<glyph unicode="J" horiz-adv-x="380" d="M305 169q-18 -93 -66.5 -134t-130.5 -41q-35 0 -71 12.5t-55 35.5l31 30q8 -9 20 -15.5t25.5 -11.5t27 -7.5t25.5 -2.5q26 0 49.5 6.5t43 23t34.5 44t23 70.5l101 517h45z" />
<glyph unicode="K" horiz-adv-x="495" d="M490 696h51l-230 -271l128 -425h-47q-29 97 -58 192.5t-58 192.5l-171 -196l-38 -189h-44l136 696h44q-20 -107 -44 -216.5t-44 -216.5h1z" />
<glyph unicode="L" horiz-adv-x="394" d="M32 0l135 696h44l-128 -655h299l-8 -41h-342z" />
<glyph unicode="M" horiz-adv-x="630" d="M599 588q-69 -115 -138.5 -227t-141.5 -225h-34q-26 111 -52 221.5t-52 222.5h-1l-113 -580h-44l136 696h43q27 -125 55 -247t56 -246h1q7 12 30 48.5t53.5 85.5t65 105t65.5 107t55.5 90.5t34.5 56.5h47l-136 -696h-43q28 146 57 294t57 294h-1v0z" />
<glyph unicode="N" horiz-adv-x="541" d="M184 608q-5 -30 -14 -78t-20 -104.5t-22.5 -117.5t-23 -118.5t-21 -107t-15.5 -82.5h-44l136 696h43l207 -602h2l117 602h42l-134 -696h-43q-26 78 -52 152.5t-51.5 149t-52 150.5t-53.5 156h-1v0z" />
<glyph unicode="O" horiz-adv-x="485" d="M439 204q-8 -43 -24 -81.5t-42.5 -67t-64 -45.5t-89.5 -17q-53 0 -90 18t-58 48t-27 70t2 84l56 280q8 40 23 78t41 66.5t64 46t92 17.5q49 0 84.5 -16.5t57.5 -44.5t29 -65.5t-1 -79.5zM448 493q6 31 2 61t-20 53t-44.5 37.5t-70.5 14.5q-41 0 -70 -14.5t-49 -38 t-32 -54t-18 -61.5l-55 -281q-7 -35 -3.5 -66.5t18.5 -55.5t43 -38.5t71 -14.5q42 0 72 14t50 37.5t32.5 53.5t18.5 62z" />
<glyph unicode="P" horiz-adv-x="465" d="M70 0h-45l136 696h179q82 0 126.5 -37.5t44.5 -112.5q0 -56 -15.5 -101.5t-45.5 -78.5t-73.5 -51t-98.5 -18h-150zM465 537q0 57 -32 87.5t-98 30.5h-138l-61 -316h144q85 0 135 53t50 145z" />
<glyph unicode="Q" horiz-adv-x="487" d="M439 204q-8 -37 -19.5 -70t-31.5 -60l60 -56l-29 -29l-59 54q-26 -23 -60.5 -36.5t-80.5 -13.5q-53 0 -90 18t-58 48t-27 70t2 84l56 280q8 40 23 78t41 66.5t64 46t92 17.5q49 0 84.5 -16.5t57.5 -44.5t29 -65.5t-1 -79.5zM448 493q6 31 2 61t-20 53t-44.5 37.5 t-70.5 14.5q-41 0 -70 -14.5t-49 -38t-32 -54t-18 -61.5l-55 -281q-7 -35 -3.5 -66.5t18.5 -55.5t43 -38.5t71 -14.5q35 0 61.5 10.5t46.5 27.5l-77 71l31 31l74 -70q14 21 23 46t14 51z" />
<glyph unicode="R" horiz-adv-x="485" d="M352 696q79 0 120 -36.5t41 -107.5q0 -95 -47.5 -153t-129.5 -72l75 -327h-49l-72 322l-159 -1q-15 -81 -30.5 -160.5t-31.5 -160.5h-44l135 696h192zM196 655q-14 -74 -28.5 -147t-28.5 -148h127q38 0 74.5 8.5t65 30.5t46 58t17.5 92q0 54 -34 80t-95 26h-144z" />
<glyph unicode="S" horiz-adv-x="457" d="M315 702q67 0 107 -24.5t59 -64.5l-41 -25q-14 34 -46.5 52.5t-80.5 18.5q-39 0 -69 -13.5t-49.5 -36t-29.5 -51t-10 -59.5q0 -27 8.5 -45.5t24.5 -32.5t40 -24.5t55 -21.5q35 -12 62 -26t46 -32.5t28.5 -43.5t9.5 -60q0 -100 -58.5 -159.5t-167.5 -59.5q-73 0 -118.5 30 t-61.5 81l41 22q12 -42 48 -66.5t97 -24.5q44 0 76.5 14t53.5 37t31.5 53.5t10.5 63.5q0 31 -8.5 52t-24.5 35t-38.5 24t-50.5 19q-41 14 -70 29t-47.5 33.5t-27 42t-8.5 54.5q0 45 14 83.5t41 66t65.5 43.5t88.5 16z" />
<glyph unicode="T" horiz-adv-x="394" d="M307 655l-128 -655h-44l128 655h-170l8 41h382l-9 -41h-167z" />
<glyph unicode="U" horiz-adv-x="494" d="M537 696q-3 -13 -10 -51t-17 -89t-21 -108t-20.5 -108t-17 -89t-9.5 -50q-9 -44 -26 -82t-44.5 -66t-65.5 -43.5t-89 -15.5q-50 0 -85.5 15.5t-56 43.5t-27 65.5t1.5 82.5l97 495h44q-2 -10 -9 -47t-17 -88t-21.5 -109.5t-21.5 -109.5t-17.5 -89t-9.5 -49 q-7 -34 -4 -64.5t17.5 -53t42 -36t69.5 -13.5t73 14t52 37.5t33.5 54.5t19.5 65l94 488h45z" />
<glyph unicode="V" horiz-adv-x="448" d="M194 68q15 32 32 70t34.5 76.5t34.5 76t32 69.5l153 336h48l-323 -696h-47l-51 696h43q6 -85 11.5 -169.5t10.5 -169.5q5 -72 9.5 -144t9.5 -145h3v0z" />
<glyph unicode="W" horiz-adv-x="687" d="M420 606l-107 -256l-148 -350h-48l-6 696h43q0 -78 0.5 -155.5t0.5 -155.5v-153t-1 -153h2l137 325q31 73 62 145.5t61 146.5h42q1 -14 2 -45t2 -73t2.5 -91.5t3.5 -101t3.5 -101t2.5 -91t2 -72t2 -43.5h2q24 64 49 128l50 128l141 362h46l-277 -696h-47 q-2 80 -4.5 159.5t-5.5 159.5q-2 72 -4.5 143.5t-5.5 143.5h-2z" />
<glyph unicode="X" horiz-adv-x="419" d="M324 0l-92 313l-212 -313h-50l245 357l-100 338h45l85 -296l200 296h51l-235 -339l109 -356h-46z" />
<glyph unicode="Y" horiz-adv-x="408" d="M228 341q21 35 42.5 70.5t43.5 70.5l130 214h48l-252 -405l-56 -291h-43l56 291q-23 102 -47 202.5t-48 202.5h43q14 -57 25.5 -114.5t25.5 -114.5q7 -30 14.5 -62.5t15.5 -63.5h2v0z" />
<glyph unicode="Z" horiz-adv-x="391" d="M-18 0l8 41l416 614h-279l8 41h328l-8 -40l-417 -615h292l-8 -41h-340z" />
<glyph unicode="[" horiz-adv-x="214" d="M8 -108l156 805h128l-7 -34h-86l-144 -738h87l-7 -33h-127z" />
<glyph unicode="\" horiz-adv-x="254" d="M148 -36l-52 757h35l52 -757h-35z" />
<glyph unicode="]" horiz-adv-x="214" d="M-21 -109l6 34h86l144 738h-87l7 34h127l-156 -806h-127z" />
<glyph unicode="^" horiz-adv-x="410" d="M55 354l228 339h34l96 -338h-38l-82 297q-6 -9 -21 -32t-35 -53t-42.5 -63.5t-42.5 -63.5t-35 -53.5t-21 -32.5h-41z" />
<glyph unicode="_" horiz-adv-x="492" d="M-62 -113l8 37h490l-7 -37h-491z" />
<glyph unicode="`" horiz-adv-x="409" d="M315 558l-102 146l41 22l84 -156z" />
<glyph unicode="a" horiz-adv-x="428" d="M289 0l15 70h-2q-26 -35 -60 -55.5t-84 -20.5q-32 0 -54.5 10.5t-36.5 29.5t-20.5 43.5t-6.5 53.5t4 62.5t11 68.5q10 53 26 96.5t40 75t57 48.5t77 17q42 0 73.5 -19.5t43.5 -53.5l1 1l12 65h42l-96 -492h-42zM259 457q-39 0 -66 -16.5t-44.5 -43.5t-28.5 -61t-18 -69 q-8 -35 -13 -69t-5 -62q0 -21 4.5 -40t15 -32.5t27.5 -21.5t42 -8q28 0 51 11t40.5 29t30 40.5t20.5 45.5q14 44 22.5 88.5t13.5 85.5q4 25 -1 47.5t-17 39t-31 26.5t-43 10z" />
<glyph unicode="b" horiz-adv-x="402" d="M177 -6q-45 0 -74 16.5t-43 53.5h-2l-14 -64h-42l141 723h43q-15 -75 -30 -151t-29 -152h1q19 29 56 53t85 24q33 0 56.5 -10t37.5 -27.5t20.5 -41t6.5 -51.5q0 -32 -3.5 -72.5t-12.5 -82t-24.5 -81t-39.5 -70t-56.5 -49t-76.5 -18.5zM172 33q34 0 60.5 15.5t46 41.5 t32.5 60t20.5 69.5t11 70.5t3.5 64q0 51 -22 77t-73 26q-25 0 -46 -9.5t-37.5 -25t-28.5 -35t-19 -39.5q-14 -40 -23 -83.5t-14 -84.5q-4 -26 -3.5 -52.5t9.5 -47.5t28.5 -34t54.5 -13z" />
<glyph unicode="c" horiz-adv-x="368" d="M172 -6q-42 0 -70 12t-44.5 32.5t-23 47t-6.5 55.5q0 37 4.5 78t15 80.5t27.5 75.5t42.5 63.5t60.5 43.5t80 16q51 0 86 -23t43 -68l-40 -19q-5 32 -29.5 51t-61.5 19q-55 0 -90.5 -33t-56 -81t-28.5 -102.5t-8 -96.5q0 -22 4.5 -42t16.5 -35.5t32 -24.5t50 -9 q37 0 68.5 18t46.5 50l38 -20q-23 -42 -63 -65t-94 -23z" />
<glyph unicode="d" horiz-adv-x="402" d="M147 -7q-34 0 -57 9.5t-37.5 27t-20.5 42t-6 55.5q2 37 7 78.5t15.5 83t26.5 79.5t39.5 66.5t55.5 46t73 17.5q48 0 74.5 -21.5t39.5 -52.5h1q15 76 30 151t29 150h43q-35 -183 -70.5 -362.5t-71.5 -362.5h-42q2 17 5.5 32.5t6.5 32.5h-2q-26 -33 -59 -52.5t-80 -19.5z M164 34q48 0 82 30t49 73q14 41 22.5 84.5t15.5 85.5q4 25 3.5 51.5t-10 48.5t-29 36t-52.5 14q-50 0 -83 -33t-52.5 -82t-28.5 -105t-10 -100q0 -22 3.5 -40.5t14 -32.5t28.5 -22t47 -8z" />
<glyph unicode="e" horiz-adv-x="406" d="M332 77q-26 -38 -66.5 -60.5t-94.5 -22.5q-41 0 -67.5 13t-42 33.5t-21.5 46t-6 49.5q0 35 4.5 75.5t14.5 81t27 77.5t41.5 66t58 46t76.5 17q72 0 107 -33t35 -81q0 -80 -58 -125.5t-183 -45.5q-12 0 -33.5 1t-41.5 3q-3 -18 -5 -36.5t-2 -33.5q0 -52 22.5 -83.5 t77.5 -31.5q35 0 70 17t55 46zM253 460q-34 0 -61 -15t-47 -42t-34 -64t-22 -82q18 -2 41 -3.5t37 -1.5q51 0 87 9.5t58.5 26.5t33 40t10.5 50q0 37 -27 59.5t-76 22.5z" />
<glyph unicode="f" horiz-adv-x="225" d="M169 455q-22 -110 -43.5 -219.5t-42.5 -220.5q-6 -31 -15 -58t-25 -47.5t-40.5 -32.5t-60.5 -12q-7 0 -12.5 0.5t-13.5 1.5l7 41q6 -1 9.5 -1h8.5q46 0 66.5 24t26.5 57l91 467h-64q2 9 3.5 18.5t3.5 17.5h65q5 29 11 57t11 57q11 53 41.5 88t90.5 35q7 0 14.5 -0.5 t15.5 -1.5l-7 -40q-14 3 -26 3q-24 0 -39.5 -8.5t-25 -21t-14.5 -28.5t-8 -31l-21 -109h92l-7 -36h-92v0z" />
<glyph unicode="g" horiz-adv-x="422" d="M299 72h-2q-27 -36 -62.5 -56.5t-82.5 -20.5q-34 0 -56.5 10.5t-36 28.5t-19 42t-5.5 51q0 31 4.5 68t12.5 76q9 44 23.5 85t38 73t57 51t80.5 19q40 0 71.5 -19t42.5 -53h1q4 17 7.5 32.5t6.5 32.5h42q-11 -58 -22.5 -116.5t-23.5 -120.5t-25 -129.5t-27 -143.5 q-14 -85 -61 -135t-132 -50q-44 0 -81 19t-48 63l36 22q7 -26 30 -45.5t61 -19.5q64 0 100 35t47 91zM256 458q-41 0 -68 -16.5t-45 -43.5t-28.5 -61t-18.5 -70q-7 -36 -11.5 -70t-4.5 -63q0 -21 3.5 -39.5t13.5 -31.5t27.5 -20.5t44.5 -7.5t51 11t43 29t32.5 41t19.5 47 q4 15 9 36t9 44t7.5 47t5.5 44q2 24 -1 46.5t-13.5 39.5t-29 27.5t-46.5 10.5z" />
<glyph unicode="h" horiz-adv-x="432" d="M140 420q29 40 69 58.5t78 18.5q36 0 61.5 -12.5t40 -34t18 -50t-3.5 -59.5l-66 -341h-44q9 46 18.5 92.5t18 90t15.5 82t13 67.5q4 22 3 44t-10 39t-28 28t-49 11q-38 0 -66 -15t-47.5 -40t-31.5 -57.5t-19 -66.5l-53 -275h-42q35 183 70 363.5t71 363.5h42l-60 -307h2z " />
<glyph unicode="i" horiz-adv-x="175" d="M146 628l9 48h46l-9 -48h-46zM26 0l95 493h43l-95 -493h-43z" />
<glyph unicode="j" horiz-adv-x="182" d="M16 -73q27 141 55 281.5t55 283.5h44q-28 -146 -56 -289t-56 -287q-11 -53 -39.5 -85.5t-83.5 -32.5h-11.5t-11.5 1l7 40h18q38 0 54.5 23t24.5 65zM161 675h47l-9 -47h-47z" />
<glyph unicode="k" horiz-adv-x="408" d="M371 492h52l-171 -183q28 -78 55 -155t55 -154h-46q-24 69 -48 138.5t-49 138.5q-35 -36 -68 -72t-67 -72l-26 -133h-42l140 727h42l-103 -527h1z" />
<glyph unicode="l" horiz-adv-x="191" d="M203 726q-3 -16 -12 -63t-21.5 -109.5t-26 -133t-26 -133t-22 -109.5t-12.5 -63q-3 -17 -3 -31q0 -21 12 -34t45 -13h12l-9 -40h-10q-94 0 -94 76q0 16 3 34l121 619h43z" />
<glyph unicode="m" horiz-adv-x="711" d="M558 497q41 0 67 -14t39 -37t15 -51.5t-4 -58.5l-66 -336h-43l65 335q4 22 2.5 43t-11 38t-27.5 27.5t-48 10.5q-33 0 -59 -13.5t-45.5 -35.5t-31.5 -50t-18 -57l-58 -298h-43l66 335q4 22 2.5 43.5t-11.5 39t-28.5 28t-48.5 10.5q-36 0 -62.5 -14.5t-45 -38.5t-30 -55 t-17.5 -64l-55 -284h-42q23 123 47.5 245.5t47.5 245.5h42l-13 -70h2q29 39 66 57.5t75 18.5q48 0 79 -23t36 -62q33 44 72.5 64.5t83.5 20.5z" />
<glyph unicode="n" horiz-adv-x="432" d="M154 492q-4 -18 -7.5 -36t-6.5 -36h2q29 41 69 59t78 18q37 0 62 -12.5t39 -33.5t17.5 -49t-2.5 -58l-67 -344h-43l65 332q4 23 4 45t-9 39t-28 27.5t-53 10.5q-38 0 -65.5 -15t-47 -39.5t-31.5 -56.5t-18 -65l-54 -278h-42l96 492h42z" />
<glyph unicode="o" horiz-adv-x="416" d="M253 499q39 0 66.5 -13t44.5 -35t24.5 -49.5t7.5 -57.5q-1 -31 -6 -65.5t-12 -66.5q-11 -53 -27 -94t-39.5 -68.5t-57 -41.5t-79.5 -14q-43 0 -71 12.5t-44 32.5t-22 45t-6 51q0 29 2.5 59t7.5 57q10 57 27.5 103t41.5 77q26 33 60 50.5t82 17.5zM248 460q-34 0 -62 -15 t-47 -43q-12 -18 -23.5 -48t-20.5 -65t-14.5 -71.5t-5.5 -67.5q0 -23 3.5 -44t14.5 -37.5t31.5 -26.5t53.5 -10q46 0 78.5 23t49.5 65q10 22 18.5 50.5t15 59t10 61t3.5 57.5q0 54 -28 83t-77 29z" />
<glyph unicode="p" horiz-adv-x="418" d="M-32 -199q33 174 67 346t68 346h42l-12 -65h2q26 33 59 52.5t80 19.5q63 0 92 -34t29 -97q-1 -31 -5 -68t-11 -67q-11 -51 -26 -95t-38.5 -75.5t-56.5 -49.5t-81 -18q-47 0 -73.5 21t-39.5 52h-2l-52 -268h-42zM257 459q-48 0 -82 -30t-49 -74q-16 -45 -26 -93.5 t-15 -93.5q-1 -6 -1 -12.5v-13.5q0 -22 4.5 -41t15.5 -33.5t28 -23t43 -8.5q41 0 68.5 18t45.5 47t29.5 67t19.5 77q6 28 9 55.5t3 53.5q0 22 -4 41t-14.5 33t-28.5 22.5t-46 8.5z" />
<glyph unicode="q" horiz-adv-x="422" d="M254 457q-38 0 -64.5 -16t-45.5 -43.5t-31 -63.5t-19 -75q-6 -32 -9.5 -63.5t-3.5 -57.5q0 -50 21 -77.5t72 -27.5q25 0 45.5 9.5t37 25.5t28.5 35.5t20 40.5q17 43 26.5 89.5t12.5 87.5q2 25 0.5 49.5t-10.5 43.5t-28 31t-52 12zM246 -198q14 68 26.5 135t26.5 133h-1 q-20 -29 -56 -52.5t-83 -23.5q-35 0 -58.5 11.5t-38 30t-21 43t-6.5 50.5q0 35 4.5 71.5t12.5 76.5q7 40 21.5 79.5t38 71t57.5 51t80 19.5q41 0 73.5 -18.5t43.5 -53.5h2q3 17 6 33t7 32h42q-34 -174 -66.5 -345.5t-66.5 -343.5h-44z" />
<glyph unicode="r" horiz-adv-x="285" d="M319 447q-11 5 -22.5 6t-19.5 1q-58 0 -99 -42.5t-54 -109.5l-59 -302h-42l95 493h43l-16 -79h3q29 48 67.5 66.5t79.5 18.5q24 0 39 -6z" />
<glyph unicode="s" horiz-adv-x="387" d="M241 499q54 0 88.5 -21t50.5 -60l-40 -20q-23 60 -104 60q-55 0 -88.5 -30t-33.5 -72q0 -19 7.5 -31.5t21.5 -22t33.5 -16t44.5 -13.5q27 -7 49.5 -16t38.5 -23t25 -33.5t9 -47.5q0 -70 -45.5 -115t-137.5 -45q-59 0 -97.5 23t-52.5 67l37 20q14 -35 42 -52.5t76 -17.5 q26 0 50 7t42 21.5t29 35.5t11 50q0 22 -8 36.5t-22.5 24.5t-34 16t-41.5 12q-58 16 -90.5 41t-32.5 72q0 69 48 109.5t125 40.5z" />
<glyph unicode="t" horiz-adv-x="238" d="M67 456q2 9 3.5 18t3.5 17h61l26 135h44l-27 -135h84q-2 -8 -3.5 -17t-3.5 -18h-84l-65 -339q-3 -17 -3.5 -31t5 -24.5t18.5 -16.5t36 -6h30l-7 -39h-38q-29 0 -47.5 8.5t-28.5 23t-12 34t2 41.5l67 349h-61v0z" />
<glyph unicode="u" horiz-adv-x="435" d="M306 70q-29 -41 -68 -58.5t-76 -17.5q-36 0 -61 12t-40 32.5t-19 48.5t2 60l66 345h43l-64 -337q-5 -24 -3.5 -46t11.5 -38.5t29.5 -26t51.5 -9.5q28 0 53 11t45 30t33.5 44t19.5 53l61 319h43l-96 -492h-43l15 70h-3z" />
<glyph unicode="v" horiz-adv-x="365" d="M396 492q-25 -68 -52 -130.5t-57.5 -122.5t-64.5 -119t-73 -120h-44l-57 492h44l31 -279q4 -37 7.5 -76.5t3.5 -82.5h3q61 101 114 208t97 230h48z" />
<glyph unicode="w" horiz-adv-x="607" d="M333 432q-42 -115 -92 -221t-110 -211h-45l-38 492h44l21 -306q2 -30 3.5 -62t0.5 -67h2q51 94 101.5 204.5t97.5 230.5h50l25 -301q3 -31 5 -62.5t2 -67.5h2q55 97 104 205.5t89 225.5h45q-23 -68 -48.5 -130.5t-53.5 -122.5t-59.5 -119t-67.5 -120h-45l-26 312 q-2 23 -3.5 53t-0.5 67h-3z" />
<glyph unicode="x" horiz-adv-x="366" d="M275 0l-75 217q-2 -3 -13.5 -19t-28.5 -39.5t-36 -50t-36 -50t-29 -40t-14 -18.5h-52l189 253q-2 3 -8.5 21t-15.5 43.5t-19 55t-19 55t-16 43.5t-8 21h49l67 -206l149 206h53l-182 -240q1 -3 8.5 -22t17.5 -46t21 -58t21 -58t17 -46t9 -22h-49z" />
<glyph unicode="y" horiz-adv-x="360" d="M140 19q27 46 55 104t55 120.5t52.5 126t46.5 121.5h43q-66 -176 -128.5 -311t-126.5 -240q-16 -27 -35.5 -51.5t-43 -42.5t-52 -29t-61.5 -11v37q35 3 66.5 16.5t58.5 51.5q12 16 20.5 30t19.5 37l-64 513h43q5 -52 11 -103.5t12 -103.5q4 -32 7.5 -66t6.5 -68 q3 -29 7.5 -67t4.5 -64h2z" />
<glyph unicode="z" horiz-adv-x="353" d="M-17 0l7 38l329 416h-231l7 38h281l-7 -37l-328 -416h245l-8 -39h-295z" />
<glyph unicode="{" horiz-adv-x="221" d="M119 -109q-38 0 -55.5 28.5t-8.5 74.5l27 141q12 64 7.5 100.5t-45.5 49.5l5 25q23 6 39.5 21t27.5 36t17.5 45.5t11.5 47.5l27 136q8 45 34 72.5t64 27.5h35l-6 -28h-22q-19 0 -31.5 -9t-21 -22.5t-13 -29.5t-7.5 -30l-26 -136q-12 -61 -39.5 -97.5t-50.5 -44.5l-1 -2 q24 -8 35.5 -43t0.5 -93l-28 -149q-3 -15 -4.5 -31.5t1.5 -30t12 -22t27 -8.5h23l-6 -29h-29z" />
<glyph unicode="|" horiz-adv-x="175" d="M73 -162v880h34v-880h-34z" />
<glyph unicode="}" horiz-adv-x="221" d="M219 281q-44 -11 -63.5 -48t-31.5 -101l-28 -141q-8 -45 -34 -72.5t-66 -27.5h-33l6 29h22q18 0 31 9t21.5 22.5t13 30t7.5 32.5l28 143q11 59 36.5 94t52.5 43v2q-21 8 -33.5 44.5t-0.5 97.5l26 135q3 16 4.5 33t-1.5 30.5t-12 22.5t-27 9h-23l5 27h32q39 0 55 -28.5 t7 -73.5l-27 -136q-5 -24 -7 -48t1 -44.5t13 -35.5t31 -21l-5 -27v0z" />
<glyph unicode="~" horiz-adv-x="410" d="M404 265q-20 -29 -46 -45.5t-59 -16.5q-23 0 -44.5 8.5t-42.5 18t-42.5 18t-42.5 8.5t-39.5 -10.5t-38.5 -30.5l-24 20q22 27 50 43t58 16q25 0 46.5 -8.5t42 -18.5t41 -18.5t41.5 -8.5q20 0 37.5 8.5t37.5 34.5z" />
<glyph unicode="&#xa1;" horiz-adv-x="205" d="M157 317l-95 -521h-45q6 29 14.5 70.5t18.5 90t20.5 100t20.5 100t18.5 90t14.5 70.5h33zM200 491l-10 -54h-52q2 14 5 27t6 27h51z" />
<glyph unicode="&#xa2;" horiz-adv-x="375" d="M125 -110l20 106q-34 4 -56.5 17t-36 32.5t-19 44t-5.5 51.5q0 54 10 115t34.5 113t66 88t104.5 40l19 97h27l-19 -96q47 -3 78 -26t39 -65l-40 -19q-5 31 -27.5 49.5t-57.5 20.5l-82 -424q35 1 65.5 19t45.5 49l38 -20q-23 -42 -63 -65t-94 -23l-20 -104h-27zM73 145 q0 -20 4 -38t13 -33t24.5 -25.5t38.5 -13.5l82 421q-49 -7 -80.5 -41.5t-49.5 -81t-25 -97.5t-7 -91z" />
<glyph unicode="&#xa3;" horiz-adv-x="410" d="M296 701q64 0 100.5 -30t44.5 -93q-11 -4 -21 -7t-21 -6q-5 48 -30 72.5t-76 24.5q-28 0 -52.5 -11t-43 -32t-29 -50.5t-10.5 -66.5q0 -32 5.5 -65t5.5 -72q0 -5 -0.5 -8.5t-0.5 -8.5h126q-2 -9 -3.5 -17.5t-3.5 -17.5h-123q-14 -80 -41 -146.5t-75 -126.5h290l-8 -40 h-339q1 9 2.5 18.5t3.5 19.5q48 57 80.5 125t44.5 150h-75l7 35h70q0 3 0.5 6.5t0.5 7.5q0 36 -6.5 74.5t-6.5 73.5q0 39 12.5 74t36.5 61t58 41t77 15z" />
<glyph unicode="&#xa4;" horiz-adv-x="503" d="M72 483q5 5 13.5 14t13.5 14l56 -55q46 36 105 36q57 0 104 -35l9.5 9.5t18 18.5t18 18t9.5 9l27 -28l-55 -55q39 -48 39 -105q0 -29 -10 -55.5t-27 -49.5l55 -56q-6 -6 -14 -14.5t-14 -13.5l-55 56q-44 -38 -105 -38q-58 0 -106 39l-9.5 -9.5l-18.5 -18.5l-18.5 -18.5 l-9.5 -9.5l-28 28l57 56q-36 47 -36 103q0 57 37 105zM132 324q0 -27 10 -50.5t27 -41.5t40.5 -28t50.5 -10t50.5 10t41.5 27.5t28 41t10 50.5t-10 50.5t-27.5 41.5t-41 28t-50.5 10t-50.5 -10t-41 -27.5t-27.5 -41t-10 -50.5z" />
<glyph unicode="&#xa5;" horiz-adv-x="410" d="M167 329q-20 92 -39.5 183t-39.5 184h44l75 -359h1q22 37 44.5 75t48 81t55 92.5t64.5 110.5h46l-222 -367h128q-1 -8 -2.5 -15.5t-3.5 -15.5h-139l-12 -31l-12 -61h146q-2 -8 -3.5 -16t-3.5 -16h-145l-35 -174h-41q8 44 16.5 87t17.5 87h-142q2 8 3.5 16t3.5 16h141 l13 69q0 6 -0.5 12t-0.5 11h-135l6 31h123z" />
<glyph unicode="&#xa6;" horiz-adv-x="175" d="M73 304v412h34v-412h-34zM107 249v-411h-34v411h34z" />
<glyph unicode="&#xa7;" horiz-adv-x="430" d="M306 702q84 0 135 -49l-28 -32q-23 23 -51 33t-59 10q-27 0 -50 -8.5t-39.5 -23t-26 -34.5t-9.5 -42q0 -20 9 -35.5t24.5 -29t35 -25t40.5 -22.5q22 -12 43.5 -25t38.5 -29.5t27 -37t10 -45.5q0 -42 -24 -77t-66 -63q27 -37 27 -81q0 -35 -14 -64.5t-39.5 -51.5 t-60.5 -34.5t-77 -12.5q-40 0 -77.5 15.5t-61.5 39.5q6 7 12.5 14t13.5 13q45 -44 112 -44q31 0 58.5 8t47.5 23.5t32 38t12 52.5q0 35 -26.5 62.5t-86.5 56.5q-57 29 -85 56.5t-28 68.5q0 44 26 80t71 61q-17 18 -26.5 37.5t-9.5 44.5q0 31 12 59t34.5 48.5t54 32.5 t69.5 12zM201 445q-32 -17 -57.5 -46t-25.5 -64q0 -28 20.5 -49.5t48 -38t56 -29.5t45.5 -25q34 19 55 49.5t21 60.5q0 25 -12.5 43t-34 33t-51.5 30.5t-65 35.5z" />
<glyph unicode="&#xa8;" horiz-adv-x="411" d="M314 597l10 51h47l-10 -51h-47zM147 597l9 51h48l-10 -51h-47z" />
<glyph unicode="&#xa9;" horiz-adv-x="742" d="M499 222q-9 -45 -42.5 -70t-78.5 -25q-60 0 -94 36t-34 94v157q0 57 34.5 93.5t93.5 36.5q45 0 78.5 -24t41.5 -69l-34 -12q-6 32 -29 51.5t-57 19.5q-45 0 -68.5 -28t-23.5 -66v-160q0 -38 23.5 -66.5t68.5 -28.5q34 0 56 19t29 53zM376 -9q-74 0 -133.5 26.5 t-101.5 73.5t-64.5 111t-22.5 139t23 139.5t65 112t101.5 74t132.5 26.5t132.5 -26.5t101.5 -74t65 -112t23 -139.5t-23 -139t-65 -111t-101.5 -73.5t-132.5 -26.5zM376 659q-66 0 -118.5 -25t-89.5 -68t-57 -101t-20 -124q0 -67 20.5 -125t58 -100.5t90 -67t116.5 -24.5 t117 24.5t90 67t57.5 100.5t20.5 125t-20.5 125.5t-58 101t-90 67t-116.5 24.5z" />
<glyph unicode="&#xaa;" horiz-adv-x="292" d="M223 277q2 11 4 20.5t4 20.5q-17 -20 -40 -32.5t-55 -12.5q-25 0 -41 7.5t-25.5 21t-13.5 31t-4 37.5q0 18 2.5 40t6.5 42q6 33 17.5 61.5t28 48.5t40 31.5t53.5 11.5q26 0 47 -11t30 -30l8 37h36q-16 -80 -31.5 -162t-30.5 -162h-36zM202 571q-51 0 -76 -46 q-8 -14 -14.5 -34t-11 -41.5t-7.5 -43t-3 -37.5q0 -27 13 -44.5t45 -17.5q18 0 33 7t26.5 18.5t19.5 25.5t12 28q9 29 17 63t8 61q0 26 -15.5 43.5t-46.5 17.5z" />
<glyph unicode="&#xab;" horiz-adv-x="373" d="M260 46l-76 179l145 179h45l-146 -180l75 -178h-43zM130 46l-76 179l145 179h45l-145 -180l74 -178h-43z" />
<glyph unicode="&#xac;" horiz-adv-x="410" d="M365 92h-38l34 176h-328l7 37h366z" />
<glyph unicode="&#xad;" horiz-adv-x="346" d="M60 255l9 42h249l-8 -42h-250z" />
<glyph unicode="&#xae;" horiz-adv-x="516" d="M260 278q-45 0 -81.5 16.5t-62 45t-39.5 67.5t-14 85t14 85.5t40 68t62 45t81 16.5q44 0 80.5 -16.5t62 -45t39.5 -68t14 -85.5t-14 -85t-39.5 -67.5t-61.5 -45t-81 -16.5zM260 682q-39 0 -70.5 -14.5t-53.5 -40t-34 -60t-12 -74.5q0 -41 12 -75.5t34.5 -60t53.5 -40 t70 -14.5t70.5 15t53 40.5t33 60t11.5 74.5t-12 74.5t-34 60t-53 40t-69 14.5zM314 365q-11 28 -23 55t-24 55h-49v-110h-28v252h80q32 0 52.5 -18t20.5 -53q0 -23 -12.5 -41.5t-35.5 -26.5q12 -28 25 -56.5t26 -56.5h-32zM314 546q0 22 -14 33.5t-34 11.5h-48v-92h48 q21 0 34.5 12t13.5 35z" />
<glyph unicode="&#xaf;" horiz-adv-x="414" d="M179 598l8 40h232l-9 -40h-231z" />
<glyph unicode="&#xb0;" horiz-adv-x="322" d="M271 590q0 -23 -8.5 -42.5t-23 -34t-34 -23t-42.5 -8.5q-22 0 -41.5 8.5t-34 23t-23 34t-8.5 42.5q0 22 8.5 42t23 34t34 22.5t41.5 8.5q24 0 43.5 -8.5t34 -22.5t22.5 -34t8 -42zM239 590q0 32 -22 54.5t-54 22.5q-31 0 -53 -22.5t-22 -54.5t21.5 -54.5t53.5 -22.5 t54 21.5t22 55.5z" />
<glyph unicode="&#xb1;" horiz-adv-x="410" d="M236 273l-34 -173h-36l34 173h-165l7 37h165l33 172h35l-32 -172h164l-7 -37h-164zM-14 20l6 37h367l-8 -37h-365z" />
<glyph unicode="&#xb2;" horiz-adv-x="260" d="M33 370l6 32l197 221q36 41 36 78q1 23 -14.5 38t-44.5 15q-26 0 -48 -16.5t-31 -48.5l-37 8q12 42 43.5 66t74.5 24q47 0 71.5 -22t23.5 -61q0 -29 -13.5 -53.5t-32.5 -46.5q-5 -5 -18.5 -20t-31.5 -35.5t-39 -44t-39.5 -44t-32 -35.5t-18.5 -20h165l-8 -35h-209z" />
<glyph unicode="&#xb3;" horiz-adv-x="258" d="M217 786q42 0 66 -23t24 -58q0 -13 -3 -30.5t-11 -34.5t-21.5 -32t-34.5 -24q23 -11 29 -28.5t6 -37.5q0 -26 -7 -53t-22.5 -49.5t-41.5 -37t-64 -14.5t-62 22t-25 60l35 6q1 -25 13.5 -40.5t41.5 -15.5q25 0 43 10t30 27t17.5 38.5t5.5 44.5q0 53 -55 53h-26l7 31h24 q37 0 60.5 28.5t23.5 74.5q0 22 -16 36.5t-40 14.5q-29 0 -48.5 -15.5t-28.5 -41.5q-9 2 -18.5 3.5t-18.5 3.5q13 40 43 61t74 21z" />
<glyph unicode="&#xb4;" horiz-adv-x="412" d="M249 571l93 152l44 -18l-112 -145z" />
<glyph unicode="&#xb6;" horiz-adv-x="450" d="M297 679l-96 -760h-45q14 110 27.5 219.5t27.5 220.5q-66 0 -106 38t-40 110q0 40 11.5 79t35.5 69.5t60.5 49.5t85.5 19h230q-2 -11 -3.5 -22.5t-3.5 -22.5h-56l-97 -760h-45l97 760h-83z" />
<glyph unicode="&#xb7;" horiz-adv-x="155" d="M66 234l11 61h57l-12 -61h-56z" />
<glyph unicode="&#xb8;" horiz-adv-x="422" d="M186 12l-31 -65q22 -2 36.5 -9t23 -16t12 -19.5t3.5 -20.5q0 -14 -6 -28t-18.5 -26t-32 -19.5t-47.5 -7.5q-14 0 -31.5 3t-36.5 11l12 27q17 -8 32.5 -10t28.5 -2q22 0 41.5 11.5t19.5 37.5q0 22 -18.5 32.5t-41.5 8.5l-13 12l39 80h28z" />
<glyph unicode="&#xb9;" horiz-adv-x="209" d="M154 370h-36l72 373l-74 -42l8 41l77 43h35z" />
<glyph unicode="&#xba;" horiz-adv-x="287" d="M203 606q28 0 47.5 -8.5t32 -23t18 -33.5t5.5 -40q0 -20 -2.5 -42t-7.5 -43q-14 -70 -45.5 -107t-93.5 -37q-30 0 -50 8t-32 22t-17 32t-5 39t2.5 42t7.5 41q7 30 17 57t22 44q17 23 41.5 36t59.5 13zM200 573q-18 0 -33 -5.5t-27 -19.5q-12 -13 -21.5 -34.5t-15.5 -46.5 t-10 -51t-4 -46q0 -25 14.5 -44.5t53.5 -19.5q28 0 47 11.5t31 31.5q9 15 15 34t10.5 40t6.5 41.5t2 37.5q0 32 -17 51.5t-52 19.5z" />
<glyph unicode="&#xbb;" horiz-adv-x="373" d="M18 45l147 180l-76 179h43l77 -179l-146 -180h-45zM148 45l146 180l-75 179h43l77 -179l-147 -180h-44z" />
<glyph unicode="&#xbc;" horiz-adv-x="600" d="M63 -17h-37l512 731h38zM484 68q0 -1 -2 -11.5t-4.5 -22.5t-4.5 -22.5t-2 -11.5h-36l13 68h-167l7 30l187 317h40l-187 -314h126l23 120h38l-24 -120h39l-8 -33h-38zM165 278h-36l72 373l-74 -42l8 41l77 43h35z" />
<glyph unicode="&#xbd;" horiz-adv-x="600" d="M302 0l6 32l197 221q36 41 36 78q1 23 -14.5 38t-44.5 15q-26 0 -48 -16.5t-31 -48.5l-37 8q12 42 43.5 66t74.5 24q47 0 71.5 -22t23.5 -61q0 -29 -13.5 -53.5t-32.5 -46.5q-5 -5 -18.5 -20t-31.5 -35.5t-39 -44t-39.5 -44t-32 -35.5t-18.5 -20h165l-8 -35h-209zM50 -17 h-37l512 731h38zM155 278h-36l72 373l-74 -42l8 41l77 43h35z" />
<glyph unicode="&#xbe;" horiz-adv-x="600" d="M221 696q42 0 66 -23t24 -58q0 -13 -3 -30.5t-11 -34.5t-21.5 -32t-34.5 -24q23 -11 29 -28.5t6 -37.5q0 -26 -7 -53t-22.5 -49.5t-41.5 -37t-64 -14.5t-62 22t-25 60l35 6q1 -25 13.5 -40.5t41.5 -15.5q25 0 43 10t30 27t17.5 38.5t5.5 44.5q0 53 -55 53h-26l7 31h24 q37 0 60.5 28.5t23.5 74.5q0 22 -16 36.5t-40 14.5q-29 0 -48.5 -15.5t-28.5 -41.5q-9 2 -18.5 3.5t-18.5 3.5q13 40 43 61t74 21zM101 -17h-37l512 731h38zM510 68q0 -1 -2 -11.5t-4.5 -22.5t-4.5 -22.5t-2 -11.5h-36l13 68h-167l7 30l187 317h40l-187 -314h126l23 120h38 l-24 -120h39l-8 -33h-38z" />
<glyph unicode="&#xbf;" horiz-adv-x="394" d="M169 -207q-69 0 -106.5 36.5t-37.5 96.5q0 58 20.5 95t44.5 64q26 31 48 53t39.5 41.5t29 38.5t16.5 45l14 70h43q0 -3 -2.5 -14t-5 -23.5t-4.5 -23.5t-3 -14q-6 -30 -22.5 -57t-38 -51.5t-44.5 -48.5t-43 -48.5t-33 -51.5t-14 -57q0 -24 5 -44t17 -34.5t32.5 -23 t51.5 -8.5q52 0 90.5 35t51.5 86l43 -10q-22 -78 -72.5 -115t-119.5 -37zM313 493l-11 -55h-52q3 14 6 27.5t5 27.5h52z" />
<glyph unicode="&#xc0;" horiz-adv-x="475" d="M363 176h-262q-20 -45 -41 -88t-42 -88h-46q84 175 167 348t168 348h48q17 -175 33.5 -348t33.5 -348h-45zM240 467q-4 -8 -13 -27t-21.5 -44.5t-25.5 -53.5t-25.5 -53.5t-21.5 -45t-13 -27.5h240q-6 61 -11 121.5t-11 121.5q-4 45 -7 91t-8 91h-2zM337 729l-148 89 l26 39l137 -106z" />
<glyph unicode="&#xc1;" horiz-adv-x="475" d="M363 176h-262q-20 -45 -41 -88t-42 -88h-46q84 175 167 348t168 348h48q17 -175 33.5 -348t33.5 -348h-45zM240 467q-4 -8 -13 -27t-21.5 -44.5t-25.5 -53.5t-25.5 -53.5t-21.5 -45t-13 -27.5h240q-6 61 -11 121.5t-11 121.5q-4 45 -7 91t-8 91h-2zM332 728q-4 5 -8 10.5 t-8 11.5l151 107l27 -39q-41 -23 -81 -45.5t-81 -44.5z" />
<glyph unicode="&#xc2;" horiz-adv-x="475" d="M363 176h-262q-20 -45 -41 -88t-42 -88h-46q84 175 167 348t168 348h48q17 -175 33.5 -348t33.5 -348h-45zM240 467q-4 -8 -13 -27t-21.5 -44.5t-25.5 -53.5t-25.5 -53.5t-21.5 -45t-13 -27.5h240q-6 61 -11 121.5t-11 121.5q-4 45 -7 91t-8 91h-2zM352 813l-139 -81 l-15 19l143 106h34l99 -105l-20 -18z" />
<glyph unicode="&#xc3;" horiz-adv-x="475" d="M363 176h-262q-20 -45 -41 -88t-42 -88h-46q84 175 167 348t168 348h48q17 -175 33.5 -348t33.5 -348h-45zM240 467q-4 -8 -13 -27t-21.5 -44.5t-25.5 -53.5t-25.5 -53.5t-21.5 -45t-13 -27.5h240q-6 61 -11 121.5t-11 121.5q-4 45 -7 91t-8 91h-2zM291 825q16 0 30.5 -6 t29 -13.5t28.5 -13.5t30 -6q15 0 29 8.5t30 28.5l25 -15q-17 -33 -42 -47t-47 -14q-17 0 -32 6t-29 13.5t-28 13.5t-28 6q-15 0 -28.5 -8.5t-29.5 -25.5l-25 18q38 55 87 55z" />
<glyph unicode="&#xc4;" horiz-adv-x="475" d="M363 176h-262q-20 -45 -41 -88t-42 -88h-46q84 175 167 348t168 348h48q17 -175 33.5 -348t33.5 -348h-45zM240 467q-4 -8 -13 -27t-21.5 -44.5t-25.5 -53.5t-25.5 -53.5t-21.5 -45t-13 -27.5h240q-6 61 -11 121.5t-11 121.5q-4 45 -7 91t-8 91h-2zM397 747l10 51h48 l-10 -51h-48zM235 747l9 51h48l-9 -51h-48z" />
<glyph unicode="&#xc5;" horiz-adv-x="475" d="M363 176h-262q-20 -45 -41 -88t-42 -88h-46q84 175 167 348t168 348h48q17 -175 33.5 -348t33.5 -348h-45zM240 467q-4 -8 -13 -27t-21.5 -44.5t-25.5 -53.5t-25.5 -53.5t-21.5 -45t-13 -27.5h240q-6 61 -11 121.5t-11 121.5q-4 45 -7 91t-8 91h-2zM337 715 q-31 0 -50.5 20t-19.5 50q0 21 8.5 39t22.5 32t32.5 22t38.5 8q32 0 52.5 -19.5t20.5 -49.5q0 -21 -9 -40t-23.5 -32.5t-33.5 -21.5t-39 -8zM364 859q-26 0 -47.5 -20.5t-21.5 -48.5q0 -21 13 -34.5t34 -13.5q28 0 49.5 20.5t21.5 49.5q0 20 -13.5 33.5t-35.5 13.5z" />
<glyph unicode="&#xc6;" horiz-adv-x="772" d="M370 0q7 46 13 93t13 94h-243l-124 -187h-47q115 175 229.5 348t229.5 348h379l-6 -42h-308l-39 -279h266q-2 -11 -3 -20.5t-2 -19.5h-267q-10 -74 -20 -147t-21 -146h308l-5 -42h-353zM180 228h221l61 425h-1z" />
<glyph unicode="&#xc7;" horiz-adv-x="457" d="M212 33q60 0 101.5 30.5t64.5 88.5q11 -4 21 -7.5t21 -6.5q-26 -72 -79 -107t-125 -37q-5 -10 -10 -21.5t-12 -25.5q22 -2 36.5 -9t23 -16t12 -19.5t3.5 -20.5q0 -14 -6 -28t-18.5 -26t-32 -19.5t-47.5 -7.5q-14 0 -31.5 3t-36.5 11l12 27q17 -8 32.5 -10t28.5 -2 q22 0 41.5 11.5t19.5 37.5q0 22 -18.5 32.5t-41.5 8.5l-13 12l30 63q-73 6 -109 47.5t-36 104.5q0 19 3.5 42.5t6.5 41.5l43 219q9 46 23 91.5t38.5 80.5t63.5 57t99 22q81 0 125 -39t51 -101q-11 -4 -22 -7.5t-23 -6.5q-2 48 -36.5 79.5t-94.5 31.5q-51 0 -83 -20t-52 -52 t-30.5 -71t-17.5 -78l-38 -198q-5 -23 -7.5 -47.5t-2.5 -41.5q0 -23 6.5 -44t21 -37t38 -26t57.5 -10z" />
<glyph unicode="&#xc8;" horiz-adv-x="436" d="M25 0l135 696h349l-9 -41h-304l-54 -280h263l-8 -40h-262l-58 -294h304l-7 -41h-349zM347 729l-148 89l26 39l137 -106z" />
<glyph unicode="&#xc9;" horiz-adv-x="436" d="M295 750l151 107l28 -38l-163 -91zM25 0l135 696h349l-9 -41h-304l-54 -280h263l-8 -40h-262l-58 -294h304l-7 -41h-349z" />
<glyph unicode="&#xca;" horiz-adv-x="436" d="M25 0l135 696h349l-9 -41h-304l-54 -280h263l-8 -40h-262l-58 -294h304l-7 -41h-349zM356 813l-139 -81l-15 19l143 106h34l99 -105l-20 -18z" />
<glyph unicode="&#xcb;" horiz-adv-x="436" d="M25 0l135 696h349l-9 -41h-304l-54 -280h263l-8 -40h-262l-58 -294h304l-7 -41h-349zM393 747l10 51h48l-10 -51h-48zM231 747l9 51h48l-9 -51h-48z" />
<glyph unicode="&#xcc;" horiz-adv-x="191" d="M33 0l136 696h44l-135 -696h-45zM197 729l-148 89l26 39l137 -106z" />
<glyph unicode="&#xcd;" horiz-adv-x="191" d="M185 750l151 107l27 -38l-163 -91zM33 0l136 696h44l-135 -696h-45z" />
<glyph unicode="&#xce;" horiz-adv-x="191" d="M33 0l136 696h44l-135 -696h-45zM215 813l-139 -81l-15 19l143 106h34l99 -105l-20 -18z" />
<glyph unicode="&#xcf;" horiz-adv-x="191" d="M259 750l9 51h48l-10 -51h-47zM97 750l9 51h48l-9 -51h-48zM33 0l136 696h44l-135 -696h-45z" />
<glyph unicode="&#xd0;" horiz-adv-x="504" d="M22 388h77l60 308h190q86 0 123.5 -38t37.5 -106q0 -13 -2 -34.5t-6 -48.5t-8.5 -57t-10.5 -61q-15 -78 -29.5 -142.5t-31.5 -98.5q-17 -32 -38.5 -53.5t-47.5 -34t-56 -17.5t-63 -5h-192l68 353h-79zM411 218q11 53 22 105.5t19 104.5q6 37 12 77.5t-1.5 73.5t-35 54.5 t-87.5 21.5h-144q-14 -67 -26.5 -133.5t-25.5 -133.5h109l-7 -35h-109l-60 -312h146q56 0 96 21.5t60 60.5q11 19 19 45.5t13 49.5z" />
<glyph unicode="&#xd1;" horiz-adv-x="541" d="M184 608q-5 -30 -14 -78t-20 -104.5t-22.5 -117.5t-23 -118.5t-21 -107t-15.5 -82.5h-44l136 696h43l207 -602h2l117 602h42l-134 -696h-43q-26 78 -52 152.5t-51.5 149t-52 150.5t-53.5 156h-1zM318 813q16 0 30.5 -6t29 -13.5t28.5 -13.5t30 -6q15 0 29 8.5t30 28.5 l25 -15q-17 -33 -42 -47t-47 -14q-17 0 -32 6t-29 13.5t-28 13.5t-28 6q-15 0 -28.5 -8.5t-29.5 -25.5l-25 18q38 55 87 55z" />
<glyph unicode="&#xd2;" horiz-adv-x="485" d="M439 204q-8 -43 -24 -81.5t-42.5 -67t-64 -45.5t-89.5 -17q-53 0 -90 18t-58 48t-27 70t2 84l56 280q8 40 23 78t41 66.5t64 46t92 17.5q49 0 84.5 -16.5t57.5 -44.5t29 -65.5t-1 -79.5zM448 493q6 31 2 61t-20 53t-44.5 37.5t-70.5 14.5q-41 0 -70 -14.5t-49 -38 t-32 -54t-18 -61.5l-55 -281q-7 -35 -3.5 -66.5t18.5 -55.5t43 -38.5t71 -14.5q42 0 72 14t50 37.5t32.5 53.5t18.5 62zM370 729l-148 89l26 39l137 -106z" />
<glyph unicode="&#xd3;" horiz-adv-x="485" d="M316 727q-4 6 -8 11.5t-7 10.5l150 108q8 -10 14 -19.5t14 -19.5q-42 -23 -82 -45.5t-81 -45.5zM439 204q-8 -43 -24 -81.5t-42.5 -67t-64 -45.5t-89.5 -17q-53 0 -90 18t-58 48t-27 70t2 84l56 280q8 40 23 78t41 66.5t64 46t92 17.5q49 0 84.5 -16.5t57.5 -44.5 t29 -65.5t-1 -79.5zM448 493q6 31 2 61t-20 53t-44.5 37.5t-70.5 14.5q-41 0 -70 -14.5t-49 -38t-32 -54t-18 -61.5l-55 -281q-7 -35 -3.5 -66.5t18.5 -55.5t43 -38.5t71 -14.5q42 0 72 14t50 37.5t32.5 53.5t18.5 62z" />
<glyph unicode="&#xd4;" horiz-adv-x="485" d="M439 204q-8 -43 -24 -81.5t-42.5 -67t-64 -45.5t-89.5 -17q-53 0 -90 18t-58 48t-27 70t2 84l56 280q8 40 23 78t41 66.5t64 46t92 17.5q49 0 84.5 -16.5t57.5 -44.5t29 -65.5t-1 -79.5zM448 493q6 31 2 61t-20 53t-44.5 37.5t-70.5 14.5q-41 0 -70 -14.5t-49 -38 t-32 -54t-18 -61.5l-55 -281q-7 -35 -3.5 -66.5t18.5 -55.5t43 -38.5t71 -14.5q42 0 72 14t50 37.5t32.5 53.5t18.5 62zM361 813l-139 -81l-15 19l143 106h34l99 -105l-20 -18z" />
<glyph unicode="&#xd5;" horiz-adv-x="485" d="M439 204q-8 -43 -24 -81.5t-42.5 -67t-64 -45.5t-89.5 -17q-53 0 -90 18t-58 48t-27 70t2 84l56 280q8 40 23 78t41 66.5t64 46t92 17.5q49 0 84.5 -16.5t57.5 -44.5t29 -65.5t-1 -79.5zM448 493q6 31 2 61t-20 53t-44.5 37.5t-70.5 14.5q-41 0 -70 -14.5t-49 -38 t-32 -54t-18 -61.5l-55 -281q-7 -35 -3.5 -66.5t18.5 -55.5t43 -38.5t71 -14.5q42 0 72 14t50 37.5t32.5 53.5t18.5 62zM302 825q16 0 30.5 -6t29 -13.5t28.5 -13.5t30 -6q15 0 29 8.5t30 28.5l25 -15q-17 -33 -42 -47t-47 -14q-17 0 -32 6t-29 13.5t-28 13.5t-28 6 q-15 0 -28.5 -8.5t-29.5 -25.5l-25 18q38 55 87 55z" />
<glyph unicode="&#xd6;" horiz-adv-x="485" d="M439 204q-8 -43 -24 -81.5t-42.5 -67t-64 -45.5t-89.5 -17q-53 0 -90 18t-58 48t-27 70t2 84l56 280q8 40 23 78t41 66.5t64 46t92 17.5q49 0 84.5 -16.5t57.5 -44.5t29 -65.5t-1 -79.5zM448 493q6 31 2 61t-20 53t-44.5 37.5t-70.5 14.5q-41 0 -70 -14.5t-49 -38 t-32 -54t-18 -61.5l-55 -281q-7 -35 -3.5 -66.5t18.5 -55.5t43 -38.5t71 -14.5q42 0 72 14t50 37.5t32.5 53.5t18.5 62zM407 747l10 51h48l-10 -51h-48zM245 747l9 51h48l-9 -51h-48z" />
<glyph unicode="&#xd7;" horiz-adv-x="438" d="M256 274l115 -144l-28 -22l-115 143l-176 -147l-22 29l177 146l-112 140l28 23l112 -141l174 146l21 -28z" />
<glyph unicode="&#xd8;" horiz-adv-x="485" d="M439 204q-8 -43 -24 -81.5t-42.5 -67t-64 -45.5t-89.5 -17q-54 0 -91 18t-58 49l-49 -67l-21 14l56 77q-12 27 -14.5 60t4.5 69l56 280q8 40 23 78t41 66.5t64 46t92 17.5q49 0 84.5 -16.5t57.5 -45.5l48 65l23 -15l-55 -75q24 -52 12 -119zM448 493q4 20 4 39.5t-5 36.5 l-347 -470q14 -29 43 -46.5t77 -17.5q42 0 72 14t50 37.5t32.5 53.5t18.5 62zM91 210q-9 -42 -1 -81l345 470q-15 26 -44.5 43t-75.5 17q-41 0 -70 -14.5t-49 -38t-32 -54t-18 -61.5z" />
<glyph unicode="&#xd9;" horiz-adv-x="494" d="M537 696q-3 -13 -10 -51t-17 -89t-21 -108t-20.5 -108t-17 -89t-9.5 -50q-9 -44 -26 -82t-44.5 -66t-65.5 -43.5t-89 -15.5q-50 0 -85.5 15.5t-56 43.5t-27 65.5t1.5 82.5l97 495h44q-2 -10 -9 -47t-17 -88t-21.5 -109.5t-21.5 -109.5t-17.5 -89t-9.5 -49 q-7 -34 -4 -64.5t17.5 -53t42 -36t69.5 -13.5t73 14t52 37.5t33.5 54.5t19.5 65l94 488h45zM363 729l-148 89l26 39l137 -106z" />
<glyph unicode="&#xda;" horiz-adv-x="494" d="M537 696q-3 -13 -10 -51t-17 -89t-21 -108t-20.5 -108t-17 -89t-9.5 -50q-9 -44 -26 -82t-44.5 -66t-65.5 -43.5t-89 -15.5q-50 0 -85.5 15.5t-56 43.5t-27 65.5t1.5 82.5l97 495h44q-2 -10 -9 -47t-17 -88t-21.5 -109.5t-21.5 -109.5t-17.5 -89t-9.5 -49 q-7 -34 -4 -64.5t17.5 -53t42 -36t69.5 -13.5t73 14t52 37.5t33.5 54.5t19.5 65l94 488h45zM307 749l150 108l28 -39l-163 -91z" />
<glyph unicode="&#xdb;" horiz-adv-x="494" d="M537 696q-3 -13 -10 -51t-17 -89t-21 -108t-20.5 -108t-17 -89t-9.5 -50q-9 -44 -26 -82t-44.5 -66t-65.5 -43.5t-89 -15.5q-50 0 -85.5 15.5t-56 43.5t-27 65.5t1.5 82.5l97 495h44q-2 -10 -9 -47t-17 -88t-21.5 -109.5t-21.5 -109.5t-17.5 -89t-9.5 -49 q-7 -34 -4 -64.5t17.5 -53t42 -36t69.5 -13.5t73 14t52 37.5t33.5 54.5t19.5 65l94 488h45zM370 813l-139 -81l-15 19l143 106h34l99 -105l-20 -18z" />
<glyph unicode="&#xdc;" horiz-adv-x="494" d="M537 696q-3 -13 -10 -51t-17 -89t-21 -108t-20.5 -108t-17 -89t-9.5 -50q-9 -44 -26 -82t-44.5 -66t-65.5 -43.5t-89 -15.5q-50 0 -85.5 15.5t-56 43.5t-27 65.5t1.5 82.5l97 495h44q-2 -10 -9 -47t-17 -88t-21.5 -109.5t-21.5 -109.5t-17.5 -89t-9.5 -49 q-7 -34 -4 -64.5t17.5 -53t42 -36t69.5 -13.5t73 14t52 37.5t33.5 54.5t19.5 65l94 488h45zM243 747l9 51h48l-9 -51h-48zM405 747l10 51h48l-10 -51h-48z" />
<glyph unicode="&#xdd;" horiz-adv-x="408" d="M228 341q21 35 42.5 70.5t43.5 70.5l130 214h48l-252 -405l-56 -291h-43l56 291q-23 102 -47 202.5t-48 202.5h43q14 -57 25.5 -114.5t25.5 -114.5q7 -30 14.5 -62.5t15.5 -63.5h2zM260 749l151 108l27 -39q-41 -23 -81 -45.5t-82 -45.5z" />
<glyph unicode="&#xde;" horiz-adv-x="471" d="M100 155q-1 -6 -5 -28.5t-9.5 -49t-10 -49t-5.5 -28.5h-45l135 695h45l-28 -141h143q80 0 123.5 -38t43.5 -110q0 -47 -13.5 -92t-42 -80t-73 -57t-107.5 -22h-151zM254 196q46 0 80.5 16.5t58 44t35.5 64t12 77.5q0 54 -31 84.5t-95 30.5h-144l-62 -317h146z" />
<glyph unicode="&#xdf;" horiz-adv-x="428" d="M296 725q68 0 104.5 -35.5t36.5 -97.5q0 -54 -25.5 -100t-79.5 -69q33 -15 48.5 -46.5t15.5 -70.5q0 -47 -9.5 -101t-32 -101t-60.5 -78t-96 -31h-28l7 38h16q45 0 74.5 26t47 64t25 82.5t9.5 80.5q0 21 -3 41.5t-12 37t-25.5 26.5t-42.5 10h-17l8 38h15q30 0 52.5 14 t37.5 36t22.5 48.5t7.5 52.5q0 42 -26 68.5t-74 26.5q-35 0 -58 -13.5t-38 -35.5t-23 -48.5t-14 -51.5l-103 -536h-43q26 134 51 267t51 268q8 40 21 74.5t34 60t52 40.5t74 15z" />
<glyph unicode="&#xe0;" horiz-adv-x="428" d="M289 0l15 70h-2q-26 -35 -60 -55.5t-84 -20.5q-32 0 -54.5 10.5t-36.5 29.5t-20.5 43.5t-6.5 53.5t4 62.5t11 68.5q10 53 26 96.5t40 75t57 48.5t77 17q42 0 73.5 -19.5t43.5 -53.5l1 1l12 65h42l-96 -492h-42zM259 457q-39 0 -66 -16.5t-44.5 -43.5t-28.5 -61t-18 -69 q-8 -35 -13 -69t-5 -62q0 -21 4.5 -40t15 -32.5t27.5 -21.5t42 -8q28 0 51 11t40.5 29t30 40.5t20.5 45.5q14 44 22.5 88.5t13.5 85.5q4 25 -1 47.5t-17 39t-31 26.5t-43 10zM306 558l-102 146l41 22l84 -156z" />
<glyph unicode="&#xe1;" horiz-adv-x="428" d="M289 0l15 70h-2q-26 -35 -60 -55.5t-84 -20.5q-32 0 -54.5 10.5t-36.5 29.5t-20.5 43.5t-6.5 53.5t4 62.5t11 68.5q10 53 26 96.5t40 75t57 48.5t77 17q42 0 73.5 -19.5t43.5 -53.5l1 1l12 65h42l-96 -492h-42zM259 457q-39 0 -66 -16.5t-44.5 -43.5t-28.5 -61t-18 -69 q-8 -35 -13 -69t-5 -62q0 -21 4.5 -40t15 -32.5t27.5 -21.5t42 -8q28 0 51 11t40.5 29t30 40.5t20.5 45.5q14 44 22.5 88.5t13.5 85.5q4 25 -1 47.5t-17 39t-31 26.5t-43 10zM252 571l93 152l44 -18l-112 -145z" />
<glyph unicode="&#xe2;" horiz-adv-x="428" d="M289 0l15 70h-2q-26 -35 -60 -55.5t-84 -20.5q-32 0 -54.5 10.5t-36.5 29.5t-20.5 43.5t-6.5 53.5t4 62.5t11 68.5q10 53 26 96.5t40 75t57 48.5t77 17q42 0 73.5 -19.5t43.5 -53.5l1 1l12 65h42l-96 -492h-42zM259 457q-39 0 -66 -16.5t-44.5 -43.5t-28.5 -61t-18 -69 q-8 -35 -13 -69t-5 -62q0 -21 4.5 -40t15 -32.5t27.5 -21.5t42 -8q28 0 51 11t40.5 29t30 40.5t20.5 45.5q14 44 22.5 88.5t13.5 85.5q4 25 -1 47.5t-17 39t-31 26.5t-43 10zM309 659l-140 -98l-17 18l146 123h35l94 -122l-22 -18z" />
<glyph unicode="&#xe3;" horiz-adv-x="428" d="M289 0l15 70h-2q-26 -35 -60 -55.5t-84 -20.5q-32 0 -54.5 10.5t-36.5 29.5t-20.5 43.5t-6.5 53.5t4 62.5t11 68.5q10 53 26 96.5t40 75t57 48.5t77 17q42 0 73.5 -19.5t43.5 -53.5l1 1l12 65h42l-96 -492h-42zM259 457q-39 0 -66 -16.5t-44.5 -43.5t-28.5 -61t-18 -69 q-8 -35 -13 -69t-5 -62q0 -21 4.5 -40t15 -32.5t27.5 -21.5t42 -8q28 0 51 11t40.5 29t30 40.5t20.5 45.5q14 44 22.5 88.5t13.5 85.5q4 25 -1 47.5t-17 39t-31 26.5t-43 10zM238 664q16 0 30.5 -6t29 -13.5t28.5 -13.5t30 -6q15 0 29 8.5t30 28.5l25 -15q-17 -33 -42 -47 t-47 -14q-17 0 -32 6t-29 13.5t-28 13.5t-28 6q-15 0 -28.5 -8.5t-29.5 -25.5l-25 18q38 55 87 55z" />
<glyph unicode="&#xe4;" horiz-adv-x="428" d="M289 0l15 70h-2q-26 -35 -60 -55.5t-84 -20.5q-32 0 -54.5 10.5t-36.5 29.5t-20.5 43.5t-6.5 53.5t4 62.5t11 68.5q10 53 26 96.5t40 75t57 48.5t77 17q42 0 73.5 -19.5t43.5 -53.5l1 1l12 65h42l-96 -492h-42zM259 457q-39 0 -66 -16.5t-44.5 -43.5t-28.5 -61t-18 -69 q-8 -35 -13 -69t-5 -62q0 -21 4.5 -40t15 -32.5t27.5 -21.5t42 -8q28 0 51 11t40.5 29t30 40.5t20.5 45.5q14 44 22.5 88.5t13.5 85.5q4 25 -1 47.5t-17 39t-31 26.5t-43 10zM180 597l9 51h48l-10 -51h-47zM347 597l10 51h47l-10 -51h-47z" />
<glyph unicode="&#xe5;" horiz-adv-x="428" d="M289 0l15 70h-2q-26 -35 -60 -55.5t-84 -20.5q-32 0 -54.5 10.5t-36.5 29.5t-20.5 43.5t-6.5 53.5t4 62.5t11 68.5q10 53 26 96.5t40 75t57 48.5t77 17q42 0 73.5 -19.5t43.5 -53.5l1 1l12 65h42l-96 -492h-42zM259 457q-39 0 -66 -16.5t-44.5 -43.5t-28.5 -61t-18 -69 q-8 -35 -13 -69t-5 -62q0 -21 4.5 -40t15 -32.5t27.5 -21.5t42 -8q28 0 51 11t40.5 29t30 40.5t20.5 45.5q14 44 22.5 88.5t13.5 85.5q4 25 -1 47.5t-17 39t-31 26.5t-43 10zM288 552q-31 0 -50.5 20t-19.5 50q0 21 8.5 39t22.5 32t32.5 22t38.5 8q32 0 52.5 -19.5 t20.5 -49.5q0 -21 -9 -40t-23.5 -32.5t-33.5 -21.5t-39 -8zM315 696q-26 0 -47.5 -20.5t-21.5 -48.5q0 -21 13 -34.5t34 -13.5q28 0 49.5 20.5t21.5 49.5q0 20 -13.5 33.5t-35.5 13.5z" />
<glyph unicode="&#xe6;" horiz-adv-x="689" d="M540 499q72 0 107.5 -33t35.5 -84q0 -80 -60.5 -123.5t-169.5 -43.5q-17 0 -39 1.5t-47 4.5q-4 -20 -6.5 -40.5t-2.5 -35.5q0 -55 23.5 -84t77.5 -29q39 0 72 17.5t53 46.5q8 -5 16.5 -9.5t16.5 -9.5q-57 -83 -163 -83q-53 0 -88 26.5t-43 71.5h-1q-32 -53 -76.5 -75.5 t-101.5 -22.5q-61 0 -96 29t-35 80q0 43 14.5 75.5t40.5 55t62 34t80 11.5q29 0 59 -4.5t61 -8.5l15 79q14 48 -13 80.5t-87 32.5q-32 0 -63 -11t-56 -43l-31 24q29 38 71 54t84 16q47 0 86 -22.5t47 -69.5q12 19 28 36.5t35.5 30t43 20t50.5 6.5zM154 33q65 0 105 37.5 t51 94.5l12 64q-30 5 -58.5 9t-56.5 4q-30 0 -57.5 -8t-48.5 -24t-33 -40.5t-12 -58.5q0 -35 22.5 -56.5t75.5 -21.5zM536 459q-35 0 -62 -14.5t-46.5 -41t-32.5 -63t-21 -81.5q20 -2 41.5 -4t38.5 -2q88 0 136 32t48 92q0 38 -26.5 60t-75.5 22z" />
<glyph unicode="&#xe7;" horiz-adv-x="368" d="M329 82q-23 -41 -61.5 -63.5t-90.5 -24.5q-5 -10 -10 -21.5t-12 -25.5q22 -2 36.5 -9t23 -16t12 -19.5t3.5 -20.5q0 -14 -6 -28t-18.5 -26t-32 -19.5t-47.5 -7.5q-14 0 -31.5 3t-36.5 11l12 27q17 -8 32.5 -10t28.5 -2q22 0 41.5 11.5t19.5 37.5q0 22 -18.5 32.5 t-41.5 8.5l-13 12l30 63q-35 3 -58.5 16.5t-37.5 33t-19.5 44.5t-5.5 52q0 37 4.5 78t15 80.5t27.5 75.5t42.5 63.5t60.5 43.5t80 16q51 0 86 -23t43 -68l-40 -19q-5 32 -29.5 51t-61.5 19q-55 0 -90.5 -33t-56 -81t-28.5 -102.5t-8 -96.5q0 -22 4.5 -42t16.5 -35.5 t32 -24.5t50 -9q37 0 68.5 18t46.5 50l38 -20v0z" />
<glyph unicode="&#xe8;" horiz-adv-x="406" d="M332 77q-26 -38 -66.5 -60.5t-94.5 -22.5q-41 0 -67.5 13t-42 33.5t-21.5 46t-6 49.5q0 35 4.5 75.5t14.5 81t27 77.5t41.5 66t58 46t76.5 17q72 0 107 -33t35 -81q0 -80 -58 -125.5t-183 -45.5q-12 0 -33.5 1t-41.5 3q-3 -18 -5 -36.5t-2 -33.5q0 -52 22.5 -83.5 t77.5 -31.5q35 0 70 17t55 46zM253 460q-34 0 -61 -15t-47 -42t-34 -64t-22 -82q18 -2 41 -3.5t37 -1.5q51 0 87 9.5t58.5 26.5t33 40t10.5 50q0 37 -27 59.5t-76 22.5zM293 558l-102 146l41 22l84 -156z" />
<glyph unicode="&#xe9;" horiz-adv-x="406" d="M332 77q-26 -38 -66.5 -60.5t-94.5 -22.5q-41 0 -67.5 13t-42 33.5t-21.5 46t-6 49.5q0 35 4.5 75.5t14.5 81t27 77.5t41.5 66t58 46t76.5 17q72 0 107 -33t35 -81q0 -80 -58 -125.5t-183 -45.5q-12 0 -33.5 1t-41.5 3q-3 -18 -5 -36.5t-2 -33.5q0 -52 22.5 -83.5 t77.5 -31.5q35 0 70 17t55 46zM253 460q-34 0 -61 -15t-47 -42t-34 -64t-22 -82q18 -2 41 -3.5t37 -1.5q51 0 87 9.5t58.5 26.5t33 40t10.5 50q0 37 -27 59.5t-76 22.5zM250 571l93 152l44 -18l-112 -145z" />
<glyph unicode="&#xea;" horiz-adv-x="406" d="M332 77q-26 -38 -66.5 -60.5t-94.5 -22.5q-41 0 -67.5 13t-42 33.5t-21.5 46t-6 49.5q0 35 4.5 75.5t14.5 81t27 77.5t41.5 66t58 46t76.5 17q72 0 107 -33t35 -81q0 -80 -58 -125.5t-183 -45.5q-12 0 -33.5 1t-41.5 3q-3 -18 -5 -36.5t-2 -33.5q0 -52 22.5 -83.5 t77.5 -31.5q35 0 70 17t55 46zM253 460q-34 0 -61 -15t-47 -42t-34 -64t-22 -82q18 -2 41 -3.5t37 -1.5q51 0 87 9.5t58.5 26.5t33 40t10.5 50q0 37 -27 59.5t-76 22.5zM294 659l-140 -98l-17 18l146 123h35l94 -122l-22 -18z" />
<glyph unicode="&#xeb;" horiz-adv-x="406" d="M332 77q-26 -38 -66.5 -60.5t-94.5 -22.5q-41 0 -67.5 13t-42 33.5t-21.5 46t-6 49.5q0 35 4.5 75.5t14.5 81t27 77.5t41.5 66t58 46t76.5 17q72 0 107 -33t35 -81q0 -80 -58 -125.5t-183 -45.5q-12 0 -33.5 1t-41.5 3q-3 -18 -5 -36.5t-2 -33.5q0 -52 22.5 -83.5 t77.5 -31.5q35 0 70 17t55 46zM253 460q-34 0 -61 -15t-47 -42t-34 -64t-22 -82q18 -2 41 -3.5t37 -1.5q51 0 87 9.5t58.5 26.5t33 40t10.5 50q0 37 -27 59.5t-76 22.5zM342 597l10 51h47l-10 -51h-47zM175 597l9 51h48l-10 -51h-47z" />
<glyph unicode="&#xec;" horiz-adv-x="175" d="M56 0l95 493h43l-95 -493h-43zM179 558l-102 146l41 22l84 -156z" />
<glyph unicode="&#xed;" horiz-adv-x="175" d="M26 0l95 493h43l-95 -493h-43zM136 571l93 152l44 -18l-112 -145z" />
<glyph unicode="&#xee;" horiz-adv-x="211" d="M51 0l95 493h43l-95 -493h-43zM203 659l-140 -98l-17 18l146 123h35l94 -122l-22 -18z" />
<glyph unicode="&#xef;" horiz-adv-x="175" d="M26 0l95 493h43l-95 -493h-43zM222 597l10 51h47l-10 -51h-47zM55 597l9 51h48l-10 -51h-47z" />
<glyph unicode="&#xf0;" horiz-adv-x="426" d="M174 -6q-42 0 -69 14.5t-43 36.5t-22.5 48.5t-6.5 51.5q0 32 5.5 69t16 73t25.5 67.5t33 51.5q22 24 53 41t76 17q41 0 75.5 -21t48.5 -64h3q5 28 10 60.5t5 64.5q0 23 -3 43t-11 34l-89 -56l-14 24l90 58q-14 29 -45 46.5t-79 22.5l13 36q65 -6 99 -29.5t51 -51.5l78 51 l15 -25l-81 -51q16 -44 16 -104q0 -29 -7 -86.5t-20 -121.5t-30 -123t-37 -91q-21 -36 -60 -61t-96 -25zM240 425q-24 1 -44 -7t-37 -22q-32 -25 -52.5 -82.5t-30.5 -132.5q-3 -27 -1 -54t13 -48t32.5 -34t57.5 -13q35 0 64.5 15.5t46.5 42.5q23 32 40.5 90.5t17.5 130.5 q0 54 -28.5 84t-78.5 30z" />
<glyph unicode="&#xf1;" horiz-adv-x="432" d="M154 492q-4 -18 -7.5 -36t-6.5 -36h2q29 41 69 59t78 18q37 0 62 -12.5t39 -33.5t17.5 -49t-2.5 -58l-67 -344h-43l65 332q4 23 4 45t-9 39t-28 27.5t-53 10.5q-38 0 -65.5 -15t-47 -39.5t-31.5 -56.5t-18 -65l-54 -278h-42l96 492h42zM238 664q16 0 30.5 -6t29 -13.5 t28.5 -13.5t30 -6q15 0 29 8.5t30 28.5l25 -15q-17 -33 -42 -47t-47 -14q-17 0 -32 6t-29 13.5t-28 13.5t-28 6q-15 0 -28.5 -8.5t-29.5 -25.5l-25 18q38 55 87 55z" />
<glyph unicode="&#xf2;" horiz-adv-x="416" d="M253 499q39 0 66.5 -13t44.5 -35t24.5 -49.5t7.5 -57.5q-1 -31 -6 -65.5t-12 -66.5q-11 -53 -27 -94t-39.5 -68.5t-57 -41.5t-79.5 -14q-43 0 -71 12.5t-44 32.5t-22 45t-6 51q0 29 2.5 59t7.5 57q10 57 27.5 103t41.5 77q26 33 60 50.5t82 17.5zM248 460q-34 0 -62 -15 t-47 -43q-12 -18 -23.5 -48t-20.5 -65t-14.5 -71.5t-5.5 -67.5q0 -23 3.5 -44t14.5 -37.5t31.5 -26.5t53.5 -10q46 0 78.5 23t49.5 65q10 22 18.5 50.5t15 59t10 61t3.5 57.5q0 54 -28 83t-77 29zM286 558l-102 146l41 22l84 -156z" />
<glyph unicode="&#xf3;" horiz-adv-x="416" d="M253 499q39 0 66.5 -13t44.5 -35t24.5 -49.5t7.5 -57.5q-1 -31 -6 -65.5t-12 -66.5q-11 -53 -27 -94t-39.5 -68.5t-57 -41.5t-79.5 -14q-43 0 -71 12.5t-44 32.5t-22 45t-6 51q0 29 2.5 59t7.5 57q10 57 27.5 103t41.5 77q26 33 60 50.5t82 17.5zM248 460q-34 0 -62 -15 t-47 -43q-12 -18 -23.5 -48t-20.5 -65t-14.5 -71.5t-5.5 -67.5q0 -23 3.5 -44t14.5 -37.5t31.5 -26.5t53.5 -10q46 0 78.5 23t49.5 65q10 22 18.5 50.5t15 59t10 61t3.5 57.5q0 54 -28 83t-77 29zM260 571l93 152l44 -18l-112 -145z" />
<glyph unicode="&#xf4;" horiz-adv-x="416" d="M253 499q39 0 66.5 -13t44.5 -35t24.5 -49.5t7.5 -57.5q-1 -31 -6 -65.5t-12 -66.5q-11 -53 -27 -94t-39.5 -68.5t-57 -41.5t-79.5 -14q-43 0 -71 12.5t-44 32.5t-22 45t-6 51q0 29 2.5 59t7.5 57q10 57 27.5 103t41.5 77q26 33 60 50.5t82 17.5zM248 460q-34 0 -62 -15 t-47 -43q-12 -18 -23.5 -48t-20.5 -65t-14.5 -71.5t-5.5 -67.5q0 -23 3.5 -44t14.5 -37.5t31.5 -26.5t53.5 -10q46 0 78.5 23t49.5 65q10 22 18.5 50.5t15 59t10 61t3.5 57.5q0 54 -28 83t-77 29zM300 659l-140 -98l-17 18l146 123h35l94 -122l-22 -18z" />
<glyph unicode="&#xf5;" horiz-adv-x="416" d="M253 499q39 0 66.5 -13t44.5 -35t24.5 -49.5t7.5 -57.5q-1 -31 -6 -65.5t-12 -66.5q-11 -53 -27 -94t-39.5 -68.5t-57 -41.5t-79.5 -14q-43 0 -71 12.5t-44 32.5t-22 45t-6 51q0 29 2.5 59t7.5 57q10 57 27.5 103t41.5 77q26 33 60 50.5t82 17.5zM248 460q-34 0 -62 -15 t-47 -43q-12 -18 -23.5 -48t-20.5 -65t-14.5 -71.5t-5.5 -67.5q0 -23 3.5 -44t14.5 -37.5t31.5 -26.5t53.5 -10q46 0 78.5 23t49.5 65q10 22 18.5 50.5t15 59t10 61t3.5 57.5q0 54 -28 83t-77 29zM227 664q16 0 30.5 -6t29 -13.5t28.5 -13.5t30 -6q15 0 29 8.5t30 28.5 l25 -15q-17 -33 -42 -47t-47 -14q-17 0 -32 6t-29 13.5t-28 13.5t-28 6q-15 0 -28.5 -8.5t-29.5 -25.5l-25 18q38 55 87 55z" />
<glyph unicode="&#xf6;" horiz-adv-x="416" d="M253 499q39 0 66.5 -13t44.5 -35t24.5 -49.5t7.5 -57.5q-1 -31 -6 -65.5t-12 -66.5q-11 -53 -27 -94t-39.5 -68.5t-57 -41.5t-79.5 -14q-43 0 -71 12.5t-44 32.5t-22 45t-6 51q0 29 2.5 59t7.5 57q10 57 27.5 103t41.5 77q26 33 60 50.5t82 17.5zM248 460q-34 0 -62 -15 t-47 -43q-12 -18 -23.5 -48t-20.5 -65t-14.5 -71.5t-5.5 -67.5q0 -23 3.5 -44t14.5 -37.5t31.5 -26.5t53.5 -10q46 0 78.5 23t49.5 65q10 22 18.5 50.5t15 59t10 61t3.5 57.5q0 54 -28 83t-77 29zM339 597l10 51h47l-10 -51h-47zM172 597l9 51h48l-10 -51h-47z" />
<glyph unicode="&#xf7;" horiz-adv-x="410" d="M260 480q13 0 21.5 -8t8.5 -22q-1 -17 -14.5 -30t-30.5 -13q-14 0 -22.5 9t-7.5 22q1 18 14.5 30t30.5 12zM32 268l8 37h368l-8 -37h-368zM198 162q14 0 22.5 -8.5t7.5 -22.5q-1 -17 -14.5 -30t-30.5 -13q-14 0 -22.5 9t-7.5 23q1 18 15 30t30 12z" />
<glyph unicode="&#xf8;" horiz-adv-x="416" d="M253 499q41 0 68.5 -14t44.5 -37l45 53l21 -16l-52 -61q8 -18 12 -38.5t4 -41.5q-1 -31 -6 -65.5t-12 -66.5q-11 -53 -27 -94t-39.5 -68.5t-57 -41.5t-79.5 -14q-45 0 -72.5 13t-43.5 33l-38 -45l-19 16l43 52q-8 17 -10.5 35t-2.5 37q0 29 2.5 59t7.5 57q10 57 27.5 103 t41.5 77q26 33 60 50.5t82 17.5zM353 348q0 11 -1.5 20t-3.5 18l-260 -310q11 -20 31.5 -32t58.5 -12q46 0 78.5 23t49.5 65q10 22 18.5 50.5t15 59t10 61t3.5 57.5zM248 460q-34 0 -62 -15t-47 -43q-12 -18 -23.5 -48t-20.5 -65t-14.5 -71.5t-5.5 -67.5q0 -12 1 -24t3 -23 l258 310q-27 47 -89 47z" />
<glyph unicode="&#xf9;" horiz-adv-x="435" d="M306 70q-29 -41 -68 -58.5t-76 -17.5q-36 0 -61 12t-40 32.5t-19 48.5t2 60l66 345h43l-64 -337q-5 -24 -3.5 -46t11.5 -38.5t29.5 -26t51.5 -9.5q28 0 53 11t45 30t33.5 44t19.5 53l61 319h43l-96 -492h-43l15 70h-3zM293 558l-102 146l41 22l84 -156z" />
<glyph unicode="&#xfa;" horiz-adv-x="435" d="M306 70q-29 -41 -68 -58.5t-76 -17.5q-36 0 -61 12t-40 32.5t-19 48.5t2 60l66 345h43l-64 -337q-5 -24 -3.5 -46t11.5 -38.5t29.5 -26t51.5 -9.5q28 0 53 11t45 30t33.5 44t19.5 53l61 319h43l-96 -492h-43l15 70h-3zM265 571l93 152l44 -18l-112 -145z" />
<glyph unicode="&#xfb;" horiz-adv-x="435" d="M306 70q-29 -41 -68 -58.5t-76 -17.5q-36 0 -61 12t-40 32.5t-19 48.5t2 60l66 345h43l-64 -337q-5 -24 -3.5 -46t11.5 -38.5t29.5 -26t51.5 -9.5q28 0 53 11t45 30t33.5 44t19.5 53l61 319h43l-96 -492h-43l15 70h-3zM302 659l-140 -98l-17 18l146 123h35l94 -122 l-22 -18z" />
<glyph unicode="&#xfc;" horiz-adv-x="435" d="M306 70q-29 -41 -68 -58.5t-76 -17.5q-36 0 -61 12t-40 32.5t-19 48.5t2 60l66 345h43l-64 -337q-5 -24 -3.5 -46t11.5 -38.5t29.5 -26t51.5 -9.5q28 0 53 11t45 30t33.5 44t19.5 53l61 319h43l-96 -492h-43l15 70h-3zM177 597l9 51h48l-10 -51h-47zM344 597l10 51h47 l-10 -51h-47z" />
<glyph unicode="&#xfd;" horiz-adv-x="360" d="M140 19q27 46 55 104t55 120.5t52.5 126t46.5 121.5h43q-66 -176 -128.5 -311t-126.5 -240q-16 -27 -35.5 -51.5t-43 -42.5t-52 -29t-61.5 -11v37q35 3 66.5 16.5t58.5 51.5q12 16 20.5 30t19.5 37l-64 513h43q5 -52 11 -103.5t12 -103.5q4 -32 7.5 -66t6.5 -68 q3 -29 7.5 -67t4.5 -64h2zM212 571l93 152l44 -18l-112 -145z" />
<glyph unicode="&#xfe;" horiz-adv-x="422" d="M-32 -199q11 58 25 130.5t30 152.5t32.5 164.5t32.5 165t30.5 153t25.5 130.5h42l-53 -269h2q26 33 59 52.5t80 19.5q63 0 92 -34t29 -97q-1 -31 -5 -68t-11 -67q-11 -51 -26 -95t-38.5 -75.5t-56.5 -49.5t-81 -18q-47 0 -73.5 21t-39.5 52h-2l-52 -268h-42zM257 459 q-48 0 -82 -30t-49 -74q-16 -45 -26 -93.5t-15 -93.5q-1 -6 -1 -12.5v-13.5q0 -22 4.5 -41t15.5 -33.5t28 -23t43 -8.5q41 0 68.5 18t45.5 47t29.5 67t19.5 77q6 28 9 55.5t3 53.5q0 22 -4 41t-14.5 33t-28.5 22.5t-46 8.5z" />
<glyph unicode="&#xff;" horiz-adv-x="360" d="M140 19q27 46 55 104t55 120.5t52.5 126t46.5 121.5h43q-66 -176 -128.5 -311t-126.5 -240q-16 -27 -35.5 -51.5t-43 -42.5t-52 -29t-61.5 -11v37q35 3 66.5 16.5t58.5 51.5q12 16 20.5 30t19.5 37l-64 513h43q5 -52 11 -103.5t12 -103.5q4 -32 7.5 -66t6.5 -68 q3 -29 7.5 -67t4.5 -64h2zM127 597l9 51h48l-10 -51h-47zM294 597l10 51h47l-10 -51h-47z" />
<glyph unicode="&#x100;" horiz-adv-x="475" d="M363 176h-262q-20 -45 -41 -88t-42 -88h-46q84 175 167 348t168 348h48q17 -175 33.5 -348t33.5 -348h-45zM240 467q-4 -8 -13 -27t-21.5 -44.5t-25.5 -53.5t-25.5 -53.5t-21.5 -45t-13 -27.5h240q-6 61 -11 121.5t-11 121.5q-4 45 -7 91t-8 91h-2zM229 758l8 40h231 l-8 -40h-231z" />
<glyph unicode="&#x101;" horiz-adv-x="428" d="M289 0l15 70h-2q-26 -35 -60 -55.5t-84 -20.5q-32 0 -54.5 10.5t-36.5 29.5t-20.5 43.5t-6.5 53.5t4 62.5t11 68.5q10 53 26 96.5t40 75t57 48.5t77 17q42 0 73.5 -19.5t43.5 -53.5l1 1l12 65h42l-96 -492h-42zM259 457q-39 0 -66 -16.5t-44.5 -43.5t-28.5 -61t-18 -69 q-8 -35 -13 -69t-5 -62q0 -21 4.5 -40t15 -32.5t27.5 -21.5t42 -8q28 0 51 11t40.5 29t30 40.5t20.5 45.5q14 44 22.5 88.5t13.5 85.5q4 25 -1 47.5t-17 39t-31 26.5t-43 10zM174 598l8 40h232l-9 -40h-231z" />
<glyph unicode="&#x102;" horiz-adv-x="475" d="M363 176h-262q-20 -45 -41 -88t-42 -88h-46q84 175 167 348t168 348h48q17 -175 33.5 -348t33.5 -348h-45zM240 467q-4 -8 -13 -27t-21.5 -44.5t-25.5 -53.5t-25.5 -53.5t-21.5 -45t-13 -27.5h240q-6 61 -11 121.5t-11 121.5q-4 45 -7 91t-8 91h-2zM270 843 q-2 -31 17.5 -52.5t52.5 -21.5q35 0 62.5 21t38.5 53h39q-6 -20 -17.5 -39.5t-29.5 -35.5t-42 -25.5t-55 -9.5q-30 0 -51 10.5t-33 26.5t-16.5 35.5t-2.5 37.5h37z" />
<glyph unicode="&#x103;" horiz-adv-x="428" d="M289 0l15 70h-2q-26 -35 -60 -55.5t-84 -20.5q-32 0 -54.5 10.5t-36.5 29.5t-20.5 43.5t-6.5 53.5t4 62.5t11 68.5q10 53 26 96.5t40 75t57 48.5t77 17q42 0 73.5 -19.5t43.5 -53.5l1 1l12 65h42l-96 -492h-42zM259 457q-39 0 -66 -16.5t-44.5 -43.5t-28.5 -61t-18 -69 q-8 -35 -13 -69t-5 -62q0 -21 4.5 -40t15 -32.5t27.5 -21.5t42 -8q28 0 51 11t40.5 29t30 40.5t20.5 45.5q14 44 22.5 88.5t13.5 85.5q4 25 -1 47.5t-17 39t-31 26.5t-43 10zM216 684q-2 -31 19 -53.5t53 -22.5t60.5 21.5t39.5 54.5h39q-6 -20 -17.5 -40.5t-29 -36.5 t-41 -26t-53.5 -10t-51.5 10t-34.5 26t-18 36t-3 41h37z" />
<glyph unicode="&#x104;" horiz-adv-x="475" d="M383 -174q-32 0 -48.5 18.5t-16.5 45.5q0 20 12.5 49t46.5 61l-14 176h-262q-20 -45 -41 -88t-42 -88h-46q84 175 167 348t168 348h48q17 -175 33.5 -348t33.5 -348h-10q-28 -28 -41 -54.5t-13 -46.5q0 -37 41 -37q22 0 55 18l7 -32q-16 -9 -37 -15.5t-41 -6.5zM240 467 q-4 -8 -13 -27t-21.5 -44.5t-25.5 -53.5t-25.5 -53.5t-21.5 -45t-13 -27.5h240q-6 61 -11 121.5t-11 121.5q-4 45 -7 91t-8 91h-2z" />
<glyph unicode="&#x105;" horiz-adv-x="428" d="M293 -174q-32 0 -48.5 18.5t-16.5 45.5q0 20 13 50t48 62l15 68h-2q-26 -35 -60 -55.5t-84 -20.5q-32 0 -54.5 10.5t-36.5 29.5t-20.5 43.5t-6.5 53.5t4 62.5t11 68.5q10 53 26 96.5t40 75t57 48.5t77 17q42 0 73.5 -19.5t43.5 -53.5l1 1l12 65h42l-96 -492h-9 q-28 -28 -41 -54.5t-13 -46.5q0 -37 41 -37q22 0 55 18l7 -32q-16 -9 -37 -15.5t-41 -6.5zM259 457q-39 0 -66 -16.5t-44.5 -43.5t-28.5 -61t-18 -69q-8 -35 -13 -69t-5 -62q0 -21 4.5 -40t15 -32.5t27.5 -21.5t42 -8q28 0 51 11t40.5 29t30 40.5t20.5 45.5q14 44 22.5 88.5 t13.5 85.5q4 25 -1 47.5t-17 39t-31 26.5t-43 10z" />
<glyph unicode="&#x106;" horiz-adv-x="457" d="M212 33q60 0 101.5 30.5t64.5 88.5q11 -4 21 -7.5t21 -6.5q-26 -73 -80 -108.5t-129 -35.5q-84 0 -126 43t-42 110q0 19 3.5 42.5t6.5 41.5l43 219q9 46 23 91.5t38.5 80.5t63.5 57t99 22q81 0 125 -39t51 -101q-11 -4 -22 -7.5t-23 -6.5q-2 48 -36.5 79.5t-94.5 31.5 q-51 0 -83 -20t-52 -52t-30.5 -71t-17.5 -78l-38 -198q-5 -23 -7.5 -47.5t-2.5 -41.5q0 -23 6.5 -44t21 -37t38 -26t57.5 -10zM302 749l150 108q8 -10 14 -19.5t14 -19.5q-42 -23 -82 -45.5t-81 -45.5z" />
<glyph unicode="&#x107;" horiz-adv-x="368" d="M172 -6q-42 0 -70 12t-44.5 32.5t-23 47t-6.5 55.5q0 37 4.5 78t15 80.5t27.5 75.5t42.5 63.5t60.5 43.5t80 16q51 0 86 -23t43 -68l-40 -19q-5 32 -29.5 51t-61.5 19q-55 0 -90.5 -33t-56 -81t-28.5 -102.5t-8 -96.5q0 -22 4.5 -42t16.5 -35.5t32 -24.5t50 -9 q37 0 68.5 18t46.5 50l38 -20q-23 -42 -63 -65t-94 -23zM241 571l93 152l44 -18l-112 -145z" />
<glyph unicode="&#x108;" horiz-adv-x="457" d="M212 33q60 0 101.5 30.5t64.5 88.5q11 -4 21 -7.5t21 -6.5q-26 -73 -80 -108.5t-129 -35.5q-84 0 -126 43t-42 110q0 19 3.5 42.5t6.5 41.5l43 219q9 46 23 91.5t38.5 80.5t63.5 57t99 22q81 0 125 -39t51 -101q-11 -4 -22 -7.5t-23 -6.5q-2 48 -36.5 79.5t-94.5 31.5 q-51 0 -83 -20t-52 -52t-30.5 -71t-17.5 -78l-38 -198q-5 -23 -7.5 -47.5t-2.5 -41.5q0 -23 6.5 -44t21 -37t38 -26t57.5 -10zM360 813l-139 -81l-15 19l143 106h34l99 -105l-20 -18z" />
<glyph unicode="&#x109;" horiz-adv-x="368" d="M172 -6q-42 0 -70 12t-44.5 32.5t-23 47t-6.5 55.5q0 37 4.5 78t15 80.5t27.5 75.5t42.5 63.5t60.5 43.5t80 16q51 0 86 -23t43 -68l-40 -19q-5 32 -29.5 51t-61.5 19q-55 0 -90.5 -33t-56 -81t-28.5 -102.5t-8 -96.5q0 -22 4.5 -42t16.5 -35.5t32 -24.5t50 -9 q37 0 68.5 18t46.5 50l38 -20q-23 -42 -63 -65t-94 -23zM304 659l-140 -98l-17 18l146 123h35l94 -122l-22 -18z" />
<glyph unicode="&#x10a;" horiz-adv-x="457" d="M212 33q60 0 101.5 30.5t64.5 88.5q11 -4 21 -7.5t21 -6.5q-26 -73 -80 -108.5t-129 -35.5q-84 0 -126 43t-42 110q0 19 3.5 42.5t6.5 41.5l43 219q9 46 23 91.5t38.5 80.5t63.5 57t99 22q81 0 125 -39t51 -101q-11 -4 -22 -7.5t-23 -6.5q-2 48 -36.5 79.5t-94.5 31.5 q-51 0 -83 -20t-52 -52t-30.5 -71t-17.5 -78l-38 -198q-5 -23 -7.5 -47.5t-2.5 -41.5q0 -23 6.5 -44t21 -37t38 -26t57.5 -10zM330 755l10 51h48l-10 -51h-48z" />
<glyph unicode="&#x10b;" horiz-adv-x="368" d="M172 -6q-42 0 -70 12t-44.5 32.5t-23 47t-6.5 55.5q0 37 4.5 78t15 80.5t27.5 75.5t42.5 63.5t60.5 43.5t80 16q51 0 86 -23t43 -68l-40 -19q-5 32 -29.5 51t-61.5 19q-55 0 -90.5 -33t-56 -81t-28.5 -102.5t-8 -96.5q0 -22 4.5 -42t16.5 -35.5t32 -24.5t50 -9 q37 0 68.5 18t46.5 50l38 -20q-23 -42 -63 -65t-94 -23zM254 595l10 51h48l-10 -51h-48z" />
<glyph unicode="&#x10c;" horiz-adv-x="457" d="M212 33q60 0 101.5 30.5t64.5 88.5q11 -4 21 -7.5t21 -6.5q-26 -73 -80 -108.5t-129 -35.5q-84 0 -126 43t-42 110q0 19 3.5 42.5t6.5 41.5l43 219q9 46 23 91.5t38.5 80.5t63.5 57t99 22q81 0 125 -39t51 -101q-11 -4 -22 -7.5t-23 -6.5q-2 48 -36.5 79.5t-94.5 31.5 q-51 0 -83 -20t-52 -52t-30.5 -71t-17.5 -78l-38 -198q-5 -23 -7.5 -47.5t-2.5 -41.5q0 -23 6.5 -44t21 -37t38 -26t57.5 -10zM346 777l139 80l15 -19l-142 -105h-34l-100 106l21 18z" />
<glyph unicode="&#x10d;" horiz-adv-x="368" d="M172 -6q-42 0 -70 12t-44.5 32.5t-23 47t-6.5 55.5q0 37 4.5 78t15 80.5t27.5 75.5t42.5 63.5t60.5 43.5t80 16q51 0 86 -23t43 -68l-40 -19q-5 32 -29.5 51t-61.5 19q-55 0 -90.5 -33t-56 -81t-28.5 -102.5t-8 -96.5q0 -22 4.5 -42t16.5 -35.5t32 -24.5t50 -9 q37 0 68.5 18t46.5 50l38 -20q-23 -42 -63 -65t-94 -23zM413 696l16 -19l-142 -123h-35l-98 123l23 19l98 -97z" />
<glyph unicode="&#x10e;" horiz-adv-x="504" d="M349 696q86 0 123.5 -38t37.5 -106q0 -13 -2 -34.5t-6 -48.5t-8.5 -57t-10.5 -61q-15 -78 -29.5 -142.5t-31.5 -98.5q-17 -32 -38.5 -53.5t-47.5 -34t-56 -17.5t-63 -5h-192l134 696h190zM411 218q11 53 22 105.5t19 104.5q6 37 12 77.5t-1.5 73.5t-35 54.5t-87.5 21.5 h-144l-119 -614h146q56 0 96 21.5t60 60.5q11 19 19 45.5t13 49.5zM333 777l139 80l15 -19l-142 -105h-34l-100 106l21 18z" />
<glyph unicode="&#x10f;" horiz-adv-x="460" d="M147 -7q-34 0 -57 9.5t-37.5 27t-20.5 42t-6 55.5q2 37 7 78.5t15.5 83t26.5 79.5t39.5 66.5t55.5 46t73 17.5q48 0 74.5 -21.5t39.5 -52.5h1q15 76 30 151t29 150h43q-35 -183 -70.5 -362.5t-71.5 -362.5h-42q2 17 5.5 32.5t6.5 32.5h-2q-26 -33 -59 -52.5t-80 -19.5z M164 34q48 0 82 30t49 73q14 41 22.5 84.5t15.5 85.5q4 25 3.5 51.5t-10 48.5t-29 36t-52.5 14q-50 0 -83 -33t-52.5 -82t-28.5 -105t-10 -100q0 -22 3.5 -40.5t14 -32.5t28.5 -22t47 -8zM483 575l41 88h-16l12 61h56l-13 -64l-53 -85h-27z" />
<glyph unicode="&#x110;" horiz-adv-x="504" d="M22 388h77l60 308h190q86 0 123.5 -38t37.5 -106q0 -13 -2 -34.5t-6 -48.5t-8.5 -57t-10.5 -61q-15 -78 -29.5 -142.5t-31.5 -98.5q-17 -32 -38.5 -53.5t-47.5 -34t-56 -17.5t-63 -5h-192l68 353h-79zM411 218q11 53 22 105.5t19 104.5q6 37 12 77.5t-1.5 73.5t-35 54.5 t-87.5 21.5h-144q-14 -67 -26.5 -133.5t-25.5 -133.5h109l-7 -35h-109l-60 -312h146q56 0 96 21.5t60 60.5q11 19 19 45.5t13 49.5z" />
<glyph unicode="&#x111;" horiz-adv-x="402" d="M238 583q1 4 3.5 16.5t2.5 16.5h152l21 109h43l-21 -109h48l-6 -33h-49l-114 -583h-42q2 17 5.5 32.5t6.5 32.5h-2q-26 -33 -59 -52.5t-80 -19.5q-34 0 -57 9.5t-37.5 27t-20.5 42t-6 55.5q2 37 7 78.5t15.5 83t26.5 79.5t39.5 66.5t55.5 46t73 17.5q48 0 74.5 -21.5 t39.5 -52.5h1l31 159h-151zM164 34q48 0 82 30t49 73q14 41 22.5 84.5t15.5 85.5q4 25 3.5 51.5t-10 48.5t-29 36t-52.5 14q-50 0 -83 -33t-52.5 -82t-28.5 -105t-10 -100q0 -22 3.5 -40.5t14 -32.5t28.5 -22t47 -8z" />
<glyph unicode="&#x112;" horiz-adv-x="436" d="M25 0l135 696h349l-9 -41h-304l-54 -280h263l-8 -40h-262l-58 -294h304l-7 -41h-349zM230 758l8 40h231l-8 -40h-231z" />
<glyph unicode="&#x113;" horiz-adv-x="406" d="M332 77q-26 -38 -66.5 -60.5t-94.5 -22.5q-41 0 -67.5 13t-42 33.5t-21.5 46t-6 49.5q0 35 4.5 75.5t14.5 81t27 77.5t41.5 66t58 46t76.5 17q72 0 107 -33t35 -81q0 -80 -58 -125.5t-183 -45.5q-12 0 -33.5 1t-41.5 3q-3 -18 -5 -36.5t-2 -33.5q0 -52 22.5 -83.5 t77.5 -31.5q35 0 70 17t55 46zM253 460q-34 0 -61 -15t-47 -42t-34 -64t-22 -82q18 -2 41 -3.5t37 -1.5q51 0 87 9.5t58.5 26.5t33 40t10.5 50q0 37 -27 59.5t-76 22.5zM171 598l8 40h232l-9 -40h-231z" />
<glyph unicode="&#x114;" horiz-adv-x="436" d="M25 0l135 696h349l-9 -41h-304l-54 -280h263l-8 -40h-262l-58 -294h304l-7 -41h-349zM268 843q-2 -31 17.5 -52.5t52.5 -21.5q35 0 62.5 21t38.5 53h39q-6 -20 -17.5 -39.5t-29.5 -35.5t-42 -25.5t-55 -9.5q-30 0 -51 10.5t-33 26.5t-16.5 35.5t-2.5 37.5h37z" />
<glyph unicode="&#x115;" horiz-adv-x="406" d="M332 77q-26 -38 -66.5 -60.5t-94.5 -22.5q-41 0 -67.5 13t-42 33.5t-21.5 46t-6 49.5q0 35 4.5 75.5t14.5 81t27 77.5t41.5 66t58 46t76.5 17q72 0 107 -33t35 -81q0 -80 -58 -125.5t-183 -45.5q-12 0 -33.5 1t-41.5 3q-3 -18 -5 -36.5t-2 -33.5q0 -52 22.5 -83.5 t77.5 -31.5q35 0 70 17t55 46zM253 460q-34 0 -61 -15t-47 -42t-34 -64t-22 -82q18 -2 41 -3.5t37 -1.5q51 0 87 9.5t58.5 26.5t33 40t10.5 50q0 37 -27 59.5t-76 22.5zM208 684q-2 -31 19 -53.5t53 -22.5t60.5 21.5t39.5 54.5h39q-6 -20 -17.5 -40.5t-29 -36.5t-41 -26 t-53.5 -10t-51.5 10t-34.5 26t-18 36t-3 41h37z" />
<glyph unicode="&#x116;" horiz-adv-x="436" d="M25 0l135 696h349l-9 -41h-304l-54 -280h263l-8 -40h-262l-58 -294h304l-7 -41h-349zM314 757l10 51h48l-10 -51h-48z" />
<glyph unicode="&#x117;" horiz-adv-x="406" d="M332 77q-26 -38 -66.5 -60.5t-94.5 -22.5q-41 0 -67.5 13t-42 33.5t-21.5 46t-6 49.5q0 35 4.5 75.5t14.5 81t27 77.5t41.5 66t58 46t76.5 17q72 0 107 -33t35 -81q0 -80 -58 -125.5t-183 -45.5q-12 0 -33.5 1t-41.5 3q-3 -18 -5 -36.5t-2 -33.5q0 -52 22.5 -83.5 t77.5 -31.5q35 0 70 17t55 46zM253 460q-34 0 -61 -15t-47 -42t-34 -64t-22 -82q18 -2 41 -3.5t37 -1.5q51 0 87 9.5t58.5 26.5t33 40t10.5 50q0 37 -27 59.5t-76 22.5zM251 595l10 51h48l-10 -51h-48z" />
<glyph unicode="&#x118;" horiz-adv-x="436" d="M342 -174q-32 0 -48.5 18.5t-16.5 45.5q0 20 12.5 49t46.5 61h-311l135 696h349l-9 -41h-304l-54 -280h263l-8 -40h-262l-58 -294h304l-7 -41h-3q-28 -28 -41 -54.5t-13 -46.5q0 -37 41 -37q22 0 55 18l7 -32q-16 -9 -37 -15.5t-41 -6.5z" />
<glyph unicode="&#x119;" horiz-adv-x="406" d="M248 -150q-32 0 -48.5 18.5t-16.5 45.5q0 16 8 38t28 48q-23 -6 -48 -6q-41 0 -67.5 13t-42 33.5t-21.5 46t-6 49.5q0 35 4.5 75.5t14.5 81t27 77.5t41.5 66t58 46t76.5 17q72 0 107 -33t35 -81q0 -80 -58 -125.5t-183 -45.5q-12 0 -33.5 1t-41.5 3q-3 -18 -5 -36.5 t-2 -33.5q0 -52 22.5 -83.5t77.5 -31.5q35 0 70 17t55 46l32 -19q-24 -35 -57 -55q-27 -27 -39.5 -53t-12.5 -46q0 -37 41 -37q22 0 55 18l7 -32q-16 -9 -37 -15.5t-41 -6.5zM253 460q-34 0 -61 -15t-47 -42t-34 -64t-22 -82q18 -2 41 -3.5t37 -1.5q51 0 87 9.5t58.5 26.5 t33 40t10.5 50q0 37 -27 59.5t-76 22.5z" />
<glyph unicode="&#x11a;" horiz-adv-x="436" d="M25 0l135 696h349l-9 -41h-304l-54 -280h263l-8 -40h-262l-58 -294h304l-7 -41h-349zM333 777l139 80l15 -19l-142 -105h-34l-100 106l21 18z" />
<glyph unicode="&#x11b;" horiz-adv-x="406" d="M332 77q-26 -38 -66.5 -60.5t-94.5 -22.5q-41 0 -67.5 13t-42 33.5t-21.5 46t-6 49.5q0 35 4.5 75.5t14.5 81t27 77.5t41.5 66t58 46t76.5 17q72 0 107 -33t35 -81q0 -80 -58 -125.5t-183 -45.5q-12 0 -33.5 1t-41.5 3q-3 -18 -5 -36.5t-2 -33.5q0 -52 22.5 -83.5 t77.5 -31.5q35 0 70 17t55 46zM253 460q-34 0 -61 -15t-47 -42t-34 -64t-22 -82q18 -2 41 -3.5t37 -1.5q51 0 87 9.5t58.5 26.5t33 40t10.5 50q0 37 -27 59.5t-76 22.5zM421 696l16 -19l-142 -123h-35l-98 123l23 19l98 -97z" />
<glyph unicode="&#x11c;" horiz-adv-x="484" d="M317 702q81 0 125 -39t51 -101l-45 -14q-2 48 -36.5 79.5t-94.5 31.5q-51 0 -83 -20t-52 -52t-30.5 -71t-17.5 -78l-38 -198q-5 -23 -8.5 -50t-3.5 -44q0 -23 7 -43t22 -35t38.5 -24t57.5 -9q61 0 103 30.5t62 81.5q9 21 15 44t11 46l16 78h-121l8 40h165 q-5 -31 -11.5 -61.5t-13.5 -62.5q-9 -51 -28 -98q-26 -66 -78 -102t-129 -36q-84 0 -125.5 43t-41.5 110q0 19 3 42.5t6 41.5l43 219q9 46 23 91.5t38.5 80.5t63.5 57t99 22zM356 813l-139 -81l-15 19l143 106h34l99 -105l-20 -18z" />
<glyph unicode="&#x11d;" horiz-adv-x="422" d="M299 72h-2q-27 -36 -62.5 -56.5t-82.5 -20.5q-34 0 -56.5 10.5t-36 28.5t-19 42t-5.5 51q0 31 4.5 68t12.5 76q9 44 23.5 85t38 73t57 51t80.5 19q40 0 71.5 -19t42.5 -53h1q4 17 7.5 32.5t6.5 32.5h42q-11 -58 -22.5 -116.5t-23.5 -120.5t-25 -129.5t-27 -143.5 q-14 -85 -61 -135t-132 -50q-44 0 -81 19t-48 63l36 22q7 -26 30 -45.5t61 -19.5q64 0 100 35t47 91zM256 458q-41 0 -68 -16.5t-45 -43.5t-28.5 -61t-18.5 -70q-7 -36 -11.5 -70t-4.5 -63q0 -21 3.5 -39.5t13.5 -31.5t27.5 -20.5t44.5 -7.5t51 11t43 29t32.5 41t19.5 47 q4 15 9 36t9 44t7.5 47t5.5 44q2 24 -1 46.5t-13.5 39.5t-29 27.5t-46.5 10.5zM305 659l-140 -98l-17 18l146 123h35l94 -122l-22 -18z" />
<glyph unicode="&#x11e;" horiz-adv-x="484" d="M317 702q81 0 125 -39t51 -101l-45 -14q-2 48 -36.5 79.5t-94.5 31.5q-51 0 -83 -20t-52 -52t-30.5 -71t-17.5 -78l-38 -198q-5 -23 -8.5 -50t-3.5 -44q0 -23 7 -43t22 -35t38.5 -24t57.5 -9q61 0 103 30.5t62 81.5q9 21 15 44t11 46l16 78h-121l8 40h165 q-5 -31 -11.5 -61.5t-13.5 -62.5q-9 -51 -28 -98q-26 -66 -78 -102t-129 -36q-84 0 -125.5 43t-41.5 110q0 19 3 42.5t6 41.5l43 219q9 46 23 91.5t38.5 80.5t63.5 57t99 22zM279 843q-2 -31 17.5 -52.5t52.5 -21.5q35 0 62.5 21t38.5 53h39q-6 -20 -17.5 -39.5t-29.5 -35.5 t-42 -25.5t-55 -9.5q-30 0 -51 10.5t-33 26.5t-16.5 35.5t-2.5 37.5h37z" />
<glyph unicode="&#x11f;" horiz-adv-x="422" d="M299 72h-2q-27 -36 -62.5 -56.5t-82.5 -20.5q-34 0 -56.5 10.5t-36 28.5t-19 42t-5.5 51q0 31 4.5 68t12.5 76q9 44 23.5 85t38 73t57 51t80.5 19q40 0 71.5 -19t42.5 -53h1q4 17 7.5 32.5t6.5 32.5h42q-11 -58 -22.5 -116.5t-23.5 -120.5t-25 -129.5t-27 -143.5 q-14 -85 -61 -135t-132 -50q-44 0 -81 19t-48 63l36 22q7 -26 30 -45.5t61 -19.5q64 0 100 35t47 91zM256 458q-41 0 -68 -16.5t-45 -43.5t-28.5 -61t-18.5 -70q-7 -36 -11.5 -70t-4.5 -63q0 -21 3.5 -39.5t13.5 -31.5t27.5 -20.5t44.5 -7.5t51 11t43 29t32.5 41t19.5 47 q4 15 9 36t9 44t7.5 47t5.5 44q2 24 -1 46.5t-13.5 39.5t-29 27.5t-46.5 10.5zM213 684q-2 -31 19 -53.5t53 -22.5t60.5 21.5t39.5 54.5h39q-6 -20 -17.5 -40.5t-29 -36.5t-41 -26t-53.5 -10t-51.5 10t-34.5 26t-18 36t-3 41h37z" />
<glyph unicode="&#x120;" horiz-adv-x="484" d="M317 702q81 0 125 -39t51 -101l-45 -14q-2 48 -36.5 79.5t-94.5 31.5q-51 0 -83 -20t-52 -52t-30.5 -71t-17.5 -78l-38 -198q-5 -23 -8.5 -50t-3.5 -44q0 -23 7 -43t22 -35t38.5 -24t57.5 -9q61 0 103 30.5t62 81.5q9 21 15 44t11 46l16 78h-121l8 40h165 q-5 -31 -11.5 -61.5t-13.5 -62.5q-9 -51 -28 -98q-26 -66 -78 -102t-129 -36q-84 0 -125.5 43t-41.5 110q0 19 3 42.5t6 41.5l43 219q9 46 23 91.5t38.5 80.5t63.5 57t99 22zM325 755l10 51h48l-10 -51h-48z" />
<glyph unicode="&#x121;" horiz-adv-x="422" d="M299 72h-2q-27 -36 -62.5 -56.5t-82.5 -20.5q-34 0 -56.5 10.5t-36 28.5t-19 42t-5.5 51q0 31 4.5 68t12.5 76q9 44 23.5 85t38 73t57 51t80.5 19q40 0 71.5 -19t42.5 -53h1q4 17 7.5 32.5t6.5 32.5h42q-11 -58 -22.5 -116.5t-23.5 -120.5t-25 -129.5t-27 -143.5 q-14 -85 -61 -135t-132 -50q-44 0 -81 19t-48 63l36 22q7 -26 30 -45.5t61 -19.5q64 0 100 35t47 91zM256 458q-41 0 -68 -16.5t-45 -43.5t-28.5 -61t-18.5 -70q-7 -36 -11.5 -70t-4.5 -63q0 -21 3.5 -39.5t13.5 -31.5t27.5 -20.5t44.5 -7.5t51 11t43 29t32.5 41t19.5 47 q4 15 9 36t9 44t7.5 47t5.5 44q2 24 -1 46.5t-13.5 39.5t-29 27.5t-46.5 10.5zM268 595l10 51h48l-10 -51h-48z" />
<glyph unicode="&#x122;" horiz-adv-x="484" d="M317 702q81 0 125 -39t51 -101l-45 -14q-2 48 -36.5 79.5t-94.5 31.5q-51 0 -83 -20t-52 -52t-30.5 -71t-17.5 -78l-38 -198q-5 -23 -8.5 -50t-3.5 -44q0 -23 7 -43t22 -35t38.5 -24t57.5 -9q61 0 103 30.5t62 81.5q9 21 15 44t11 46l16 78h-121l8 40h165 q-5 -31 -11.5 -61.5t-13.5 -62.5q-9 -51 -28 -98q-26 -66 -78 -102t-129 -36q-84 0 -125.5 43t-41.5 110q0 19 3 42.5t6 41.5l43 219q9 46 23 91.5t38.5 80.5t63.5 57t99 22zM127 -219l41 88h-16l12 61h56l-13 -64l-53 -85h-27z" />
<glyph unicode="&#x123;" horiz-adv-x="422" d="M299 72h-2q-27 -36 -62.5 -56.5t-82.5 -20.5q-34 0 -56.5 10.5t-36 28.5t-19 42t-5.5 51q0 31 4.5 68t12.5 76q9 44 23.5 85t38 73t57 51t80.5 19q40 0 71.5 -19t42.5 -53h1q4 17 7.5 32.5t6.5 32.5h42q-11 -58 -22.5 -116.5t-23.5 -120.5t-25 -129.5t-27 -143.5 q-14 -85 -61 -135t-132 -50q-44 0 -81 19t-48 63l36 22q7 -26 30 -45.5t61 -19.5q64 0 100 35t47 91zM256 458q-41 0 -68 -16.5t-45 -43.5t-28.5 -61t-18.5 -70q-7 -36 -11.5 -70t-4.5 -63q0 -21 3.5 -39.5t13.5 -31.5t27.5 -20.5t44.5 -7.5t51 11t43 29t32.5 41t19.5 47 q4 15 9 36t9 44t7.5 47t5.5 44q2 24 -1 46.5t-13.5 39.5t-29 27.5t-46.5 10.5zM269 633q14 21 27 43t27 44h28l-41 -88h15q-2 -15 -5.5 -30t-6.5 -31h-56z" />
<glyph unicode="&#x124;" horiz-adv-x="512" d="M364 0l65 334h-294l-65 -334h-45l136 696h44l-63 -321h295l62 321h45l-136 -696h-44zM374 813l-139 -81l-15 19l143 106h34l99 -105l-20 -18z" />
<glyph unicode="&#x125;" horiz-adv-x="432" d="M140 420q29 40 69 58.5t78 18.5q36 0 61.5 -12.5t40 -34t18 -50t-3.5 -59.5l-66 -341h-44q9 46 18.5 92.5t18 90t15.5 82t13 67.5q4 22 3 44t-10 39t-28 28t-49 11q-38 0 -66 -15t-47.5 -40t-31.5 -57.5t-19 -66.5l-53 -275h-42q35 183 70 363.5t71 363.5h42l-60 -307h2z M194 813l-139 -81l-15 19l143 106h34l99 -105l-20 -18z" />
<glyph unicode="&#x126;" horiz-adv-x="512" d="M364 0l65 334h-294l-65 -334h-45l110 562h-55l6 33h55l20 101h44l-20 -101h294l20 101h45l-20 -101h50l-6 -33h-50l-110 -562h-44zM437 375l36 187h-295l-36 -187h295z" />
<glyph unicode="&#x127;" horiz-adv-x="432" d="M73 615h61q5 28 10.5 55.5t11.5 56.5h42q-6 -29 -11.5 -56.5t-10.5 -55.5h199l-6 -33h-199q-8 -41 -16 -81t-16 -81h2q29 40 69 58.5t78 18.5q36 0 61.5 -12.5t40 -34t18 -50t-3.5 -59.5l-66 -341h-44q9 46 18.5 92.5t18 90t15.5 82t13 67.5q4 22 3 44t-10 39t-28 28 t-49 11q-38 0 -66 -15t-47.5 -40t-31.5 -57.5t-19 -66.5l-53 -275h-42q28 146 55.5 291t56.5 291h-60z" />
<glyph unicode="&#x128;" horiz-adv-x="191" d="M33 0l136 696h44l-135 -696h-45zM151 818q16 0 30.5 -6t29 -13.5t28.5 -13.5t30 -6q15 0 29 8.5t30 28.5l25 -15q-17 -33 -42 -47t-47 -14q-17 0 -32 6t-29 13.5t-28 13.5t-28 6q-15 0 -28.5 -8.5t-29.5 -25.5l-25 18q38 55 87 55z" />
<glyph unicode="&#x129;" horiz-adv-x="246" d="M63 0l95 493h43l-95 -493h-43zM144 664q16 0 30.5 -6t29 -13.5t28.5 -13.5t30 -6q15 0 29 8.5t30 28.5l25 -15q-17 -33 -42 -47t-47 -14q-17 0 -32 6t-29 13.5t-28 13.5t-28 6q-15 0 -28.5 -8.5t-29.5 -25.5l-25 18q38 55 87 55z" />
<glyph unicode="&#x12a;" horiz-adv-x="191" d="M33 0l136 696h44l-135 -696h-45zM86 758l8 40h231l-8 -40h-231z" />
<glyph unicode="&#x12b;" horiz-adv-x="224" d="M55 0l95 493h43l-95 -493h-43zM80 598l8 40h232l-9 -40h-231z" />
<glyph unicode="&#x12c;" horiz-adv-x="191" d="M130 843q-2 -31 17.5 -52.5t52.5 -21.5q35 0 63 21t39 53h38q-6 -20 -17.5 -39.5t-29.5 -35.5t-42 -25.5t-55 -9.5q-30 0 -51 10.5t-33 26.5t-16.5 35.5t-2.5 37.5h37zM33 0l136 696h44l-135 -696h-45z" />
<glyph unicode="&#x12d;" horiz-adv-x="222" d="M58 0l95 493h43l-95 -493h-43zM121 685q-2 -31 19 -53.5t53 -22.5t60.5 21.5t39.5 54.5h39q-6 -20 -17.5 -40.5t-29 -36.5t-41 -26t-53.5 -10t-51.5 10t-34.5 26t-18 36t-3 41h37z" />
<glyph unicode="&#x12e;" horiz-adv-x="191" d="M44 -174q-32 0 -48.5 18.5t-16.5 45.5q0 20 13 49t46 61h-5l136 696h44l-135 -696h-5q-28 -28 -41 -54.5t-13 -46.5q0 -37 41 -37q22 0 55 18l7 -32q-16 -9 -37 -15.5t-41 -6.5z" />
<glyph unicode="&#x12f;" horiz-adv-x="175" d="M35 -174q-32 0 -48.5 18.5t-16.5 45.5q0 20 13 49t46 61h-3l95 493h43l-95 -493h-5q-28 -28 -41 -54.5t-13 -46.5q0 -37 41 -37q22 0 55 18l7 -32q-16 -9 -37 -15.5t-41 -6.5zM146 628l9 48h46l-9 -48h-46z" />
<glyph unicode="&#x130;" horiz-adv-x="191" d="M33 0l136 696h44l-135 -696h-45zM176 748l10 51h48l-10 -51h-48z" />
<glyph unicode="&#x131;" horiz-adv-x="175" d="M26 0l95 493h43l-95 -493h-43z" />
<glyph unicode="&#x132;" horiz-adv-x="587" d="M33 0l136 696h44l-135 -696h-45zM512 169q-18 -93 -66.5 -134t-130.5 -41q-35 0 -71 12.5t-55 35.5l31 30q8 -9 20 -15.5t25.5 -11.5t27 -7.5t25.5 -2.5q26 0 49.5 6.5t43 23t34.5 44t23 70.5l101 517h45z" />
<glyph unicode="&#x133;" horiz-adv-x="360" d="M194 -73q27 141 55 281.5t55 283.5h44q-28 -146 -56 -289t-56 -287q-11 -53 -39.5 -85.5t-83.5 -32.5h-11.5t-11.5 1l7 40h18q38 0 54.5 23t24.5 65zM26 0l95 493h43l-95 -493h-43zM339 675h47l-9 -47h-47zM146 628l9 48h46l-9 -48h-46z" />
<glyph unicode="&#x134;" horiz-adv-x="380" d="M305 170q-18 -93 -66.5 -134t-130.5 -41q-35 0 -71 12.5t-55 35.5l31 30q8 -9 20 -15.5t25.5 -11.5t27 -7.5t25.5 -2.5q26 0 49.5 6.5t43 23t34.5 44t23 70.5l101 517h45zM405 815l-139 -81l-15 19l143 106h34l99 -105l-20 -18z" />
<glyph unicode="&#x135;" horiz-adv-x="224" d="M48 -75q28 142 55.5 283t54.5 284h44l-112 -577q-11 -54 -38.5 -85.5t-83.5 -31.5h-23q2 10 3.5 19.5t3.5 19.5h17q38 1 54.5 23.5t24.5 64.5zM209 658q-35 -25 -70 -49t-70 -49l-9 9l-9 9q37 31 73.5 61.5t73.5 62.5h34l94 -122q-10 -10 -22 -19z" />
<glyph unicode="&#x136;" horiz-adv-x="495" d="M490 696h51l-230 -271l128 -425h-47q-29 97 -58 192.5t-58 192.5l-171 -196l-38 -189h-44l136 696h44q-20 -107 -44 -216.5t-44 -216.5h1zM152 -200l41 88h-16l12 61h56l-13 -64l-53 -85h-27z" />
<glyph unicode="&#x137;" horiz-adv-x="408" d="M371 492h52l-171 -183q28 -78 55 -155t55 -154h-46q-24 69 -48 138.5t-49 138.5q-35 -36 -68 -72t-67 -72l-26 -133h-42l140 727h42l-103 -527h1zM115 -219l41 88h-16l12 61h56l-13 -64l-53 -85h-27z" />
<glyph unicode="&#x138;" horiz-adv-x="407" d="M153 491q-15 -73 -29.5 -145t-28.5 -145h1l274 291h53l-172 -183l110 -309h-45q-25 69 -48.5 138.5t-48.5 138.5q-35 -36 -68 -72t-67 -72l-26 -133h-42q23 123 47 245t48 246h42z" />
<glyph unicode="&#x139;" horiz-adv-x="394" d="M182 750l151 107l28 -38l-163 -91zM32 0l135 696h44l-128 -655h299l-8 -41h-342z" />
<glyph unicode="&#x13a;" horiz-adv-x="191" d="M203 726q-3 -16 -12 -63t-21.5 -109.5t-26 -133t-26 -133t-22 -109.5t-12.5 -63q-3 -17 -3 -31q0 -21 12 -34t45 -13h12l-9 -40h-10q-94 0 -94 76q0 16 3 34l121 619h43zM170 768l151 107l27 -38q-41 -23 -81 -45.5t-82 -45.5z" />
<glyph unicode="&#x13b;" horiz-adv-x="394" d="M32 0l135 696h44l-128 -655h299l-8 -41h-342zM130 -219l41 88h-16l12 61h56l-13 -64l-53 -85h-27z" />
<glyph unicode="&#x13c;" horiz-adv-x="191" d="M203 726q-3 -16 -12 -63t-21.5 -109.5t-26 -133t-26 -133t-22 -109.5t-12.5 -63q-3 -17 -3 -31q0 -21 12 -34t45 -13h12l-9 -40h-10q-94 0 -94 76q0 16 3 34l121 619h43zM-3 -219l41 88h-16l12 61h56l-13 -64l-53 -85h-27z" />
<glyph unicode="&#x13d;" horiz-adv-x="394" d="M32 0l135 696h44l-128 -655h299l-8 -41h-342zM288 546l41 88h-16l12 61h56l-13 -64l-53 -85h-27z" />
<glyph unicode="&#x13e;" horiz-adv-x="215" d="M203 726q-3 -16 -12 -63t-21.5 -109.5t-26 -133t-26 -133t-22 -109.5t-12.5 -63q-3 -17 -3 -31q0 -21 12 -34t45 -13h12l-9 -40h-10q-94 0 -94 76q0 16 3 34l121 619h43zM220 575l41 88h-16l12 61h56l-13 -64l-53 -85h-27z" />
<glyph unicode="&#x13f;" horiz-adv-x="394" d="M32 0l135 696h44l-128 -655h299l-8 -41h-342zM273 335l10 51h48l-10 -51h-48z" />
<glyph unicode="&#x140;" horiz-adv-x="236" d="M203 726q-3 -16 -12 -63t-21.5 -109.5t-26 -133t-26 -133t-22 -109.5t-12.5 -63q-3 -17 -3 -31q0 -21 12 -34t45 -13h12l-9 -40h-10q-94 0 -94 76q0 16 3 34l121 619h43zM199 350l9 51h48l-9 -51h-48z" />
<glyph unicode="&#x141;" horiz-adv-x="406" d="M44 0l52 270l-87 -47l-12 29l107 58l75 386h44l-70 -359l114 62l12 -29l-134 -73l-50 -256h299l-8 -41h-342z" />
<glyph unicode="&#x142;" horiz-adv-x="220" d="M226 726l-68 -350q18 10 37.5 20t39.5 21l12 -29l-97 -52l-44 -221q-3 -17 -3 -31q0 -21 12 -34t45 -13h12l-9 -40h-10q-94 0 -94 76q0 16 3 34l40 203q-18 -9 -35.5 -18.5t-36.5 -20.5q-4 8 -6.5 15.5t-5.5 14.5l91 49l74 376h43z" />
<glyph unicode="&#x143;" horiz-adv-x="541" d="M184 608q-5 -30 -14 -78t-20 -104.5t-22.5 -117.5t-23 -118.5t-21 -107t-15.5 -82.5h-44l136 696h43l207 -602h2l117 602h42l-134 -696h-43q-32 94 -64 187t-65 188l-80 233h-1zM347 728q-4 5 -8 10.5t-7 11.5q38 26 75 53t75 54q8 -10 14 -19.5t14 -19.5 q-42 -23 -82 -45.5t-81 -44.5z" />
<glyph unicode="&#x144;" horiz-adv-x="432" d="M154 492q-4 -18 -7.5 -36t-6.5 -36h2q29 41 69 59t78 18q37 0 62 -12.5t39 -33.5t17.5 -49t-2.5 -58l-67 -344h-43l65 332q4 23 4 45t-9 39t-28 27.5t-53 10.5q-38 0 -65.5 -15t-47 -39.5t-31.5 -56.5t-18 -65l-54 -278h-42l96 492h42zM238 571l93 152l44 -18l-112 -145z " />
<glyph unicode="&#x145;" horiz-adv-x="541" d="M184 608q-5 -30 -14 -78t-20 -104.5t-22.5 -117.5t-23 -118.5t-21 -107t-15.5 -82.5h-44l136 696h43l207 -602h2l117 602h42l-134 -696h-43q-26 78 -52 152.5t-51.5 149t-52 150.5t-53.5 156h-1zM157 -186l41 88h-16l12 61h56l-13 -64l-53 -85h-27z" />
<glyph unicode="&#x146;" horiz-adv-x="432" d="M154 492q-4 -18 -7.5 -36t-6.5 -36h2q29 41 69 59t78 18q37 0 62 -12.5t39 -33.5t17.5 -49t-2.5 -58l-67 -344h-43l65 332q4 23 4 45t-9 39t-28 27.5t-53 10.5q-38 0 -65.5 -15t-47 -39.5t-31.5 -56.5t-18 -65l-54 -278h-42l96 492h42zM98 -219l41 88h-16l12 61h56 l-13 -64l-53 -85h-27z" />
<glyph unicode="&#x147;" horiz-adv-x="541" d="M184 608q-5 -30 -14 -78t-20 -104.5t-22.5 -117.5t-23 -118.5t-21 -107t-15.5 -82.5h-44l136 696h43l207 -602h2l117 602h42l-134 -696h-43q-26 78 -52 152.5t-51.5 149t-52 150.5t-53.5 156h-1zM379 777l139 80l15 -19l-142 -105h-34l-100 106l21 18z" />
<glyph unicode="&#x148;" horiz-adv-x="432" d="M154 492q-4 -18 -7.5 -36t-6.5 -36h2q29 41 69 59t78 18q37 0 62 -12.5t39 -33.5t17.5 -49t-2.5 -58l-67 -344h-43l65 332q4 23 4 45t-9 39t-28 27.5t-53 10.5q-38 0 -65.5 -15t-47 -39.5t-31.5 -56.5t-18 -65l-54 -278h-42l96 492h42zM418 698l16 -19l-142 -123h-35 l-98 123l23 19l98 -97z" />
<glyph unicode="&#x149;" horiz-adv-x="477" d="M199 492q-4 -18 -7.5 -36t-6.5 -36h2q29 41 69 59t78 18q37 0 62 -12.5t39 -33.5t17.5 -49t-2.5 -58l-67 -344h-43l65 332q4 23 4 45t-9 39t-28 27.5t-53 10.5q-38 0 -65.5 -15t-47 -39.5t-31.5 -56.5t-18 -65l-54 -278h-42l96 492h42zM63 494l41 88h-16l12 61h56 l-13 -64l-53 -85h-27z" />
<glyph unicode="&#x14a;" horiz-adv-x="550" d="M186 604q-30 -152 -59 -302t-58 -302h-44l135 696h43q34 -99 68 -196.5t67 -196.5l73 -209h2l116 602h43q-37 -193 -74 -383t-74 -382q-10 -53 -37.5 -75t-61.5 -22q-16 0 -32.5 4.5t-30.5 12.5l15 33q26 -13 45 -13q23 0 38 15.5t20 43.5l15 73q-34 99 -68 196t-68 197 q-19 52 -36.5 104t-35.5 104h-1v0z" />
<glyph unicode="&#x14b;" horiz-adv-x="426" d="M136 421h2q29 41 69 59t78 18q40 0 65 -13.5t38.5 -35t16 -50t-3.5 -58.5l-81 -410q-10 -53 -36.5 -75t-61.5 -22q-16 0 -33 4.5t-31 12.5l16 32q24 -12 45 -12q24 0 38.5 15.5t19.5 43.5q1 5 7.5 36.5t15 75.5t18 93.5t18 92.5t14 72t6.5 32q4 24 3 46.5t-10.5 40 t-29.5 28t-53 10.5q-34 0 -60 -14.5t-45 -37.5t-31.5 -53t-19.5 -61q-2 -9 -6.5 -31.5t-10 -52t-12 -62.5t-12 -62t-9.5 -51.5t-6 -31.5h-42q24 124 48 246t47 246h42z" />
<glyph unicode="&#x14c;" horiz-adv-x="485" d="M439 204q-8 -43 -24 -81.5t-42.5 -67t-64 -45.5t-89.5 -17q-53 0 -90 18t-58 48t-27 70t2 84l56 280q8 40 23 78t41 66.5t64 46t92 17.5q49 0 84.5 -16.5t57.5 -44.5t29 -65.5t-1 -79.5zM448 493q6 31 2 61t-20 53t-44.5 37.5t-70.5 14.5q-41 0 -70 -14.5t-49 -38 t-32 -54t-18 -61.5l-55 -281q-7 -35 -3.5 -66.5t18.5 -55.5t43 -38.5t71 -14.5q42 0 72 14t50 37.5t32.5 53.5t18.5 62zM235 758l8 40h231l-8 -40h-231z" />
<glyph unicode="&#x14d;" horiz-adv-x="416" d="M253 499q39 0 66.5 -13t44.5 -35t24.5 -49.5t7.5 -57.5q-1 -31 -6 -65.5t-12 -66.5q-11 -53 -27 -94t-39.5 -68.5t-57 -41.5t-79.5 -14q-43 0 -71 12.5t-44 32.5t-22 45t-6 51q0 29 2.5 59t7.5 57q10 57 27.5 103t41.5 77q26 33 60 50.5t82 17.5zM248 460q-34 0 -62 -15 t-47 -43q-12 -18 -23.5 -48t-20.5 -65t-14.5 -71.5t-5.5 -67.5q0 -23 3.5 -44t14.5 -37.5t31.5 -26.5t53.5 -10q46 0 78.5 23t49.5 65q10 22 18.5 50.5t15 59t10 61t3.5 57.5q0 54 -28 83t-77 29zM174 598l8 40h232l-9 -40h-231z" />
<glyph unicode="&#x14e;" horiz-adv-x="485" d="M439 204q-8 -43 -24 -81.5t-42.5 -67t-64 -45.5t-89.5 -17q-53 0 -90 18t-58 48t-27 70t2 84l56 280q8 40 23 78t41 66.5t64 46t92 17.5q49 0 84.5 -16.5t57.5 -44.5t29 -65.5t-1 -79.5zM448 493q6 31 2 61t-20 53t-44.5 37.5t-70.5 14.5q-41 0 -70 -14.5t-49 -38 t-32 -54t-18 -61.5l-55 -281q-7 -35 -3.5 -66.5t18.5 -55.5t43 -38.5t71 -14.5q42 0 72 14t50 37.5t32.5 53.5t18.5 62zM286 843q-2 -31 17.5 -52.5t52.5 -21.5q35 0 62.5 21t38.5 53h39q-6 -20 -17.5 -39.5t-29.5 -35.5t-42 -25.5t-55 -9.5q-30 0 -51 10.5t-33 26.5 t-16.5 35.5t-2.5 37.5h37z" />
<glyph unicode="&#x14f;" horiz-adv-x="416" d="M253 499q39 0 66.5 -13t44.5 -35t24.5 -49.5t7.5 -57.5q-1 -31 -6 -65.5t-12 -66.5q-11 -53 -27 -94t-39.5 -68.5t-57 -41.5t-79.5 -14q-43 0 -71 12.5t-44 32.5t-22 45t-6 51q0 29 2.5 59t7.5 57q10 57 27.5 103t41.5 77q26 33 60 50.5t82 17.5zM248 460q-34 0 -62 -15 t-47 -43q-12 -18 -23.5 -48t-20.5 -65t-14.5 -71.5t-5.5 -67.5q0 -23 3.5 -44t14.5 -37.5t31.5 -26.5t53.5 -10q46 0 78.5 23t49.5 65q10 22 18.5 50.5t15 59t10 61t3.5 57.5q0 54 -28 83t-77 29zM211 684q-2 -31 19 -53.5t53 -22.5t60.5 21.5t39.5 54.5h39 q-6 -20 -17.5 -40.5t-29 -36.5t-41 -26t-53.5 -10t-51.5 10t-34.5 26t-18 36t-3 41h37z" />
<glyph unicode="&#x150;" horiz-adv-x="485" d="M439 204q-8 -43 -24 -81.5t-42.5 -67t-64 -45.5t-89.5 -17q-53 0 -90 18t-58 48t-27 70t2 84l56 280q8 40 23 78t41 66.5t64 46t92 17.5q49 0 84.5 -16.5t57.5 -44.5t29 -65.5t-1 -79.5zM448 493q6 31 2 61t-20 53t-44.5 37.5t-70.5 14.5q-41 0 -70 -14.5t-49 -38 t-32 -54t-18 -61.5l-55 -281q-7 -35 -3.5 -66.5t18.5 -55.5t43 -38.5t71 -14.5q42 0 72 14t50 37.5t32.5 53.5t18.5 62zM247 750l145 107l29 -38l-159 -91zM369 750l149 107l27 -38l-162 -91z" />
<glyph unicode="&#x151;" horiz-adv-x="416" d="M253 499q39 0 66.5 -13t44.5 -35t24.5 -49.5t7.5 -57.5q-1 -31 -6 -65.5t-12 -66.5q-11 -53 -27 -94t-39.5 -68.5t-57 -41.5t-79.5 -14q-43 0 -71 12.5t-44 32.5t-22 45t-6 51q0 29 2.5 59t7.5 57q10 57 27.5 103t41.5 77q26 33 60 50.5t82 17.5zM248 460q-34 0 -62 -15 t-47 -43q-12 -18 -23.5 -48t-20.5 -65t-14.5 -71.5t-5.5 -67.5q0 -23 3.5 -44t14.5 -37.5t31.5 -26.5t53.5 -10q46 0 78.5 23t49.5 65q10 22 18.5 50.5t15 59t10 61t3.5 57.5q0 54 -28 83t-77 29zM305 571l94 152l44 -18l-113 -145zM211 571l93 152l45 -18l-114 -145z" />
<glyph unicode="&#x152;" horiz-adv-x="672" d="M288 0q-14 -3 -28 -5t-31 -2q-53 0 -90 18t-58 48t-27 70t2 84l54 280q8 40 21.5 78t37.5 66.5t62.5 46t95.5 17.5q27 0 55 -5h339l-9 -41h-296l-54 -280h263l-8 -40h-262l-58 -294h304l-7 -41h-306zM252 35l119 618q-20 6 -46 6q-44 0 -73.5 -14.5t-49 -38t-31 -54 t-17.5 -61.5l-53 -281q-7 -35 -3.5 -66.5t18.5 -55.5t43 -38.5t71 -14.5h22z" />
<glyph unicode="&#x153;" horiz-adv-x="701" d="M632 77q-26 -38 -66.5 -60.5t-94.5 -22.5q-32 0 -55 8t-38.5 21.5t-25 31t-13.5 36.5q-25 -48 -64 -72.5t-100 -24.5q-43 0 -71 12.5t-44 32.5t-22 45t-6 51q0 29 2.5 59t7.5 57q10 57 27.5 103t41.5 77q26 33 60 50.5t82 17.5q31 0 54.5 -8.5t40 -23t27.5 -34t16 -41.5 q26 47 66 77t99 30q72 0 107 -33t35 -81q0 -80 -58 -125.5t-183 -45.5q-12 0 -33.5 1t-41.5 3q-3 -18 -5 -36.5t-2 -33.5q0 -52 22.5 -83.5t77.5 -31.5q35 0 70 17t55 46zM248 460q-34 0 -62 -15t-47 -43q-12 -18 -23.5 -48t-20.5 -65t-14.5 -71.5t-5.5 -67.5q0 -23 3.5 -44 t14.5 -37.5t31.5 -26.5t53.5 -10q46 0 78.5 23t49.5 65q10 22 18.5 50.5t15 59t10 61t3.5 57.5q0 54 -28 83t-77 29zM553 460q-34 0 -61 -15t-47 -42t-34 -64t-22 -82q18 -2 41 -3.5t37 -1.5q51 0 87 9.5t58.5 26.5t33 40t10.5 50q0 37 -27 59.5t-76 22.5z" />
<glyph unicode="&#x154;" horiz-adv-x="485" d="M352 696q79 0 120 -36.5t41 -107.5q0 -95 -47.5 -153t-129.5 -72l75 -327h-49l-72 322l-159 -1q-15 -81 -30.5 -160.5t-31.5 -160.5h-44l135 696h192zM196 655q-14 -74 -28.5 -147t-28.5 -148h127q38 0 74.5 8.5t65 30.5t46 58t17.5 92q0 54 -34 80t-95 26h-144zM299 728 q-4 5 -8 10.5t-7 11.5l150 107q7 -10 13.5 -19.5t14.5 -19.5q-42 -23 -82 -45.5t-81 -44.5z" />
<glyph unicode="&#x155;" horiz-adv-x="285" d="M319 447q-11 5 -22.5 6t-19.5 1q-58 0 -99 -42.5t-54 -109.5l-59 -302h-42l95 493h43l-16 -79h3q29 48 67.5 66.5t79.5 18.5q24 0 39 -6zM185 571l93 152l44 -18l-112 -145z" />
<glyph unicode="&#x156;" horiz-adv-x="485" d="M352 696q79 0 120 -36.5t41 -107.5q0 -95 -47.5 -153t-129.5 -72l75 -327h-49l-72 322l-159 -1q-15 -81 -30.5 -160.5t-31.5 -160.5h-44l135 696h192zM196 655q-14 -74 -28.5 -147t-28.5 -148h127q38 0 74.5 8.5t65 30.5t46 58t17.5 92q0 54 -34 80t-95 26h-144z M134 -199l41 88h-16l12 61h56l-13 -64l-53 -85h-27z" />
<glyph unicode="&#x157;" horiz-adv-x="285" d="M319 447q-11 5 -22.5 6t-19.5 1q-58 0 -99 -42.5t-54 -109.5l-59 -302h-42l95 493h43l-16 -79h3q29 48 67.5 66.5t79.5 18.5q24 0 39 -6zM-33 -219l41 88h-16l12 61h56l-13 -64l-53 -85h-27z" />
<glyph unicode="&#x158;" horiz-adv-x="485" d="M352 696q79 0 120 -36.5t41 -107.5q0 -95 -47.5 -153t-129.5 -72l75 -327h-49l-72 322l-159 -1q-15 -81 -30.5 -160.5t-31.5 -160.5h-44l135 696h192zM196 655q-14 -74 -28.5 -147t-28.5 -148h127q38 0 74.5 8.5t65 30.5t46 58t17.5 92q0 54 -34 80t-95 26h-144zM327 777 l139 80l15 -19l-142 -105h-34l-100 106l21 18z" />
<glyph unicode="&#x159;" horiz-adv-x="285" d="M319 447q-11 5 -22.5 6t-19.5 1q-58 0 -99 -42.5t-54 -109.5l-59 -302h-42l95 493h43l-16 -79h3q29 48 67.5 66.5t79.5 18.5q24 0 39 -6zM341 696l16 -19l-142 -123h-35l-98 123l23 19l98 -97z" />
<glyph unicode="&#x15a;" horiz-adv-x="457" d="M315 702q67 0 107 -24.5t59 -64.5l-41 -25q-14 34 -46.5 52.5t-80.5 18.5q-39 0 -69 -13.5t-49.5 -36t-29.5 -51t-10 -59.5q0 -27 8.5 -45.5t24.5 -32.5t40 -24.5t55 -21.5q35 -12 62 -26t46 -32.5t28.5 -43.5t9.5 -60q0 -100 -58.5 -159.5t-167.5 -59.5q-73 0 -118.5 30 t-61.5 81l41 22q12 -42 48 -66.5t97 -24.5q44 0 76.5 14t53.5 37t31.5 53.5t10.5 63.5q0 31 -8.5 52t-24.5 35t-38.5 24t-50.5 19q-41 14 -70 29t-47.5 33.5t-27 42t-8.5 54.5q0 45 14 83.5t41 66t65.5 43.5t88.5 16zM304 727q-3 6 -7 11.5t-8 10.5l151 108l27 -39 q-41 -23 -81 -45.5t-82 -45.5z" />
<glyph unicode="&#x15b;" horiz-adv-x="387" d="M241 499q54 0 88.5 -21t50.5 -60l-40 -20q-23 60 -104 60q-55 0 -88.5 -30t-33.5 -72q0 -19 7.5 -31.5t21.5 -22t33.5 -16t44.5 -13.5q27 -7 49.5 -16t38.5 -23t25 -33.5t9 -47.5q0 -70 -45.5 -115t-137.5 -45q-59 0 -97.5 23t-52.5 67l37 20q14 -35 42 -52.5t76 -17.5 q26 0 50 7t42 21.5t29 35.5t11 50q0 22 -8 36.5t-22.5 24.5t-34 16t-41.5 12q-58 16 -90.5 41t-32.5 72q0 69 48 109.5t125 40.5zM228 571l93 152l44 -18l-112 -145z" />
<glyph unicode="&#x15c;" horiz-adv-x="457" d="M315 702q67 0 107 -24.5t59 -64.5l-41 -25q-14 34 -46.5 52.5t-80.5 18.5q-39 0 -69 -13.5t-49.5 -36t-29.5 -51t-10 -59.5q0 -27 8.5 -45.5t24.5 -32.5t40 -24.5t55 -21.5q35 -12 62 -26t46 -32.5t28.5 -43.5t9.5 -60q0 -100 -58.5 -159.5t-167.5 -59.5q-73 0 -118.5 30 t-61.5 81l41 22q12 -42 48 -66.5t97 -24.5q44 0 76.5 14t53.5 37t31.5 53.5t10.5 63.5q0 31 -8.5 52t-24.5 35t-38.5 24t-50.5 19q-41 14 -70 29t-47.5 33.5t-27 42t-8.5 54.5q0 45 14 83.5t41 66t65.5 43.5t88.5 16zM348 813l-139 -81l-15 19l143 106h34l99 -105l-20 -18z " />
<glyph unicode="&#x15d;" horiz-adv-x="387" d="M241 499q54 0 88.5 -21t50.5 -60l-40 -20q-23 60 -104 60q-55 0 -88.5 -30t-33.5 -72q0 -19 7.5 -31.5t21.5 -22t33.5 -16t44.5 -13.5q27 -7 49.5 -16t38.5 -23t25 -33.5t9 -47.5q0 -70 -45.5 -115t-137.5 -45q-59 0 -97.5 23t-52.5 67l37 20q14 -35 42 -52.5t76 -17.5 q26 0 50 7t42 21.5t29 35.5t11 50q0 22 -8 36.5t-22.5 24.5t-34 16t-41.5 12q-58 16 -90.5 41t-32.5 72q0 69 48 109.5t125 40.5zM275 659l-140 -98l-17 18l146 123h35l94 -122l-22 -18z" />
<glyph unicode="&#x15e;" horiz-adv-x="457" d="M315 702q67 0 107 -24.5t59 -64.5l-41 -25q-14 34 -46.5 52.5t-80.5 18.5q-39 0 -69 -13.5t-49.5 -36t-29.5 -51t-10 -59.5q0 -27 8.5 -45.5t24.5 -32.5t40 -24.5t55 -21.5q35 -12 62 -26t46 -32.5t28.5 -43.5t9.5 -60q0 -100 -57.5 -159t-165.5 -60q-5 -10 -10 -21.5 t-12 -25.5q22 -2 36.5 -9t23 -16t12 -19.5t3.5 -20.5q0 -14 -6 -28t-18.5 -26t-32 -19.5t-47.5 -7.5q-14 0 -31.5 3t-36.5 11l12 27q17 -8 32.5 -10t28.5 -2q22 0 41.5 11.5t19.5 37.5q0 22 -18.5 32.5t-41.5 8.5l-13 12l30 63q-63 5 -102 34.5t-53 75.5l41 22 q12 -42 48 -66.5t97 -24.5q44 0 76.5 14t53.5 37t31.5 53.5t10.5 63.5q0 31 -8.5 52t-24.5 35t-38.5 24t-50.5 19q-41 14 -70 29t-47.5 33.5t-27 42t-8.5 54.5q0 45 14 83.5t41 66t65.5 43.5t88.5 16z" />
<glyph unicode="&#x15f;" horiz-adv-x="387" d="M241 499q54 0 88.5 -21t50.5 -60l-40 -20q-23 60 -104 60q-55 0 -88.5 -30t-33.5 -72q0 -19 7.5 -31.5t21.5 -22t33.5 -16t44.5 -13.5q27 -7 49.5 -16t38.5 -23t25 -33.5t9 -47.5q0 -69 -44 -113.5t-133 -46.5q-5 -10 -9.5 -21t-11.5 -25q22 -2 36.5 -9t23 -16t12 -19.5 t3.5 -20.5q0 -14 -6 -28t-18.5 -26t-32 -19.5t-47.5 -7.5q-14 0 -31.5 3t-36.5 11l12 27q17 -8 32.5 -10t28.5 -2q22 0 41.5 11.5t19.5 37.5q0 22 -18.5 32.5t-41.5 8.5l-13 12q8 16 14.5 31.5t14.5 30.5q-50 5 -82.5 27t-45.5 62l37 20q14 -35 42 -52.5t76 -17.5q26 0 50 7 t42 21.5t29 35.5t11 50q0 22 -8 36.5t-22.5 24.5t-34 16t-41.5 12q-58 16 -90.5 41t-32.5 72q0 69 48 109.5t125 40.5z" />
<glyph unicode="&#x160;" horiz-adv-x="457" d="M315 702q67 0 107 -24.5t59 -64.5l-41 -25q-14 34 -46.5 52.5t-80.5 18.5q-39 0 -69 -13.5t-49.5 -36t-29.5 -51t-10 -59.5q0 -27 8.5 -45.5t24.5 -32.5t40 -24.5t55 -21.5q35 -12 62 -26t46 -32.5t28.5 -43.5t9.5 -60q0 -100 -58.5 -159.5t-167.5 -59.5q-73 0 -118.5 30 t-61.5 81l41 22q12 -42 48 -66.5t97 -24.5q44 0 76.5 14t53.5 37t31.5 53.5t10.5 63.5q0 31 -8.5 52t-24.5 35t-38.5 24t-50.5 19q-41 14 -70 29t-47.5 33.5t-27 42t-8.5 54.5q0 45 14 83.5t41 66t65.5 43.5t88.5 16zM331 777l139 80l15 -19l-142 -105h-34l-100 106l21 18z " />
<glyph unicode="&#x161;" horiz-adv-x="387" d="M241 499q54 0 88.5 -21t50.5 -60l-40 -20q-23 60 -104 60q-55 0 -88.5 -30t-33.5 -72q0 -19 7.5 -31.5t21.5 -22t33.5 -16t44.5 -13.5q27 -7 49.5 -16t38.5 -23t25 -33.5t9 -47.5q0 -70 -45.5 -115t-137.5 -45q-59 0 -97.5 23t-52.5 67l37 20q14 -35 42 -52.5t76 -17.5 q26 0 50 7t42 21.5t29 35.5t11 50q0 22 -8 36.5t-22.5 24.5t-34 16t-41.5 12q-58 16 -90.5 41t-32.5 72q0 69 48 109.5t125 40.5zM399 696l16 -19l-142 -123h-35l-98 123l23 19l98 -97z" />
<glyph unicode="&#x162;" horiz-adv-x="394" d="M307 655l-128 -655h-44l128 655h-170l8 41h382l-9 -41h-167zM77 -219l41 88h-16l12 61h56l-13 -64l-53 -85h-27z" />
<glyph unicode="&#x163;" horiz-adv-x="238" d="M67 456q2 9 3.5 18t3.5 17h61l26 135h44l-27 -135h84q-2 -8 -3.5 -17t-3.5 -18h-84l-65 -339q-3 -17 -3.5 -31t5 -24.5t18.5 -16.5t36 -6h30l-7 -39h-38q-29 0 -47.5 8.5t-28.5 23t-12 34t2 41.5l67 349h-61zM5 -219l41 88h-16l12 61h56l-13 -64l-53 -85h-27z" />
<glyph unicode="&#x164;" horiz-adv-x="394" d="M307 655l-128 -655h-44l128 655h-170l8 41h382l-9 -41h-167zM305 777l139 80l15 -19l-142 -105h-34l-100 106l21 18z" />
<glyph unicode="&#x165;" horiz-adv-x="266" d="M67 456q2 9 3.5 18t3.5 17h61l26 135h44l-27 -135h84q-2 -8 -3.5 -17t-3.5 -18h-84l-65 -339q-3 -17 -3.5 -31t5 -24.5t18.5 -16.5t36 -6h30l-7 -39h-38q-29 0 -47.5 8.5t-28.5 23t-12 34t2 41.5l67 349h-61zM247 560l41 88h-16l12 61h56l-13 -64l-53 -85h-27z" />
<glyph unicode="&#x166;" horiz-adv-x="394" d="M307 655l-50 -257h135l-7 -34h-135l-71 -364h-44l71 364h-126l7 34h125l51 257h-170l8 41h382l-9 -41h-167z" />
<glyph unicode="&#x167;" horiz-adv-x="238" d="M67 456q2 9 3.5 18t3.5 17h61l26 135h44l-27 -135h84q-2 -8 -3.5 -17t-3.5 -18h-84l-20 -102h81l-7 -34h-80l-39 -203q-3 -17 -3.5 -31t5 -24.5t18.5 -16.5t36 -6h30l-7 -39h-38q-29 0 -47.5 8.5t-28.5 23t-12 34t2 41.5l41 213h-63l7 34h62l20 102h-61v0z" />
<glyph unicode="&#x168;" horiz-adv-x="494" d="M537 696q-3 -13 -10 -51t-17 -89t-21 -108t-20.5 -108t-17 -89t-9.5 -50q-9 -44 -26 -82t-44.5 -66t-65.5 -43.5t-89 -15.5q-50 0 -85.5 15.5t-56 43.5t-27 65.5t1.5 82.5l97 495h44q-2 -10 -9 -47t-17 -88t-21.5 -109.5t-21.5 -109.5t-17.5 -89t-9.5 -49 q-7 -34 -4 -64.5t17.5 -53t42 -36t69.5 -13.5t73 14t52 37.5t33.5 54.5t19.5 65l94 488h45zM292 825q16 0 30.5 -6t29 -13.5t28.5 -13.5t30 -6q15 0 29 8.5t30 28.5l25 -15q-17 -33 -42 -47t-47 -14q-17 0 -32 6t-29 13.5t-28 13.5t-28 6q-15 0 -28.5 -8.5t-29.5 -25.5 l-25 18q38 55 87 55z" />
<glyph unicode="&#x169;" horiz-adv-x="435" d="M306 70q-29 -41 -68 -58.5t-76 -17.5q-36 0 -61 12t-40 32.5t-19 48.5t2 60l66 345h43l-64 -337q-5 -24 -3.5 -46t11.5 -38.5t29.5 -26t51.5 -9.5q28 0 53 11t45 30t33.5 44t19.5 53l61 319h43l-96 -492h-43l15 70h-3zM238 664q16 0 30.5 -6t29 -13.5t28.5 -13.5t30 -6 q15 0 29 8.5t30 28.5l25 -15q-17 -33 -42 -47t-47 -14q-17 0 -32 6t-29 13.5t-28 13.5t-28 6q-15 0 -28.5 -8.5t-29.5 -25.5l-25 18q38 55 87 55z" />
<glyph unicode="&#x16a;" horiz-adv-x="494" d="M537 696q-3 -13 -10 -51t-17 -89t-21 -108t-20.5 -108t-17 -89t-9.5 -50q-9 -44 -26 -82t-44.5 -66t-65.5 -43.5t-89 -15.5q-50 0 -85.5 15.5t-56 43.5t-27 65.5t1.5 82.5l97 495h44q-2 -10 -9 -47t-17 -88t-21.5 -109.5t-21.5 -109.5t-17.5 -89t-9.5 -49 q-7 -34 -4 -64.5t17.5 -53t42 -36t69.5 -13.5t73 14t52 37.5t33.5 54.5t19.5 65l94 488h45zM232 758l8 40h231l-8 -40h-231z" />
<glyph unicode="&#x16b;" horiz-adv-x="435" d="M306 70q-29 -41 -68 -58.5t-76 -17.5q-36 0 -61 12t-40 32.5t-19 48.5t2 60l66 345h43l-64 -337q-5 -24 -3.5 -46t11.5 -38.5t29.5 -26t51.5 -9.5q28 0 53 11t45 30t33.5 44t19.5 53l61 319h43l-96 -492h-43l15 70h-3zM172 598l8 40h232l-9 -40h-231z" />
<glyph unicode="&#x16c;" horiz-adv-x="494" d="M537 696q-3 -13 -10 -51t-17 -89t-21 -108t-20.5 -108t-17 -89t-9.5 -50q-9 -44 -26 -82t-44.5 -66t-65.5 -43.5t-89 -15.5q-50 0 -85.5 15.5t-56 43.5t-27 65.5t1.5 82.5l97 495h44q-2 -10 -9 -47t-17 -88t-21.5 -109.5t-21.5 -109.5t-17.5 -89t-9.5 -49 q-7 -34 -4 -64.5t17.5 -53t42 -36t69.5 -13.5t73 14t52 37.5t33.5 54.5t19.5 65l94 488h45zM349 765q35 0 62.5 21t39.5 54h38q-6 -20 -17.5 -40t-29.5 -36t-42 -25.5t-55 -9.5q-30 0 -50 9.5t-32.5 25t-17.5 35.5t-3 41h36q0 -30 18.5 -52.5t52.5 -22.5z" />
<glyph unicode="&#x16d;" horiz-adv-x="435" d="M306 70q-29 -41 -68 -58.5t-76 -17.5q-36 0 -61 12t-40 32.5t-19 48.5t2 60l66 345h43l-64 -337q-5 -24 -3.5 -46t11.5 -38.5t29.5 -26t51.5 -9.5q28 0 53 11t45 30t33.5 44t19.5 53l61 319h43l-96 -492h-43l15 70h-3zM220 684q-2 -31 19 -53.5t53 -22.5t60.5 21.5 t39.5 54.5h39q-6 -20 -17.5 -40.5t-29 -36.5t-41 -26t-53.5 -10t-51.5 10t-34.5 26t-18 36t-3 41h37z" />
<glyph unicode="&#x16e;" horiz-adv-x="494" d="M537 696q-3 -13 -10 -51t-17 -89t-21 -108t-20.5 -108t-17 -89t-9.5 -50q-9 -44 -26 -82t-44.5 -66t-65.5 -43.5t-89 -15.5q-50 0 -85.5 15.5t-56 43.5t-27 65.5t1.5 82.5l97 495h44q-2 -10 -9 -47t-17 -88t-21.5 -109.5t-21.5 -109.5t-17.5 -89t-9.5 -49 q-7 -34 -4 -64.5t17.5 -53t42 -36t69.5 -13.5t73 14t52 37.5t33.5 54.5t19.5 65l94 488h45zM334 714q-31 0 -50.5 20t-19.5 50q0 21 8.5 39t22.5 32t32.5 22t38.5 8q32 0 52.5 -19.5t20.5 -49.5q0 -21 -9 -40t-23.5 -32.5t-33.5 -21.5t-39 -8zM361 858q-26 0 -47.5 -20.5 t-21.5 -48.5q0 -21 13 -34.5t34 -13.5q28 0 49.5 20.5t21.5 49.5q0 20 -13.5 33.5t-35.5 13.5z" />
<glyph unicode="&#x16f;" horiz-adv-x="435" d="M306 70q-29 -41 -68 -58.5t-76 -17.5q-36 0 -61 12t-40 32.5t-19 48.5t2 60l66 345h43l-64 -337q-5 -24 -3.5 -46t11.5 -38.5t29.5 -26t51.5 -9.5q28 0 53 11t45 30t33.5 44t19.5 53l61 319h43l-96 -492h-43l15 70h-3zM279 552q-31 0 -50.5 20t-19.5 50q0 21 8.5 39 t22.5 32t32.5 22t38.5 8q32 0 52.5 -19.5t20.5 -49.5q0 -21 -9 -40t-23.5 -32.5t-33.5 -21.5t-39 -8zM306 696q-26 0 -47.5 -20.5t-21.5 -48.5q0 -21 13 -34.5t34 -13.5q28 0 49.5 20.5t21.5 49.5q0 20 -13.5 33.5t-35.5 13.5z" />
<glyph unicode="&#x170;" horiz-adv-x="494" d="M537 696q-3 -13 -10 -51t-17 -89t-21 -108t-20.5 -108t-17 -89t-9.5 -50q-9 -44 -26 -82t-44.5 -66t-65.5 -43.5t-89 -15.5q-50 0 -85.5 15.5t-56 43.5t-27 65.5t1.5 82.5l97 495h44q-2 -10 -9 -47t-17 -88t-21.5 -109.5t-21.5 -109.5t-17.5 -89t-9.5 -49 q-7 -34 -4 -64.5t17.5 -53t42 -36t69.5 -13.5t73 14t52 37.5t33.5 54.5t19.5 65l94 488h45zM255 750l145 107l29 -38l-159 -91zM377 750l149 107l27 -38l-162 -91z" />
<glyph unicode="&#x171;" horiz-adv-x="435" d="M306 70q-29 -41 -68 -58.5t-76 -17.5q-36 0 -61 12t-40 32.5t-19 48.5t2 60l66 345h43l-64 -337q-5 -24 -3.5 -46t11.5 -38.5t29.5 -26t51.5 -9.5q28 0 53 11t45 30t33.5 44t19.5 53l61 319h43l-96 -492h-43l15 70h-3zM220 571l93 152l45 -18l-114 -145zM314 571l94 152 l44 -18l-113 -145z" />
<glyph unicode="&#x172;" horiz-adv-x="494" d="M205 -172q-32 0 -48.5 18.5t-16.5 45.5q0 18 11.5 45.5t40.5 57.5q-44 4 -74 21t-48 44t-23 63t3 78l97 495h44q-2 -10 -9 -47t-17 -88t-21.5 -109.5t-21.5 -109.5t-17.5 -89t-9.5 -49q-7 -34 -4 -64.5t17.5 -53t42 -36t69.5 -13.5t73 14t52 37.5t33.5 54.5t19.5 65 l94 488h45q-3 -13 -10 -51t-17 -89t-21 -108t-20.5 -108t-17 -89t-9.5 -50q-9 -44 -25.5 -81t-43 -64.5t-63 -44t-84.5 -17.5q-24 -26 -35 -50t-11 -43q0 -37 41 -37q22 0 55 18l7 -32q-16 -9 -37 -15.5t-41 -6.5z" />
<glyph unicode="&#x173;" horiz-adv-x="435" d="M299 -174q-32 0 -48.5 18.5t-16.5 45.5q0 20 12.5 49.5t47.5 61.5l15 69h-3q-29 -41 -68 -58.5t-76 -17.5q-36 0 -61 12t-40 32.5t-19 48.5t2 60l66 345h43l-64 -337q-5 -24 -3.5 -46t11.5 -38.5t29.5 -26t51.5 -9.5q28 0 53 11t45 30t33.5 44t19.5 53l61 319h43 l-96 -492h-9q-28 -28 -41 -54.5t-13 -46.5q0 -37 41 -37q22 0 55 18l7 -32q-16 -9 -37 -15.5t-41 -6.5z" />
<glyph unicode="&#x174;" horiz-adv-x="687" d="M420 606l-107 -256l-148 -350h-48l-6 696h43q0 -78 0.5 -155.5t0.5 -155.5v-153t-1 -153h2l137 325q31 73 62 145.5t61 146.5h42q1 -14 2 -45t2 -73t2.5 -91.5t3.5 -101t3.5 -101t2.5 -91t2 -72t2 -43.5h2q24 64 49 128l50 128l141 362h46l-277 -696h-47 q-2 80 -4.5 159.5t-5.5 159.5q-2 72 -4.5 143.5t-5.5 143.5h-2zM463 813l-139 -81l-15 19l143 106h34l99 -105l-20 -18z" />
<glyph unicode="&#x175;" horiz-adv-x="607" d="M333 432q-42 -115 -92 -221t-110 -211h-45l-38 492h44l21 -306q2 -30 3.5 -62t0.5 -67h2q51 94 101.5 204.5t97.5 230.5h50l25 -301q3 -31 5 -62.5t2 -67.5h2q55 97 104 205.5t89 225.5h45q-23 -68 -48.5 -130.5t-53.5 -122.5t-59.5 -119t-67.5 -120h-45l-26 312 q-2 23 -3.5 53t-0.5 67h-3zM380 659l-140 -98l-17 18l146 123h35l94 -122l-22 -18z" />
<glyph unicode="&#x176;" horiz-adv-x="408" d="M228 341q21 35 42.5 70.5t43.5 70.5l130 214h48l-252 -405l-56 -291h-43l56 291q-23 102 -47 202.5t-48 202.5h43q14 -57 25.5 -114.5t25.5 -114.5q7 -30 14.5 -62.5t15.5 -63.5h2zM323 813l-139 -81l-15 19l143 106h34l99 -105l-20 -18z" />
<glyph unicode="&#x177;" horiz-adv-x="360" d="M140 19q27 46 55 104t55 120.5t52.5 126t46.5 121.5h43q-66 -176 -128.5 -311t-126.5 -240q-16 -27 -35.5 -51.5t-43 -42.5t-52 -29t-61.5 -11v37q35 3 66.5 16.5t58.5 51.5q12 16 20.5 30t19.5 37l-64 513h43q5 -52 11 -103.5t12 -103.5q4 -32 7.5 -66t6.5 -68 q3 -29 7.5 -67t4.5 -64h2zM249 659l-140 -98l-17 18l146 123h35l94 -122l-22 -18z" />
<glyph unicode="&#x178;" horiz-adv-x="408" d="M228 341q21 35 42.5 70.5t43.5 70.5l130 214h48l-252 -405l-56 -291h-43l56 291q-23 102 -47 202.5t-48 202.5h43q14 -57 25.5 -114.5t25.5 -114.5q7 -30 14.5 -62.5t15.5 -63.5h2zM205 747l9 51h48l-9 -51h-48zM367 747l10 51h48l-10 -51h-48z" />
<glyph unicode="&#x179;" horiz-adv-x="391" d="M271 750l150 107l28 -38l-163 -91zM-18 0l8 41l416 614h-279l8 41h328l-8 -40l-417 -615h292l-8 -41h-340z" />
<glyph unicode="&#x17a;" horiz-adv-x="353" d="M-17 0l7 38l329 416h-231l7 38h281l-7 -37l-328 -416h245l-8 -39h-295zM221 571l93 152l44 -18l-112 -145z" />
<glyph unicode="&#x17b;" horiz-adv-x="391" d="M-18 0l8 41l416 614h-279l8 41h328l-8 -40l-417 -615h292l-8 -41h-340zM280 755l10 51h48l-10 -51h-48z" />
<glyph unicode="&#x17c;" horiz-adv-x="353" d="M-17 0l7 38l329 416h-231l7 38h281l-7 -37l-328 -416h245l-8 -39h-295zM230 595l10 51h48l-10 -51h-48z" />
<glyph unicode="&#x17d;" horiz-adv-x="391" d="M-18 0l8 41l416 614h-279l8 41h328l-8 -40l-417 -615h292l-8 -41h-340zM317 777l139 80l15 -19l-142 -105h-34l-100 106l21 18z" />
<glyph unicode="&#x17e;" horiz-adv-x="353" d="M-17 0l7 38l329 416h-231l7 38h281l-7 -37l-328 -416h245l-8 -39h-295zM388 696l16 -19l-142 -123h-35l-98 123l23 19l98 -97z" />
<glyph unicode="&#x192;" horiz-adv-x="410" d="M135 408h89l26 119q8 38 21 70t32.5 55t46.5 36t63 13q15 0 30.5 -2.5t28.5 -6.5l-13 -40q-12 4 -25.5 6.5t-25.5 2.5q-39 0 -69.5 -30.5t-46.5 -104.5l-25 -118h102l-4 -39h-106l-60 -274q-20 -91 -57 -139.5t-106 -48.5q-14 0 -30.5 2.5t-30.5 7.5q0 1 2.5 6.5t5 12 t4.5 11.5t3 7q24 -8 46 -8q44 0 72.5 33t46.5 114l61 276h-85z" />
<glyph unicode="&#x1a0;" horiz-adv-x="504" d="M439 204q-8 -43 -24 -81.5t-42.5 -67t-64 -45.5t-89.5 -17q-53 0 -90 18t-58 48t-27 70t2 84l56 280q8 40 23 78t41 66.5t64 46t92 17.5q51 0 86.5 -17.5t57.5 -46.5q34 2 52 27t26 70l7 36h39l-6 -32q-11 -57 -32 -92t-67 -44q18 -47 7 -107zM448 493q6 31 2 61t-20 53 t-44.5 37.5t-70.5 14.5q-41 0 -70 -14.5t-49 -38t-32 -54t-18 -61.5l-55 -281q-7 -35 -3.5 -66.5t18.5 -55.5t43 -38.5t71 -14.5q42 0 72 14t50 37.5t32.5 53.5t18.5 62z" />
<glyph unicode="&#x1a1;" horiz-adv-x="441" d="M253 499q43 0 71.5 -15.5t45.5 -41.5q36 1 55 26.5t28 70.5l7 36h38l-5 -32q-11 -59 -34 -94t-72 -43q9 -29 9 -62q-1 -31 -6 -65.5t-12 -66.5q-11 -53 -27 -94t-39.5 -68.5t-57 -41.5t-79.5 -14q-43 0 -71 12.5t-44 32.5t-22 45t-6 51q0 29 2.5 59t7.5 57 q10 57 27.5 103t41.5 77q26 33 60 50.5t82 17.5zM248 460q-34 0 -62 -15t-47 -43q-12 -18 -23.5 -48t-20.5 -65t-14.5 -71.5t-5.5 -67.5q0 -23 3.5 -44t14.5 -37.5t31.5 -26.5t53.5 -10q46 0 78.5 23t49.5 65q10 22 18.5 50.5t15 59t10 61t3.5 57.5q0 54 -28 83t-77 29z" />
<glyph unicode="&#x1af;" horiz-adv-x="536" d="M537 696l-12 -59q3 0 9 2q32 5 48.5 29t24.5 67l7 36h39l-6 -32q-6 -32 -15.5 -57.5t-24.5 -43.5t-36.5 -27.5t-52.5 -10.5q-7 -34 -14.5 -74t-15.5 -81t-15.5 -81t-14 -73t-11 -57t-5.5 -33q-9 -44 -26 -82t-44.5 -66t-65.5 -43.5t-89 -15.5q-50 0 -85.5 15.5t-56 43.5 t-27 65.5t1.5 82.5l97 495h44q-2 -10 -9 -47t-17 -88t-21.5 -109.5t-21.5 -109.5t-17.5 -89t-9.5 -49q-7 -34 -4 -64.5t17.5 -53t42 -36t69.5 -13.5t73 14t52 37.5t33.5 54.5t19.5 65l94 488h45z" />
<glyph unicode="&#x1b0;" horiz-adv-x="477" d="M306 70q-29 -41 -68 -58.5t-76 -17.5q-36 0 -61 12t-40 32.5t-19 48.5t2 60l66 345h43l-64 -337q-5 -24 -3.5 -46t11.5 -38.5t29.5 -26t51.5 -9.5q28 0 53 11t45 30t33.5 44t19.5 53l61 319h43l-10 -49q35 2 54 27t27 70l7 36h39l-6 -32q-13 -65 -40 -101.5t-88 -37.5 q-20 -102 -39.5 -203t-39.5 -202h-43l15 70h-3z" />
<glyph unicode="&#x1fc;" horiz-adv-x="772" d="M370 0q7 46 13 93t13 94h-243l-124 -187h-47q115 175 229.5 348t229.5 348h379l-6 -42h-308l-39 -279h266q-2 -11 -3 -20.5t-2 -19.5h-267q-10 -74 -20 -147t-21 -146h308l-5 -42h-353zM180 228h221l61 425h-1zM555 749l151 108l27 -39q-41 -23 -81 -45.5t-82 -45.5z" />
<glyph unicode="&#x1fd;" horiz-adv-x="689" d="M540 499q72 0 107.5 -33t35.5 -84q0 -80 -60.5 -123.5t-169.5 -43.5q-17 0 -39 1.5t-47 4.5q-4 -20 -6.5 -40.5t-2.5 -35.5q0 -55 23.5 -84t77.5 -29q39 0 72 17.5t53 46.5q8 -5 16.5 -9.5t16.5 -9.5q-57 -83 -163 -83q-53 0 -88 26.5t-43 71.5h-1q-32 -53 -76.5 -75.5 t-101.5 -22.5q-61 0 -96 29t-35 80q0 43 14.5 75.5t40.5 55t62 34t80 11.5q29 0 59 -4.5t61 -8.5l15 79q14 48 -13 80.5t-87 32.5q-32 0 -63 -11t-56 -43l-31 24q29 38 71 54t84 16q47 0 86 -22.5t47 -69.5q12 19 28 36.5t35.5 30t43 20t50.5 6.5zM154 33q65 0 105 37.5 t51 94.5l12 64q-30 5 -58.5 9t-56.5 4q-30 0 -57.5 -8t-48.5 -24t-33 -40.5t-12 -58.5q0 -35 22.5 -56.5t75.5 -21.5zM536 459q-35 0 -62 -14.5t-46.5 -41t-32.5 -63t-21 -81.5q20 -2 41.5 -4t38.5 -2q88 0 136 32t48 92q0 38 -26.5 60t-75.5 22zM404 571l93 152l44 -18 l-112 -145z" />
<glyph unicode="&#x1fe;" horiz-adv-x="485" d="M439 204q-8 -43 -24 -81.5t-42.5 -67t-64 -45.5t-89.5 -17q-54 0 -91 18t-58 49l-49 -67l-21 14l56 77q-12 27 -14.5 60t4.5 69l56 280q8 40 23 78t41 66.5t64 46t92 17.5q49 0 84.5 -16.5t57.5 -45.5l48 65l23 -15l-55 -75q24 -52 12 -119zM448 493q4 20 4 39.5t-5 36.5 l-347 -470q14 -29 43 -46.5t77 -17.5q42 0 72 14t50 37.5t32.5 53.5t18.5 62zM91 210q-9 -42 -1 -81l345 470q-15 26 -44.5 43t-75.5 17q-41 0 -70 -14.5t-49 -38t-32 -54t-18 -61.5zM306 750l150 107l28 -38l-163 -91z" />
<glyph unicode="&#x1ff;" horiz-adv-x="416" d="M253 499q41 0 68.5 -14t44.5 -37l45 53l21 -16l-52 -61q8 -18 12 -38.5t4 -41.5q-1 -31 -6 -65.5t-12 -66.5q-11 -53 -27 -94t-39.5 -68.5t-57 -41.5t-79.5 -14q-45 0 -72.5 13t-43.5 33l-38 -45l-19 16l43 52q-8 17 -10.5 35t-2.5 37q0 29 2.5 59t7.5 57q10 57 27.5 103 t41.5 77q26 33 60 50.5t82 17.5zM353 348q0 11 -1.5 20t-3.5 18l-260 -310q11 -20 31.5 -32t58.5 -12q46 0 78.5 23t49.5 65q10 22 18.5 50.5t15 59t10 61t3.5 57.5zM248 460q-34 0 -62 -15t-47 -43q-12 -18 -23.5 -48t-20.5 -65t-14.5 -71.5t-5.5 -67.5q0 -12 1 -24t3 -23 l258 310q-27 47 -89 47zM249 571l93 152l44 -18l-112 -145z" />
<glyph unicode="&#x218;" horiz-adv-x="457" d="M315 702q67 0 107 -24.5t59 -64.5l-41 -25q-14 34 -46.5 52.5t-80.5 18.5q-39 0 -69 -13.5t-49.5 -36t-29.5 -51t-10 -59.5q0 -27 8.5 -45.5t24.5 -32.5t40 -24.5t55 -21.5q35 -12 62 -26t46 -32.5t28.5 -43.5t9.5 -60q0 -100 -58.5 -159.5t-167.5 -59.5q-73 0 -118.5 30 t-61.5 81l41 22q12 -42 48 -66.5t97 -24.5q44 0 76.5 14t53.5 37t31.5 53.5t10.5 63.5q0 31 -8.5 52t-24.5 35t-38.5 24t-50.5 19q-41 14 -70 29t-47.5 33.5t-27 42t-8.5 54.5q0 45 14 83.5t41 66t65.5 43.5t88.5 16zM117 -219l41 88h-16l12 61h56l-13 -64l-53 -85h-27z" />
<glyph unicode="&#x219;" horiz-adv-x="387" d="M241 499q54 0 88.5 -21t50.5 -60l-40 -20q-23 60 -104 60q-55 0 -88.5 -30t-33.5 -72q0 -19 7.5 -31.5t21.5 -22t33.5 -16t44.5 -13.5q27 -7 49.5 -16t38.5 -23t25 -33.5t9 -47.5q0 -70 -45.5 -115t-137.5 -45q-59 0 -97.5 23t-52.5 67l37 20q14 -35 42 -52.5t76 -17.5 q26 0 50 7t42 21.5t29 35.5t11 50q0 22 -8 36.5t-22.5 24.5t-34 16t-41.5 12q-58 16 -90.5 41t-32.5 72q0 69 48 109.5t125 40.5zM77 -219l41 88h-16l12 61h56l-13 -64l-53 -85h-27z" />
<glyph unicode="&#x259;" horiz-adv-x="406" d="M166 -6q-72 0 -105.5 31.5t-33.5 83.5q0 79 60 125t179 46q12 0 34 -1.5t42 -3.5q8 40 8 73q0 51 -22.5 81.5t-76.5 30.5q-35 0 -69.5 -17.5t-55.5 -46.5l-32 20q24 40 65.5 62t94.5 22q38 0 64 -11t42.5 -31.5t24 -48.5t7.5 -61q-2 -59 -13.5 -121.5t-38 -114t-69 -85 t-105.5 -33.5zM168 33q35 0 62.5 15t48.5 42t35 64t22 81q-18 3 -42 4.5t-38 1.5q-96 0 -140.5 -35.5t-44.5 -90.5q0 -36 24.5 -59t72.5 -23z" />
<glyph unicode="&#x2b9;" horiz-adv-x="190" d="M277 671l-166 -248l-32 8l139 255z" />
<glyph unicode="&#x2c6;" horiz-adv-x="414" d="M308 659l-140 -98l-17 18l146 123h35l94 -122l-22 -18z" />
<glyph unicode="&#x2c7;" horiz-adv-x="414" d="M414 696l16 -19l-142 -123h-35l-98 123l23 19l98 -97z" />
<glyph unicode="&#x2d8;" horiz-adv-x="427" d="M215 684q-2 -31 19 -53.5t53 -22.5t60.5 21.5t39.5 54.5h39q-6 -20 -17.5 -40.5t-29 -36.5t-41 -26t-53.5 -10t-51.5 10t-34.5 26t-18 36t-3 41h37z" />
<glyph unicode="&#x2d9;" horiz-adv-x="405" d="M257 595l10 51h48l-10 -51h-48z" />
<glyph unicode="&#x2da;" horiz-adv-x="414" d="M291 552q-31 0 -50.5 20t-19.5 50q0 21 8.5 39t22.5 32t32.5 22t38.5 8q32 0 52.5 -19.5t20.5 -49.5q0 -21 -9 -40t-23.5 -32.5t-33.5 -21.5t-39 -8zM318 696q-26 0 -47.5 -20.5t-21.5 -48.5q0 -21 13 -34.5t34 -13.5q28 0 49.5 20.5t21.5 49.5q0 20 -13.5 33.5 t-35.5 13.5z" />
<glyph unicode="&#x2db;" horiz-adv-x="380" d="M223 -174q-32 0 -48.5 18.5t-16.5 45.5q0 20 13.5 50t48.5 63l31 -1l1 -2q-28 -28 -41 -54.5t-13 -46.5q0 -37 41 -37q22 0 55 18l7 -32q-16 -9 -37 -15.5t-41 -6.5z" />
<glyph unicode="&#x2dc;" horiz-adv-x="422" d="M238 664q16 0 30.5 -6t29 -13.5t28.5 -13.5t30 -6q15 0 29 8.5t30 28.5l25 -15q-17 -33 -42 -47t-47 -14q-17 0 -32 6t-29 13.5t-28 13.5t-28 6q-15 0 -28.5 -8.5t-29.5 -25.5l-25 18q38 55 87 55z" />
<glyph unicode="&#x2dd;" horiz-adv-x="422" d="M307 571l94 152l44 -18l-113 -145zM213 571l93 152l45 -18l-114 -145z" />
<glyph unicode="&#x384;" horiz-adv-x="417" d="M222 571l94 152l44 -18l-113 -145z" />
<glyph unicode="&#x385;" horiz-adv-x="394" d="M306 596l9 51h49l-11 -51h-47zM127 596l10 51h48l-10 -51h-48zM192 571l93 152l44 -18l-112 -145z" />
<glyph unicode="&#x386;" horiz-adv-x="475" d="M363 176h-262q-20 -45 -41 -88t-42 -88h-46q84 175 167 348t168 348h48q17 -175 33.5 -348t33.5 -348h-45zM240 467q-4 -8 -13 -27t-21.5 -44.5t-25.5 -53.5t-25.5 -53.5t-21.5 -45t-13 -27.5h240q-6 61 -11 121.5t-11 121.5q-4 45 -7 91t-8 91h-2zM38 565l94 152l44 -18 l-113 -145z" />
<glyph unicode="&#x387;" horiz-adv-x="155" d="M70 310l11 61h56l-11 -61h-56z" />
<glyph unicode="&#x388;" horiz-adv-x="436" d="M25 0l135 696h349l-9 -41h-304l-54 -280h263l-8 -40h-262l-58 -294h304l-7 -41h-349zM-32 565l94 152l44 -18l-113 -145z" />
<glyph unicode="&#x389;" horiz-adv-x="512" d="M364 0l65 334h-294l-65 -334h-45l136 696h44l-63 -321h295l62 321h45l-136 -696h-44zM-32 565l94 152l44 -18l-113 -145z" />
<glyph unicode="&#x38a;" horiz-adv-x="191" d="M33 0l136 696h44l-135 -696h-45zM-25 565l94 152l44 -18l-113 -145z" />
<glyph unicode="&#x38c;" horiz-adv-x="485" d="M439 204q-8 -43 -24 -81.5t-42.5 -67t-64 -45.5t-89.5 -17q-53 0 -90 18t-58 48t-27 70t2 84l56 280q8 40 23 78t41 66.5t64 46t92 17.5q49 0 84.5 -16.5t57.5 -44.5t29 -65.5t-1 -79.5zM448 493q6 31 2 61t-20 53t-44.5 37.5t-70.5 14.5q-41 0 -70 -14.5t-49 -38 t-32 -54t-18 -61.5l-55 -281q-7 -35 -3.5 -66.5t18.5 -55.5t43 -38.5t71 -14.5q42 0 72 14t50 37.5t32.5 53.5t18.5 62zM-23 565l94 152l44 -18l-113 -145z" />
<glyph unicode="&#x38e;" horiz-adv-x="408" d="M228 341q21 35 42.5 70.5t43.5 70.5l130 214h48l-252 -405l-56 -291h-43l56 291q-23 102 -47 202.5t-48 202.5h43q14 -57 25.5 -114.5t25.5 -114.5q7 -30 14.5 -62.5t15.5 -63.5h2zM-57 565l94 152l44 -18l-113 -145z" />
<glyph unicode="&#x38f;" horiz-adv-x="482" d="M92 42q-36 26 -47 71t0 100l53 280q8 40 23 78t41 66.5t64 46t92 17.5q49 0 85 -16.5t58.5 -44.5t30 -65.5t-0.5 -79.5l-53 -291q-10 -53 -35 -96.5t-66 -65.5l1 -1h81l-7 -41h-150l10 47q22 6 42 22t35.5 37t26.5 46t16 50l55 291q6 31 2 61t-20 53t-44.5 37.5 t-70.5 14.5q-44 0 -73.5 -14.5t-49.5 -38t-31.5 -54t-17.5 -61.5l-52 -281q-5 -26 -4.5 -51t8 -46.5t22.5 -38t38 -25.5l-9 -49h-154l7 41h92zM-24 565l94 152l44 -18l-113 -145z" />
<glyph unicode="&#x390;" horiz-adv-x="185" d="M160 491l-79 -409q-1 -5 -1.5 -9t-0.5 -8q0 -14 7.5 -19.5t24.5 -9.5l-7 -38q-42 1 -56 16t-14 38q0 6 1.5 15.5t6.5 35.5q19 97 37.5 194t38.5 194h42zM118 571l93 152l44 -18l-112 -145zM53 596l10 51h48l-10 -51h-48zM232 596l9 51h49l-11 -51h-47z" />
<glyph unicode="&#x391;" horiz-adv-x="475" d="M363 176h-262q-20 -45 -41 -88t-42 -88h-46q84 175 167 348t168 348h48q17 -175 33.5 -348t33.5 -348h-45zM240 467q-4 -8 -13 -27t-21.5 -44.5t-25.5 -53.5t-25.5 -53.5t-21.5 -45t-13 -27.5h240q-6 61 -11 121.5t-11 121.5q-4 45 -7 91t-8 91h-2z" />
<glyph unicode="&#x392;" horiz-adv-x="491" d="M375 363l-1 -2q42 -9 63 -46t21 -82q-1 -62 -20.5 -106.5t-51.5 -72.5t-73 -41t-86 -13h-203l135 696h186q77 0 118.5 -37.5t41.5 -105.5q0 -65 -31 -117t-99 -73zM134 342l-59 -301h160q44 0 77.5 15.5t56 42t33.5 60t11 69.5q0 53 -28 83.5t-87 30.5h-164zM195 655 q-14 -69 -27 -137t-26 -137h106q14 0 28.5 0.5t28.5 1.5q34 1 63 13.5t49.5 33.5t32 49t11.5 62q0 55 -33 84.5t-96 29.5h-137z" />
<glyph unicode="&#x393;" horiz-adv-x="424" d="M197 654q-1 -4 -6.5 -33t-14 -74.5t-19.5 -102.5t-23 -117t-23 -117t-19.5 -102.5t-14 -74.5t-6.5 -33h-46l135 696h346l-8 -42h-301z" />
<glyph unicode="&#x394;" horiz-adv-x="475" d="M-25 0l336 696h49l66 -696h-451zM323 634l-82 -176q-6 -13 -21.5 -45t-35.5 -74.5t-43 -90t-43 -89.5t-35.5 -74.5t-21.5 -44.5h337l-37 411q-2 19 -4 43t-4 48.5t-4 48.5t-3 43h-3z" />
<glyph unicode="&#x395;" horiz-adv-x="436" d="M25 0l135 696h349l-9 -41h-304l-54 -280h263l-8 -40h-262l-58 -294h304l-7 -41h-349z" />
<glyph unicode="&#x396;" horiz-adv-x="391" d="M-18 0l8 41l416 614h-279l8 41h328l-8 -40l-417 -615h292l-8 -41h-340z" />
<glyph unicode="&#x397;" horiz-adv-x="512" d="M364 0l65 334h-294l-65 -334h-45l136 696h44l-63 -321h295l62 321h45l-136 -696h-44z" />
<glyph unicode="&#x398;" horiz-adv-x="485" d="M439 204q-8 -43 -24 -81.5t-42.5 -67t-64 -45.5t-89.5 -17q-53 0 -90 18t-58 48t-27 70t2 84l56 280q8 40 23 78t41 66.5t64 46t92 17.5q49 0 84.5 -16.5t57.5 -44.5t29 -65.5t-1 -79.5zM448 493q6 31 2 61t-20 53t-44.5 37.5t-70.5 14.5q-41 0 -70 -14.5t-49 -38 t-32 -54t-18 -61.5l-55 -281q-7 -35 -3.5 -66.5t18.5 -55.5t43 -38.5t71 -14.5q42 0 72 14t50 37.5t32.5 53.5t18.5 62zM155 376h237l-8 -40h-236z" />
<glyph unicode="&#x399;" horiz-adv-x="191" d="M33 0l136 696h44l-135 -696h-45z" />
<glyph unicode="&#x39a;" horiz-adv-x="495" d="M490 696h51l-230 -271l128 -425h-47q-29 97 -58 192.5t-58 192.5l-171 -196l-38 -189h-44l136 696h44q-20 -107 -44 -216.5t-44 -216.5h1z" />
<glyph unicode="&#x39b;" horiz-adv-x="475" d="M377 0q-8 88 -14.5 196.5t-22.5 244.5q0 3 -1.5 18t-3 36t-3.5 44.5t-4 44.5t-3.5 36.5t-1.5 19.5h-3q-8 -16 -20 -43t-25.5 -55.5t-25.5 -54.5t-18 -40q-71 -140 -121 -249.5t-91 -197.5h-47q19 39 46 94.5t58 120t64 133.5t64 133.5t58 120t46 94.5h49q3 -39 8.5 -94.5 t11.5 -120t12.5 -133.5t13 -133.5t11.5 -120t9 -94.5h-46z" />
<glyph unicode="&#x39c;" horiz-adv-x="630" d="M599 588q-69 -115 -138.5 -227t-141.5 -225h-34q-26 111 -52 221.5t-52 222.5h-1l-113 -580h-44l136 696h43q27 -125 55 -247t56 -246h1q7 12 30 48.5t53.5 85.5t65 105t65.5 107t55.5 90.5t34.5 56.5h47l-136 -696h-43q28 146 57 294t57 294h-1v0z" />
<glyph unicode="&#x39d;" horiz-adv-x="541" d="M184 608q-5 -30 -14 -78t-20 -104.5t-22.5 -117.5t-23 -118.5t-21 -107t-15.5 -82.5h-44l136 696h43l207 -602h2l117 602h42l-134 -696h-43q-26 78 -52 152.5t-51.5 149t-52 150.5t-53.5 156h-1v0z" />
<glyph unicode="&#x39e;" horiz-adv-x="443" d="M130 654l8 42h356l-8 -42h-356zM110 334l8 41h272l-8 -41h-272zM3 0l8 43h356l-8 -43h-356z" />
<glyph unicode="&#x39f;" horiz-adv-x="485" d="M439 204q-8 -43 -24 -81.5t-42.5 -67t-64 -45.5t-89.5 -17q-53 0 -90 18t-58 48t-27 70t2 84l56 280q8 40 23 78t41 66.5t64 46t92 17.5q49 0 84.5 -16.5t57.5 -44.5t29 -65.5t-1 -79.5zM448 493q6 31 2 61t-20 53t-44.5 37.5t-70.5 14.5q-41 0 -70 -14.5t-49 -38 t-32 -54t-18 -61.5l-55 -281q-7 -35 -3.5 -66.5t18.5 -55.5t43 -38.5t71 -14.5q42 0 72 14t50 37.5t32.5 53.5t18.5 62z" />
<glyph unicode="&#x3a0;" horiz-adv-x="510" d="M362 0l127 656h-293l-127 -656h-44l135 696h381l-135 -696h-44z" />
<glyph unicode="&#x3a1;" horiz-adv-x="465" d="M70 0h-45l136 696h179q82 0 126.5 -37.5t44.5 -112.5q0 -56 -15.5 -101.5t-45.5 -78.5t-73.5 -51t-98.5 -18h-150zM465 537q0 57 -32 87.5t-98 30.5h-138l-61 -316h144q85 0 135 53t50 145z" />
<glyph unicode="&#x3a3;" horiz-adv-x="384" d="M-15 0l8 40l213 321l-93 296l8 39h331l-8 -41h-284l93 -295l-213 -319h294l-8 -41h-341z" />
<glyph unicode="&#x3a4;" horiz-adv-x="394" d="M307 655l-128 -655h-44l128 655h-170l8 41h382l-9 -41h-167z" />
<glyph unicode="&#x3a5;" horiz-adv-x="408" d="M228 341q21 35 42.5 70.5t43.5 70.5l130 214h48l-252 -405l-56 -291h-43l56 291q-23 102 -47 202.5t-48 202.5h43q14 -57 25.5 -114.5t25.5 -114.5q7 -30 14.5 -62.5t15.5 -63.5h2v0z" />
<glyph unicode="&#x3a6;" horiz-adv-x="597" d="M281 0h-44l11 58q-16 -1 -29 2.5t-24 6.5q-37 10 -62.5 28t-41 42.5t-22.5 54.5t-7 63q1 43 5.5 88t17.5 89q13 46 36 86t56.5 70.5t80 49t106.5 20.5l8 38h44l-8 -38q52 -2 88 -19.5t58 -46.5t31.5 -66.5t9.5 -79.5q0 -43 -5.5 -85t-17.5 -84q-14 -47 -37 -87t-57.5 -69 t-80.5 -46t-105 -17zM300 97q70 2 118.5 31.5t77.5 77t42 108.5t13 126q0 80 -35 127.5t-115 49.5zM356 617q-67 -2 -114.5 -32.5t-78 -80t-44.5 -113.5t-14 -134q0 -69 34.5 -112t115.5 -48z" />
<glyph unicode="&#x3a7;" horiz-adv-x="419" d="M324 0l-92 313l-212 -313h-50l245 357l-100 338h45l85 -296l200 296h51l-235 -339l109 -356h-46z" />
<glyph unicode="&#x3a8;" horiz-adv-x="588" d="M563 349q-17 -90 -84 -141.5t-173 -55.5l-29 -152h-44l28 152q-47 4 -83.5 21.5t-60 46t-31.5 67t1 84.5l63 325h43l-63 -327q-15 -75 22 -122t118 -52l98 501h44l-98 -501q81 1 136 43t69 115l67 343h45l-68 -347v0z" />
<glyph unicode="&#x3a9;" horiz-adv-x="482" d="M92 42q-36 26 -47 71t0 100l53 280q8 40 23 78t41 66.5t64 46t92 17.5q49 0 85 -16.5t58.5 -44.5t30 -65.5t-0.5 -79.5l-53 -291q-10 -53 -35 -96.5t-66 -65.5l1 -1h81l-7 -41h-150l10 47q22 6 42 22t35.5 37t26.5 46t16 50l55 291q6 31 2 61t-20 53t-44.5 37.5 t-70.5 14.5q-44 0 -73.5 -14.5t-49.5 -38t-31.5 -54t-17.5 -61.5l-52 -281q-5 -26 -4.5 -51t8 -46.5t22.5 -38t38 -25.5l-9 -49h-154l7 41h92z" />
<glyph unicode="&#x3aa;" horiz-adv-x="191" d="M33 0l136 696h44l-135 -696h-45zM259 747l10 51h48l-10 -51h-48zM97 747l9 51h48l-9 -51h-48z" />
<glyph unicode="&#x3ab;" horiz-adv-x="408" d="M228 341q21 35 42.5 70.5t43.5 70.5l130 214h48l-252 -405l-56 -291h-43l56 291q-23 102 -47 202.5t-48 202.5h43q14 -57 25.5 -114.5t25.5 -114.5q7 -30 14.5 -62.5t15.5 -63.5h2zM204 747l9 51h48l-9 -51h-48zM366 747l10 51h48l-10 -51h-48z" />
<glyph unicode="&#x3ac;" horiz-adv-x="428" d="M289 0l15 70h-2q-26 -35 -60 -55.5t-84 -20.5q-32 0 -54.5 10.5t-36.5 29.5t-20.5 43.5t-6.5 53.5t4 62.5t11 68.5q10 53 26 96.5t40 75t57 48.5t77 17q42 0 73.5 -19.5t43.5 -53.5l1 1l12 65h42l-96 -492h-42zM259 457q-39 0 -66 -16.5t-44.5 -43.5t-28.5 -61t-18 -69 q-8 -35 -13 -69t-5 -62q0 -21 4.5 -40t15 -32.5t27.5 -21.5t42 -8q28 0 51 11t40.5 29t30 40.5t20.5 45.5q14 44 22.5 88.5t13.5 85.5q4 25 -1 47.5t-17 39t-31 26.5t-43 10zM249 571l94 152l44 -18l-113 -145z" />
<glyph unicode="&#x3ad;" horiz-adv-x="375" d="M170 -6q-30 0 -55.5 6.5t-44 20t-29.5 35t-11 51.5q0 53 27.5 94.5t76.5 56.5v1q-56 19 -56 81q0 39 14 68.5t38 49.5t55.5 30t66.5 10q52 0 87 -24.5t49 -63.5l-39 -19q-11 30 -34.5 48.5t-62.5 18.5q-23 0 -45.5 -7t-41 -21t-30 -35.5t-11.5 -50.5q0 -19 7 -31.5 t18 -19.5t26 -10t31 -3h61l-7 -40h-64q-21 0 -43 -8t-39.5 -24t-29 -39.5t-11.5 -54.5q0 -24 9 -39.5t23.5 -24.5t33 -12.5t36.5 -3.5q36 0 69 19t51 48l37 -20q-25 -45 -69.5 -66t-92.5 -21zM233 571l94 152l44 -18l-113 -145z" />
<glyph unicode="&#x3ae;" horiz-adv-x="432" d="M154 492q-4 -18 -7.5 -36t-6.5 -36h2q29 41 69 59t78 18q37 0 62 -12.5t39 -34t17.5 -49.5t-2.5 -58q-9 -48 -20.5 -106t-23.5 -120t-24 -124.5t-24 -119.5h-43q11 56 24 120t25 126t22.5 117.5t18.5 95.5q4 22 3 44t-10 39.5t-28.5 28t-50.5 10.5q-33 0 -59.5 -13 t-46.5 -35t-33 -51t-19 -60q-5 -22 -12.5 -62.5t-16.5 -85t-17 -85t-12 -62.5h-42l96 492h42zM220 571l94 152l44 -18l-113 -145z" />
<glyph unicode="&#x3af;" horiz-adv-x="185" d="M160 491l-79 -409q-1 -5 -1.5 -9t-0.5 -8q0 -14 7.5 -19.5t24.5 -9.5l-7 -38q-42 1 -56 16t-14 38q0 6 1.5 15.5t6.5 35.5q19 97 37.5 194t38.5 194h42zM131 571l94 152l44 -18l-113 -145z" />
<glyph unicode="&#x3b0;" horiz-adv-x="431" d="M431 491q-15 -80 -30.5 -158.5t-31.5 -159.5q-16 -82 -61 -130.5t-129 -48.5q-74 0 -106 33t-32 88q0 20 5 48l63 328h42l-63 -326q-2 -11 -3.5 -21.5t-1.5 -21.5q0 -18 5 -34t16.5 -28t30 -19.5t46.5 -7.5q67 0 102 44t47 113l59 301h42zM240 571l93 152l44 -18 l-112 -145zM175 596l10 51h48l-10 -51h-48zM354 596l9 51h49l-11 -51h-47z" />
<glyph unicode="&#x3b1;" horiz-adv-x="428" d="M289 0l15 70h-2q-26 -35 -60 -55.5t-84 -20.5q-32 0 -54.5 10.5t-36.5 29.5t-20.5 43.5t-6.5 53.5t4 62.5t11 68.5q10 53 26 96.5t40 75t57 48.5t77 17q42 0 73.5 -19.5t43.5 -53.5l1 1l12 65h42l-96 -492h-42zM259 457q-39 0 -66 -16.5t-44.5 -43.5t-28.5 -61t-18 -69 q-8 -35 -13 -69t-5 -62q0 -21 4.5 -40t15 -32.5t27.5 -21.5t42 -8q28 0 51 11t40.5 29t30 40.5t20.5 45.5q14 44 22.5 88.5t13.5 85.5q4 25 -1 47.5t-17 39t-31 26.5t-43 10z" />
<glyph unicode="&#x3b2;" horiz-adv-x="425" d="M302 725q64 0 97 -37.5t33 -97.5q0 -29 -6.5 -56t-19 -50t-32 -40.5t-45.5 -26.5q0 -1 -0.5 -1.5t-0.5 -1.5q35 -10 50.5 -37.5t15.5 -71.5q0 -32 -5.5 -67.5t-16 -70.5t-26.5 -66t-37 -53q-23 -24 -54 -38.5t-73 -14.5q-37 0 -69 18t-43 59q-1 0 -1 -0.5t-1 -0.5 l-39 -202h-43l129 664q7 38 20.5 72.5t35.5 61t54 42.5t77 16zM297 686q-40 0 -64.5 -16.5t-40 -42.5t-24.5 -57.5t-16 -60.5l-60 -321q-2 -14 -4.5 -27.5t-1.5 -27.5q0 -20 5 -38t16.5 -31.5t29.5 -22t45 -8.5q34 0 59.5 13t44.5 34.5t32 48.5t20.5 56t11 57.5t3.5 51.5 q0 51 -24 75.5t-78 24.5h-44l7 38h40q31 0 56 12t42.5 32.5t27 48t9.5 59.5q0 48 -23.5 75t-68.5 27z" />
<glyph unicode="&#x3b3;" horiz-adv-x="351" d="M159 85q32 54 59.5 105t51.5 100.5t46.5 99.5t45.5 103h47q-28 -65 -55 -123.5t-56.5 -115.5t-61.5 -116t-71 -125l-41 -211h-44q3 18 8.5 46t11.5 58.5t11.5 58.5t8.5 45q-8 106 -19.5 206t-25.5 206q-2 20 -6 26.5t-18 6.5q-4 0 -6 -1q0 5 1.5 19.5t1.5 18.5q14 5 26 5 q23 0 32 -14.5t12 -40.5q11 -87 20.5 -174.5t17.5 -182.5h3z" />
<glyph unicode="&#x3b4;" horiz-adv-x="411" d="M327 685q-62 0 -96 -26.5t-34 -73.5q0 -24 11 -42.5t28.5 -32.5t39 -26.5t41.5 -24.5q36 -22 56.5 -52t20.5 -84q1 -23 -3 -54.5t-12 -63.5q-11 -51 -27.5 -91t-39.5 -66q-50 -54 -133 -54q-69 0 -106.5 33.5t-40.5 88.5q0 36 3.5 72t12.5 72q17 81 58.5 139t112.5 73v1 q-32 24 -49 49t-17 57q0 35 13 62t36 45.5t54.5 28t68.5 9.5q26 0 55.5 -5t55.5 -13l-15 -38q-23 9 -48 13t-46 4zM258 442q-34 -2 -62.5 -17.5t-49.5 -41.5q-43 -50 -62 -164q-4 -23 -6 -44.5t-2 -39.5q0 -46 26 -74.5t80 -28.5q66 0 104 48q12 15 24 42.5t21.5 60t15 66 t5.5 62.5q0 24 -3.5 43.5t-13.5 35.5t-28.5 29t-48.5 23z" />
<glyph unicode="&#x3b5;" horiz-adv-x="375" d="M170 -6q-30 0 -55.5 6.5t-44 20t-29.5 35t-11 51.5q0 53 27.5 94.5t76.5 56.5v1q-56 19 -56 81q0 39 14 68.5t38 49.5t55.5 30t66.5 10q52 0 87 -24.5t49 -63.5l-39 -19q-11 30 -34.5 48.5t-62.5 18.5q-23 0 -45.5 -7t-41 -21t-30 -35.5t-11.5 -50.5q0 -19 7 -31.5 t18 -19.5t26 -10t31 -3h61l-7 -40h-64q-21 0 -43 -8t-39.5 -24t-29 -39.5t-11.5 -54.5q0 -24 9 -39.5t23.5 -24.5t33 -12.5t36.5 -3.5q36 0 69 19t51 48l37 -20q-25 -45 -69.5 -66t-92.5 -21z" />
<glyph unicode="&#x3b6;" horiz-adv-x="340" d="M167 661l8 41h308l-8 -39q-71 -47 -141 -108.5t-125.5 -129t-90.5 -135.5t-35 -126q0 -43 27.5 -71t87.5 -58q51 -26 73 -43.5t22 -39.5q0 -25 -20 -53.5t-56 -70.5l-31 22q23 29 40 51t17 39t-17.5 28t-49.5 28q-73 37 -105.5 74t-32.5 90q0 58 27.5 121t77.5 127.5 t118.5 128.5t151.5 124h-246z" />
<glyph unicode="&#x3b7;" horiz-adv-x="432" d="M154 492q-4 -18 -7.5 -36t-6.5 -36h2q29 41 69 59t78 18q37 0 62 -12.5t39 -34t17.5 -49.5t-2.5 -58q-9 -48 -20.5 -106t-23.5 -120t-24 -124.5t-24 -119.5h-43q11 56 24 120t25 126t22.5 117.5t18.5 95.5q4 22 3 44t-10 39.5t-28.5 28t-50.5 10.5q-33 0 -59.5 -13 t-46.5 -35t-33 -51t-19 -60q-5 -22 -12.5 -62.5t-16.5 -85t-17 -85t-12 -62.5h-42l96 492h42z" />
<glyph unicode="&#x3b8;" horiz-adv-x="413" d="M425 475q-12 -64 -24.5 -127t-25.5 -127q-4 -20 -10 -44.5t-14 -47.5q-20 -61 -63.5 -98.5t-114.5 -37.5q-74 0 -108.5 38t-34.5 97q0 22 3 48.5t8 52.5q2 10 8 39t12.5 64.5t13.5 70.5t11 56q12 61 25 106t33 77q24 39 60.5 60.5t90.5 21.5q36 0 63 -11t44.5 -29.5 t26.5 -43.5t9 -53q0 -23 -3.5 -52t-9.5 -60zM359 355h-250l-27 -135q-4 -23 -6.5 -44.5t-3.5 -38.5q0 -20 5 -39t17 -34t32 -24t49 -9q43 0 70.5 17.5t44.5 45.5t27 64t18 72zM116 391h250q11 47 20 99t9 90q0 44 -26.5 74t-76.5 30q-42 0 -68.5 -17.5t-43 -47t-27.5 -68 t-21 -79.5z" />
<glyph unicode="&#x3b9;" horiz-adv-x="185" d="M160 491l-79 -409q-1 -5 -1.5 -9t-0.5 -8q0 -14 7.5 -19.5t24.5 -9.5l-7 -38q-42 1 -56 16t-14 38q0 6 1.5 15.5t6.5 35.5q19 97 37.5 194t38.5 194h42z" />
<glyph unicode="&#x3ba;" horiz-adv-x="407" d="M153 491q-15 -73 -29.5 -145t-28.5 -145h1l274 291h53l-172 -183l110 -309h-45q-25 69 -48.5 138.5t-48.5 138.5q-35 -36 -68 -72t-67 -72l-26 -133h-42q23 123 47 245t48 246h42z" />
<glyph unicode="&#x3bb;" horiz-adv-x="361" d="M154 721q9 2 17 2.5t15 0.5q36 0 48.5 -23t16.5 -69q3 -34 7 -82t9 -102t10 -109.5t9.5 -106.5t8 -93t5.5 -67q2 -22 8 -29t22 -7l-3 -36q-34 -4 -49.5 6.5t-19.5 48.5l-15 177q-5 45 -8 89t-7 89h-2l-105 -200l-111 -210h-47l256 479l-11 152q-2 28 -10.5 39.5 t-32.5 11.5q-8 0 -13 -1z" />
<glyph unicode="&#x3bc;" horiz-adv-x="434" d="M18 -197h-42q32 172 66 343t66 345h43l-65 -333q-5 -25 -2.5 -47t13 -39t30.5 -27t51 -10q29 0 53.5 11t44 30.5t32.5 45t19 54.5l61 315h42l-95 -491h-42q3 17 6 33t7 33h-3q-26 -38 -64.5 -54.5t-76.5 -16.5q-36 0 -61 12t-37 32l-1 -1z" />
<glyph unicode="&#x3bd;" horiz-adv-x="365" d="M400 492q-28 -66 -56.5 -128t-59 -122.5t-63 -120t-68.5 -121.5h-44l-57 492h44l31 -279q4 -37 7.5 -76.5t3.5 -82.5h2q59 105 112 213t100 225h48z" />
<glyph unicode="&#x3be;" horiz-adv-x="339" d="M310 724q45 0 80 -15.5t55 -48.5q-9 -5 -18 -11.5t-18 -11.5q-31 47 -102 47q-33 0 -61.5 -11.5t-49.5 -33.5t-32.5 -53t-11.5 -71q0 -24 9 -42t24.5 -30t36 -18t43.5 -6h81l-7 -38h-92q-37 0 -68.5 -17t-54.5 -45.5t-36 -65t-13 -75.5q0 -30 10 -52.5t27.5 -39.5 t40.5 -30t50 -24q15 -6 31.5 -13t29.5 -16t21.5 -21.5t8.5 -29.5q0 -29 -21 -60.5t-46 -63.5l-35 19q18 25 35 52t17 46q0 20 -20 31t-44 21q-30 12 -57 27t-47 35.5t-31.5 48.5t-11.5 68q0 42 10.5 79t30 66.5t47 50.5t61.5 30v1q-39 11 -56.5 42.5t-17.5 71.5q0 46 14 84 t40 65.5t63.5 42.5t84.5 15z" />
<glyph unicode="&#x3bf;" horiz-adv-x="416" d="M253 499q39 0 66.5 -13t44.5 -35t24.5 -49.5t7.5 -57.5q-1 -31 -6 -65.5t-12 -66.5q-11 -53 -27 -94t-39.5 -68.5t-57 -41.5t-79.5 -14q-43 0 -71 12.5t-44 32.5t-22 45t-6 51q0 29 2.5 59t7.5 57q10 57 27.5 103t41.5 77q26 33 60 50.5t82 17.5zM248 460q-34 0 -62 -15 t-47 -43q-12 -18 -23.5 -48t-20.5 -65t-14.5 -71.5t-5.5 -67.5q0 -23 3.5 -44t14.5 -37.5t31.5 -26.5t53.5 -10q46 0 78.5 23t49.5 65q10 22 18.5 50.5t15 59t10 61t3.5 57.5q0 54 -28 83t-77 29z" />
<glyph unicode="&#x3c0;" horiz-adv-x="438" d="M297 0l89 455h-236l-89 -455h-42l95 492h322l-95 -492h-44z" />
<glyph unicode="&#x3c1;" horiz-adv-x="423" d="M184 -6q-38 0 -70.5 16.5t-48.5 53.5l-1 -1l-51 -260h-41q21 114 42 226.5t43 227.5q8 32 16 63t19 60q23 55 63 87t102 32t97 -28.5t44 -70.5q4 -19 4.5 -43t-2 -49.5t-7 -51.5t-9.5 -50q-12 -52 -28 -91.5t-39.5 -66.5t-56 -40.5t-76.5 -13.5zM184 32q39 0 65.5 15 t44.5 40t29 57t20 66q9 35 13.5 71t4.5 68q0 48 -26.5 79t-80.5 31q-37 0 -64 -16.5t-44 -45.5q-17 -30 -29 -74t-20 -85q-6 -29 -10 -56t-4 -43q0 -21 5 -40t16.5 -34t31 -24t48.5 -9z" />
<glyph unicode="&#x3c2;" horiz-adv-x="363" d="M265 498q54 0 89 -23.5t45 -67.5q-11 -5 -20.5 -9.5t-19.5 -9.5q-5 32 -31.5 51t-62.5 19q-39 0 -67.5 -16t-48.5 -41.5t-32 -57.5t-18.5 -64.5t-9 -61.5t-2.5 -49q0 -28 9.5 -46.5t26 -32.5t37.5 -25t45 -24q13 -6 26.5 -13t24.5 -16t18.5 -20.5t7.5 -26.5t-6 -32 t-16 -34t-22.5 -33.5t-24.5 -30.5l-35 22q18 25 34.5 49t16.5 47q0 6 -2 11.5t-9 12t-20 14.5t-35 18q-25 11 -47 24.5t-39 33t-26.5 47t-8.5 67.5q1 54 13 110t38 102.5t68 76t104 29.5z" />
<glyph unicode="&#x3c3;" horiz-adv-x="424" d="M341 454q28 -17 41 -47.5t13 -60.5q0 -58 -17 -134q-11 -51 -27 -91.5t-40 -68.5t-58.5 -43t-83.5 -15q-34 0 -60 10t-43 28t-26 42.5t-9 52.5q0 33 4.5 71.5t13.5 77.5t22 75t29 63q26 38 62 57.5t88 19.5h212l-8 -35h-111zM247 452q-32 0 -59.5 -12.5t-47.5 -38.5 q-20 -28 -34 -74.5t-24 -100.5q-4 -22 -6.5 -43t-2.5 -41q0 -47 23.5 -78.5t82.5 -31.5q39 0 65 14.5t46 43.5q12 18 23 48t20 64.5t14 69.5t5 63q0 51 -27 84t-78 33z" />
<glyph unicode="&#x3c4;" horiz-adv-x="264" d="M64 492h244l-7 -38h-106l-66 -337q-3 -16 -2.5 -30t6 -24.5t18 -17t33.5 -6.5h15l-7 -39h-25q-27 0 -45 9t-27.5 23.5t-12 34t1.5 40.5l68 347h-95z" />
<glyph unicode="&#x3c5;" horiz-adv-x="431" d="M431 491q-15 -80 -30.5 -158.5t-31.5 -159.5q-16 -82 -61 -130.5t-129 -48.5q-74 0 -106 33t-32 88q0 20 5 48l63 328h42l-63 -326q-2 -11 -3.5 -21.5t-1.5 -21.5q0 -18 5 -34t16.5 -28t30 -19.5t46.5 -7.5q67 0 102 44t47 113l59 301h42z" />
<glyph unicode="&#x3c6;" horiz-adv-x="502" d="M335 498q41 0 69 -12t45 -32t24.5 -46.5t7.5 -56.5q0 -62 -10 -125t-37.5 -114.5t-77 -84t-127.5 -33.5l-36 -192h-44l18 96t19 96q-83 6 -116.5 44t-33.5 97q0 26 3.5 54.5t8.5 57.5q8 49 19 89t27.5 70t40.5 50t59 31q2 -4 5.5 -19t5.5 -19q-27 -10 -46 -27.5 t-31.5 -43t-21.5 -59t-16 -75.5q-5 -29 -8.5 -53t-3.5 -44q0 -24 5.5 -44.5t18.5 -35.5t35.5 -24.5t55.5 -10.5l91 466h51zM319 458q-20 -107 -40.5 -213t-41.5 -213q67 2 106.5 35t60.5 79.5t27 97.5t6 90q0 25 -4 48t-16.5 40t-35.5 26.5t-62 9.5z" />
<glyph unicode="&#x3c7;" horiz-adv-x="363" d="M260 0l-74 217l-156 -217h-51l187 253q-2 3 -8 21t-15 43.5t-19.5 55t-19.5 55t-15.5 43.5t-7.5 21h47l68 -206l147 206h53l-181 -240l92 -252h-47z" />
<glyph unicode="&#x3c8;" horiz-adv-x="525" d="M205 -198h-43l37 194q-89 5 -126.5 56t-22.5 128l60 311h42l-60 -304q-6 -33 -4 -59.5t15 -46.5t38 -32t66 -15l91 467h42l-91 -467q42 0 72.5 11.5t51.5 32t33.5 49t18.5 61.5l59 303h42l-61 -316q-16 -84 -69.5 -130.5t-153.5 -48.5z" />
<glyph unicode="&#x3c9;" horiz-adv-x="631" d="M404 -5q-38 0 -71.5 19t-44.5 61h-2q-26 -45 -62 -63t-74 -18q-33 0 -56.5 9.5t-38.5 26.5t-21.5 40t-6.5 49q0 28 3.5 61t8.5 62q20 119 61.5 180.5t118.5 72.5l3 -38q-28 -5 -49.5 -19t-38.5 -39.5t-29.5 -65t-22.5 -94.5q-5 -31 -8.5 -56.5t-3.5 -48.5q0 -44 19.5 -73 t66.5 -29q34 0 56.5 15.5t36 38t20.5 46.5t11 42l35 173h44l-34 -174q-5 -23 -4 -48t10 -45.5t27.5 -33.5t50.5 -13q57 0 89.5 45.5t52.5 139.5q4 21 9 44.5t7 47.5t1.5 47t-6.5 43q-6 23 -22 37.5t-42 18.5l11 39q46 -6 73.5 -42t27.5 -84q0 -32 -4 -70t-12 -76t-19 -74 t-25 -63q-24 -48 -59.5 -69.5t-86.5 -21.5z" />
<glyph unicode="&#x3ca;" horiz-adv-x="185" d="M160 491l-79 -409q-1 -5 -1.5 -9t-0.5 -8q0 -14 7.5 -19.5t24.5 -9.5l-7 -38q-42 1 -56 16t-14 38q0 6 1.5 15.5t6.5 35.5q19 97 37.5 194t38.5 194h42zM55 597l9 51h48l-10 -51h-47zM222 597l10 51h47l-10 -51h-47z" />
<glyph unicode="&#x3cb;" horiz-adv-x="431" d="M431 491q-15 -80 -30.5 -158.5t-31.5 -159.5q-16 -82 -61 -130.5t-129 -48.5q-74 0 -106 33t-32 88q0 20 5 48l63 328h42l-63 -326q-2 -11 -3.5 -21.5t-1.5 -21.5q0 -18 5 -34t16.5 -28t30 -19.5t46.5 -7.5q67 0 102 44t47 113l59 301h42zM176 597l9 51h48l-10 -51h-47z M343 597l10 51h47l-10 -51h-47z" />
<glyph unicode="&#x3cc;" horiz-adv-x="416" d="M253 499q39 0 66.5 -13t44.5 -35t24.5 -49.5t7.5 -57.5q-1 -31 -6 -65.5t-12 -66.5q-11 -53 -27 -94t-39.5 -68.5t-57 -41.5t-79.5 -14q-43 0 -71 12.5t-44 32.5t-22 45t-6 51q0 29 2.5 59t7.5 57q10 57 27.5 103t41.5 77q26 33 60 50.5t82 17.5zM248 460q-34 0 -62 -15 t-47 -43q-12 -18 -23.5 -48t-20.5 -65t-14.5 -71.5t-5.5 -67.5q0 -23 3.5 -44t14.5 -37.5t31.5 -26.5t53.5 -10q46 0 78.5 23t49.5 65q10 22 18.5 50.5t15 59t10 61t3.5 57.5q0 54 -28 83t-77 29zM254 571l94 152l44 -18l-113 -145z" />
<glyph unicode="&#x3cd;" horiz-adv-x="431" d="M431 491q-15 -80 -30.5 -158.5t-31.5 -159.5q-16 -82 -61 -130.5t-129 -48.5q-74 0 -106 33t-32 88q0 20 5 48l63 328h42l-63 -326q-2 -11 -3.5 -21.5t-1.5 -21.5q0 -18 5 -34t16.5 -28t30 -19.5t46.5 -7.5q67 0 102 44t47 113l59 301h42zM242 571l94 152l44 -18 l-113 -145z" />
<glyph unicode="&#x3ce;" horiz-adv-x="631" d="M404 -5q-38 0 -71.5 19t-44.5 61h-2q-26 -45 -62 -63t-74 -18q-33 0 -56.5 9.5t-38.5 26.5t-21.5 40t-6.5 49q0 28 3.5 61t8.5 62q20 119 61.5 180.5t118.5 72.5l3 -38q-28 -5 -49.5 -19t-38.5 -39.5t-29.5 -65t-22.5 -94.5q-5 -31 -8.5 -56.5t-3.5 -48.5q0 -44 19.5 -73 t66.5 -29q34 0 56.5 15.5t36 38t20.5 46.5t11 42l35 173h44l-34 -174q-5 -23 -4 -48t10 -45.5t27.5 -33.5t50.5 -13q57 0 89.5 45.5t52.5 139.5q4 21 9 44.5t7 47.5t1.5 47t-6.5 43q-6 23 -22 37.5t-42 18.5l11 39q46 -6 73.5 -42t27.5 -84q0 -32 -4 -70t-12 -76t-19 -74 t-25 -63q-24 -48 -59.5 -69.5t-86.5 -21.5zM338 571l94 152l44 -18l-113 -145z" />
<glyph unicode="&#x401;" horiz-adv-x="436" d="M25 0l135 696h349l-9 -41h-304l-54 -280h263l-8 -40h-262l-58 -294h304l-7 -41h-349zM395 747l10 51h48l-10 -51h-48zM233 747l9 51h48l-9 -51h-48z" />
<glyph unicode="&#x402;" horiz-adv-x="572" d="M402 470q64 0 103 -36t39 -114q0 -62 -12.5 -122t-41 -107.5t-75 -77t-113.5 -29.5q-9 0 -14 1l8 36h11q53 0 90 26t60 67t33.5 92.5t10.5 101.5q0 28 -5.5 50t-18 38t-33.5 24.5t-52 8.5q-28 0 -54 -10.5t-48 -28t-39.5 -40t-28.5 -46.5l-58 -304h-43l127 655h-165l8 40 h430l-8 -40h-222q-13 -66 -25.5 -132t-26.5 -132q1 0 2 -1q15 18 34 32.5t40 25t43.5 16.5t43.5 6z" />
<glyph unicode="&#x403;" horiz-adv-x="424" d="M298 750l151 107l28 -38l-163 -91zM197 654q-1 -4 -6.5 -33t-14 -74.5t-19.5 -102.5t-23 -117t-23 -117t-19.5 -102.5t-14 -74.5t-6.5 -33h-46l135 696h346l-8 -42h-301z" />
<glyph unicode="&#x404;" horiz-adv-x="455" d="M212 33q60 0 101.5 30.5t64.5 88.5q11 -4 21 -7.5t21 -6.5q-26 -73 -80 -108.5t-129 -35.5q-84 0 -126 43t-42 110q0 19 3.5 42.5t6.5 41.5l43 219q9 46 23 91.5t38.5 80.5t63.5 57t99 22q81 0 125 -39t51 -101q-11 -4 -22 -7.5t-23 -6.5q-2 48 -36.5 79.5t-94.5 31.5 q-51 0 -83 -20t-52 -52t-30.5 -71t-17.5 -78l-12 -64h223l-9 -41h-222l-18 -93q-5 -23 -7.5 -47.5t-2.5 -41.5q0 -23 6.5 -44t21 -37t38 -26t57.5 -10z" />
<glyph unicode="&#x405;" horiz-adv-x="457" d="M315 702q67 0 107 -24.5t59 -64.5l-41 -25q-14 34 -46.5 52.5t-80.5 18.5q-39 0 -69 -13.5t-49.5 -36t-29.5 -51t-10 -59.5q0 -27 8.5 -45.5t24.5 -32.5t40 -24.5t55 -21.5q35 -12 62 -26t46 -32.5t28.5 -43.5t9.5 -60q0 -100 -58.5 -159.5t-167.5 -59.5q-73 0 -118.5 30 t-61.5 81l41 22q12 -42 48 -66.5t97 -24.5q44 0 76.5 14t53.5 37t31.5 53.5t10.5 63.5q0 31 -8.5 52t-24.5 35t-38.5 24t-50.5 19q-41 14 -70 29t-47.5 33.5t-27 42t-8.5 54.5q0 45 14 83.5t41 66t65.5 43.5t88.5 16z" />
<glyph unicode="&#x406;" horiz-adv-x="191" d="M33 0l136 696h44l-135 -696h-45z" />
<glyph unicode="&#x407;" horiz-adv-x="192" d="M262 772l10 50h48l-10 -50h-48zM94 772l10 50h48l-10 -50h-48zM33 0l136 696h44l-135 -696h-45z" />
<glyph unicode="&#x408;" horiz-adv-x="380" d="M305 169q-18 -93 -66.5 -134t-130.5 -41q-35 0 -71 12.5t-55 35.5l31 30q8 -9 20 -15.5t25.5 -11.5t27 -7.5t25.5 -2.5q26 0 49.5 6.5t43 23t34.5 44t23 70.5l101 517h45z" />
<glyph unicode="&#x409;" horiz-adv-x="769" d="M184 336q-17 -86 -35.5 -144.5t-42.5 -98.5t-54.5 -65t-69.5 -43l-15 36q32 18 57 38.5t45.5 55t37.5 88t34 138.5l69 355h290l-60 -313h140q43 0 74.5 -12t52 -32.5t30.5 -48.5t10 -60q0 -51 -16 -93.5t-46 -73t-73.5 -47t-97.5 -16.5h-193l126 655h-201zM701 223 q0 52 -31 85t-94 33h-144l-58 -299h143q43 0 77 14t58 38t36.5 57t12.5 72z" />
<glyph unicode="&#x40a;" horiz-adv-x="760" d="M738 227q0 -51 -15.5 -93t-45.5 -71.5t-73 -46t-97 -16.5h-194l66 340h-250l-65 -340h-46l135 696h46l-62 -315h250l61 315h45l-62 -315h140q43 0 74.5 -12t52 -33t30.5 -49t10 -60zM691 221q0 51 -30.5 84.5t-93.5 33.5h-144l-58 -297h144q43 0 76.5 13.5t57 37.5 t36 56.5t12.5 71.5z" />
<glyph unicode="&#x40b;" horiz-adv-x="576" d="M438 0l59 300q11 59 -12.5 94.5t-92.5 35.5q-26 0 -50.5 -8.5t-46.5 -23.5t-39 -36.5t-27 -47.5l-61 -314h-44l127 655h-164l8 41h432l-8 -41h-224l-49 -255h2q33 35 76.5 52.5t81.5 17.5q77 0 114 -42t22 -117l-60 -311h-44z" />
<glyph unicode="&#x40c;" horiz-adv-x="473" d="M24 0l134 696h44l-61 -313h117q17 0 36.5 4.5t39 16.5t38.5 32.5t34 53.5l99 206h43l-93 -197q-23 -51 -53 -86t-68 -46q44 -12 59 -48t18 -88l14 -231h-43l-13 229q-2 35 -10.5 57t-22.5 34.5t-32 17t-39 4.5h-132l-66 -342h-43zM279 750l150 107l28 -38l-163 -91z" />
<glyph unicode="&#x40e;" horiz-adv-x="442" d="M226 139q-38 -74 -78 -110t-88 -36h-31l7 36h23q28 0 58 23t56 74l21 40q-20 133 -40 264.5t-40 264.5h45l35 -239q2 -11 6.5 -44.5t10 -71t9.5 -70.5t6 -44q1 0 1.5 0.5t1.5 0.5q25 48 50 97t51 97l140 275h48zM243 821q-2 -31 19 -53.5t53 -22.5t60.5 21.5t39.5 54.5 h39q-6 -20 -17.5 -40.5t-29 -36.5t-41 -26t-53.5 -10t-51.5 10t-34.5 26t-18 36t-3 41h37z" />
<glyph unicode="&#x40f;" horiz-adv-x="507" d="M534 696l-129 -696h-168l-27 -143h-46l27 143h-168l129 696h45l-122 -654h291l122 654h46z" />
<glyph unicode="&#x410;" horiz-adv-x="475" d="M363 176h-262q-20 -45 -41 -88t-42 -88h-46q84 175 167 348t168 348h48q17 -175 33.5 -348t33.5 -348h-45zM240 467q-4 -8 -13 -27t-21.5 -44.5t-25.5 -53.5t-25.5 -53.5t-21.5 -45t-13 -27.5h240q-6 61 -11 121.5t-11 121.5q-4 45 -7 91t-8 91h-2z" />
<glyph unicode="&#x411;" horiz-adv-x="461" d="M456 655h-278q-5 -25 -11.5 -60.5t-14 -73l-14.5 -72.5t-11 -60h140q36 0 66 -10.5t52.5 -30t35 -47.5t12.5 -64q0 -50 -15 -93t-44.5 -75t-73 -50.5t-100.5 -18.5h-194l135 696h324zM388 228q0 54 -32.5 87t-95.5 33h-141q-6 -28 -14 -69t-16.5 -84.5t-16.5 -84 t-13 -68.5h136q85 0 138.5 47.5t54.5 138.5z" />
<glyph unicode="&#x412;" horiz-adv-x="491" d="M375 363l-1 -2q42 -9 63 -46t21 -82q-1 -62 -20.5 -106.5t-51.5 -72.5t-73 -41t-86 -13h-203l135 696h186q77 0 118.5 -37.5t41.5 -105.5q0 -65 -31 -117t-99 -73zM134 342l-59 -301h160q44 0 77.5 15.5t56 42t33.5 60t11 69.5q0 53 -28 83.5t-87 30.5h-164zM195 655 q-14 -69 -27 -137t-26 -137h106q14 0 28.5 0.5t28.5 1.5q34 1 63 13.5t49.5 33.5t32 49t11.5 62q0 55 -33 84.5t-96 29.5h-137z" />
<glyph unicode="&#x413;" horiz-adv-x="424" d="M197 654q-1 -4 -6.5 -33t-14 -74.5t-19.5 -102.5t-23 -117t-23 -117t-19.5 -102.5t-14 -74.5t-6.5 -33h-46l135 696h346l-8 -42h-301z" />
<glyph unicode="&#x414;" horiz-adv-x="565" d="M-11 -142h-42q8 45 16.5 89.5t16.5 89.5q9 1 18 1.5t18 2.5q19 15 38 36t36 51.5t32 71.5t27 94l93 402h347q-32 -165 -63.5 -328t-63.5 -328h44l-36 -182h-42q8 36 14 71.5t14 70.5h-441zM275 655l-82 -355q-14 -60 -27.5 -101.5t-28 -70.5t-30 -50t-33.5 -39h343 q29 155 59 308t60 308h-261z" />
<glyph unicode="&#x415;" horiz-adv-x="436" d="M25 0l135 696h349l-9 -41h-304l-54 -280h263l-8 -40h-262l-58 -294h304l-7 -41h-349z" />
<glyph unicode="&#x416;" horiz-adv-x="743" d="M308 0l66 339h-102q-22 0 -42.5 -4t-40 -16t-38 -34t-35.5 -59l-99 -226h-43q46 114 99 228q12 25 24.5 47.5t28 40t34.5 30t44 18.5q-36 11 -51 46t-19 86l-16 199h41l18 -208q2 -33 12 -54t25 -33t33 -16.5t36 -4.5h98q16 79 31 158t30 159h44l-61 -317h89q17 0 38 5 t43 18.5t42.5 36.5t37.5 58l93 198h42l-84 -186q-25 -55 -57.5 -94.5t-71.5 -50.5q43 -12 58.5 -48.5t17.5 -87.5l15 -228h-44q-3 57 -6 113t-7 113q-2 35 -11 57t-22.5 34.5t-31.5 17t-39 4.5h-110l-65 -339h-44z" />
<glyph unicode="&#x417;" horiz-adv-x="460" d="M301 701q79 0 120.5 -38.5t41.5 -99.5q0 -27 -6 -57t-20 -57.5t-37 -49t-56 -31.5h-1q0 -1 0.5 -1.5t0.5 -1.5q20 -8 32.5 -21t19.5 -29t9.5 -33t2.5 -33q0 -59 -16.5 -106t-46.5 -80t-72 -51t-94 -18q-34 0 -64.5 8t-54 25.5t-37.5 44t-15 63.5q6 4 19 7.5t23 7.5 q0 -31 11 -53t29.5 -36t43 -20.5t51.5 -6.5q40 0 72.5 15.5t55.5 43.5t36 67t13 85q0 45 -26 73t-68 28h-60l8 42h59q29 0 55 12t45 33.5t30 52.5t11 70q0 51 -33.5 77t-84.5 26q-56 0 -100 -27.5t-64 -79.5l-40 18q28 67 82.5 99t124.5 32z" />
<glyph unicode="&#x418;" horiz-adv-x="524" d="M497 600q-6 -7 -13 -16.5t-22.5 -31t-43 -58.5t-72.5 -100q-57 -79 -126 -176t-156 -218h-43l135 696h44l-117 -599q1 0 2 -1l172 239l261 361h41l-135 -696h-43q29 150 58.5 299.5t58.5 300.5h-1v0z" />
<glyph unicode="&#x419;" horiz-adv-x="524" d="M497 600q-6 -7 -13 -16.5t-22.5 -31t-43 -58.5t-72.5 -100q-57 -79 -126 -176t-156 -218h-43l135 696h44l-117 -599q1 0 2 -1l172 239l261 361h41l-135 -696h-43q29 150 58.5 299.5t58.5 300.5h-1zM299 844q-2 -31 19 -53.5t53 -22.5t60.5 21.5t39.5 54.5h39 q-6 -20 -17.5 -40.5t-29 -36.5t-41 -26t-53.5 -10t-51.5 10t-34.5 26t-18 36t-3 41h37z" />
<glyph unicode="&#x41a;" horiz-adv-x="479" d="M24 0l134 696h44l-61 -313h117q17 0 36.5 4.5t39 16.5t38.5 32.5t34 53.5l99 206h43l-93 -197q-23 -51 -53 -86t-68 -46q44 -12 59 -48t18 -88l14 -231h-43l-13 229q-2 35 -10.5 57t-22.5 34.5t-32 17t-39 4.5h-132l-66 -342h-43z" />
<glyph unicode="&#x41b;" horiz-adv-x="517" d="M491 654h-251l-63 -322q-17 -86 -35.5 -144t-41.5 -97t-52 -63.5t-68 -41.5q-5 9 -8 17.5t-7 16.5q33 19 57.5 39.5t44.5 57t37.5 96t37.5 157.5l63 326h339l-135 -696h-45z" />
<glyph unicode="&#x41c;" horiz-adv-x="630" d="M599 588q-69 -115 -138.5 -227t-141.5 -225h-34q-26 111 -52 221.5t-52 222.5h-1l-113 -580h-44l136 696h43q27 -125 55 -247t56 -246h1q7 12 30 48.5t53.5 85.5t65 105t65.5 107t55.5 90.5t34.5 56.5h47l-136 -696h-43q28 146 57 294t57 294h-1v0z" />
<glyph unicode="&#x41d;" horiz-adv-x="512" d="M364 0l65 334h-294l-65 -334h-45l136 696h44l-63 -321h295l62 321h45l-136 -696h-44z" />
<glyph unicode="&#x41e;" horiz-adv-x="485" d="M439 204q-8 -43 -24 -81.5t-42.5 -67t-64 -45.5t-89.5 -17q-53 0 -90 18t-58 48t-27 70t2 84l56 280q8 40 23 78t41 66.5t64 46t92 17.5q49 0 84.5 -16.5t57.5 -44.5t29 -65.5t-1 -79.5zM448 493q6 31 2 61t-20 53t-44.5 37.5t-70.5 14.5q-41 0 -70 -14.5t-49 -38 t-32 -54t-18 -61.5l-55 -281q-7 -35 -3.5 -66.5t18.5 -55.5t43 -38.5t71 -14.5q42 0 72 14t50 37.5t32.5 53.5t18.5 62z" />
<glyph unicode="&#x41f;" horiz-adv-x="510" d="M362 0l127 656h-293l-127 -656h-44l135 696h381l-135 -696h-44z" />
<glyph unicode="&#x420;" horiz-adv-x="465" d="M70 0h-45l136 696h179q82 0 126.5 -37.5t44.5 -112.5q0 -56 -15.5 -101.5t-45.5 -78.5t-73.5 -51t-98.5 -18h-150zM465 537q0 57 -32 87.5t-98 30.5h-138l-61 -316h144q85 0 135 53t50 145z" />
<glyph unicode="&#x421;" horiz-adv-x="457" d="M212 33q60 0 101.5 30.5t64.5 88.5q11 -4 21 -7.5t21 -6.5q-26 -73 -80 -108.5t-129 -35.5q-84 0 -126 43t-42 110q0 19 3.5 42.5t6.5 41.5l43 219q9 46 23 91.5t38.5 80.5t63.5 57t99 22q81 0 125 -39t51 -101q-11 -4 -22 -7.5t-23 -6.5q-2 48 -36.5 79.5t-94.5 31.5 q-51 0 -83 -20t-52 -52t-30.5 -71t-17.5 -78l-38 -198q-5 -23 -7.5 -47.5t-2.5 -41.5q0 -23 6.5 -44t21 -37t38 -26t57.5 -10z" />
<glyph unicode="&#x422;" horiz-adv-x="394" d="M307 655l-128 -655h-44l128 655h-170l8 41h382l-9 -41h-167z" />
<glyph unicode="&#x423;" horiz-adv-x="442" d="M226 139q-38 -74 -78 -110t-88 -36h-31l7 36h23q28 0 58 23t56 74l21 40q-20 133 -40 264.5t-40 264.5h45l35 -239q2 -11 6.5 -44.5t10 -71t9.5 -70.5t6 -44q1 0 1.5 0.5t1.5 0.5q25 48 50 97t51 97l140 275h48z" />
<glyph unicode="&#x424;" horiz-adv-x="597" d="M281 0h-44l11 58q-16 -1 -29 2.5t-24 6.5q-37 10 -62.5 28t-41 42.5t-22.5 54.5t-7 63q1 43 5.5 88t17.5 89q13 46 36 86t56.5 70.5t80 49t106.5 20.5l8 38h44l-8 -38q52 -2 88 -19.5t58 -46.5t31.5 -66.5t9.5 -79.5q0 -43 -5.5 -85t-17.5 -84q-14 -47 -37 -87t-57.5 -69 t-80.5 -46t-105 -17zM300 97q70 2 118.5 31.5t77.5 77t42 108.5t13 126q0 80 -35 127.5t-115 49.5zM356 617q-67 -2 -114.5 -32.5t-78 -80t-44.5 -113.5t-14 -134q0 -69 34.5 -112t115.5 -48z" />
<glyph unicode="&#x425;" horiz-adv-x="419" d="M324 0l-92 313l-212 -313h-50l245 357l-100 338h45l85 -296l200 296h51l-235 -339l109 -356h-46z" />
<glyph unicode="&#x426;" horiz-adv-x="512" d="M406 0h-381l134 696h43l-125 -654h292l126 654h45l-127 -655h44l-35 -184h-44z" />
<glyph unicode="&#x427;" horiz-adv-x="457" d="M168 696l-40 -206q-8 -39 -7.5 -69.5t12.5 -52t37 -33t67 -11.5q35 0 76 9t76 28l65 336h45l-135 -697h-45q2 8 6.5 32.5t11 57t14 69.5t13.5 69.5t10.5 57t6.5 32.5q-37 -19 -80 -26.5t-73 -7.5q-90 0 -127.5 47t-17.5 147l41 218h44z" />
<glyph unicode="&#x428;" horiz-adv-x="758" d="M656 0h-634l136 696h44l-128 -654h248l127 654h46l-128 -654h252l128 654h45z" />
<glyph unicode="&#x429;" horiz-adv-x="765" d="M658 0h-636l134 696h44l-126 -654h248l126 654h45l-126 -654h251l127 654h45l-127 -655h45l-36 -184h-42z" />
<glyph unicode="&#x42a;" horiz-adv-x="599" d="M573 230q0 -51 -16 -93.5t-46 -73t-73 -47t-97 -16.5h-195l127 653h-182l8 42h227l-60 -312h140q43 0 74.5 -12t52 -32.5t30.5 -48.5t10 -60zM526 223q0 52 -30.5 85t-93.5 33h-145l-58 -299h144q43 0 77 14t57.5 38t36 57t12.5 72z" />
<glyph unicode="&#x42b;" horiz-adv-x="598" d="M192 695q-16 -79 -31 -156.5t-30 -156.5h140q43 0 74.5 -12t52 -32.5t30.5 -48.5t10 -60q0 -55 -17 -97.5t-49 -72t-77 -44.5t-100 -15h-183q8 41 19 97t23 118.5t25 129t25 130t23 120t20 100.5h45zM208 42q85 0 134 48.5t49 127.5q0 53 -29.5 88t-94.5 35h-144 l-58 -299h143zM455 0l135 696h46l-136 -696h-45z" />
<glyph unicode="&#x42c;" horiz-adv-x="457" d="M181 695l-60 -313h139q43 0 74.5 -12t52.5 -32.5t31 -48.5t10 -60q0 -55 -17 -97.5t-48 -72t-74.5 -44.5t-97.5 -15h-190q8 41 19 97t23 118.5t25 129t25 130t23 120t20 100.5h45zM197 42q42 0 76 12.5t58 36t37 56t13 71.5q0 54 -29.5 88.5t-95.5 34.5h-144l-58 -299 h143z" />
<glyph unicode="&#x42d;" horiz-adv-x="447" d="M62 142q4 -45 38.5 -74.5t92.5 -29.5q51 0 83 20t52 52t30 71t18 78l14 74h-221l9 42h220l16 82q5 23 7.5 47.5t2.5 41.5q0 22 -6.5 43.5t-21 37.5t-38 26t-57.5 10q-56 0 -96.5 -27.5t-63.5 -78.5l-41 18q28 64 80 95.5t122 31.5q84 0 126 -43t42 -110q0 -19 -3.5 -42.5 t-6.5 -41.5l-43 -219q-9 -47 -23 -92t-38.5 -80t-63.5 -57t-99 -22q-78 0 -122 36.5t-53 94.5z" />
<glyph unicode="&#x42e;" horiz-adv-x="620" d="M465 701q81 0 124 -43.5t43 -114.5q0 -24 -5 -55t-10 -60q-4 -21 -9 -48.5t-10 -56t-10 -56.5t-9 -49q-9 -44 -23 -84.5t-39 -71.5t-63 -49.5t-96 -18.5q-53 0 -88 17.5t-54 46.5t-23.5 67.5t3.5 79.5l23 129h-92l-66 -334h-44l135 696h44q-15 -81 -30.5 -161.5 t-31.5 -161.5h93l27 127q9 40 23.5 76.5t38.5 64t60.5 44t88.5 16.5zM462 660q-45 0 -74.5 -16.5t-48.5 -43.5t-29.5 -60.5t-17.5 -66.5l-50 -261q-7 -33 -6 -65t13.5 -57.5t39.5 -41t72 -15.5q43 0 73 15.5t49.5 40.5t31 56.5t17.5 63.5q14 72 27 145t25 143q5 31 1.5 60.5 t-17.5 52.5t-40 36.5t-66 13.5z" />
<glyph unicode="&#x42f;" horiz-adv-x="501" d="M335 656q-39 0 -72 -11.5t-57 -34t-37.5 -55.5t-13.5 -76q0 -58 34.5 -85t93.5 -27h140l56 289h-144zM415 327h-142q-21 0 -41 -4.5t-38.5 -17t-35.5 -35t-32 -57.5l-87 -213h-47l88 218q19 46 43.5 79.5t66.5 48.5q-42 16 -61 50t-19 80q0 51 16 92t46 69.5t71.5 43.5 t92.5 15h194l-134 -696h-44z" />
<glyph unicode="&#x430;" horiz-adv-x="428" d="M289 0l15 70h-2q-26 -35 -60 -55.5t-84 -20.5q-32 0 -54.5 10.5t-36.5 29.5t-20.5 43.5t-6.5 53.5t4 62.5t11 68.5q10 53 26 96.5t40 75t57 48.5t77 17q42 0 73.5 -19.5t43.5 -53.5l1 1l12 65h42l-96 -492h-42zM259 457q-39 0 -66 -16.5t-44.5 -43.5t-28.5 -61t-18 -69 q-8 -35 -13 -69t-5 -62q0 -21 4.5 -40t15 -32.5t27.5 -21.5t42 -8q28 0 51 11t40.5 29t30 40.5t20.5 45.5q14 44 22.5 88.5t13.5 85.5q4 25 -1 47.5t-17 39t-31 26.5t-43 10z" />
<glyph unicode="&#x431;" horiz-adv-x="418" d="M246 437q-31 0 -56 -12t-45 -34q-29 -32 -41.5 -72.5t-18.5 -82.5q-4 -24 -6.5 -48.5t-3.5 -49.5q0 -23 5 -42.5t17 -34t32 -22.5t50 -8q57 0 94 37q17 18 32 53t26 80q7 30 11.5 61t5.5 63q0 23 -5 43.5t-16.5 35.5t-31 24t-49.5 9zM257 475q36 0 61.5 -12t41 -31.5 t23 -44.5t7.5 -52q0 -29 -4 -60t-10 -63q-10 -50 -25.5 -90t-39 -68.5t-57.5 -44t-80 -15.5q-38 0 -65 10.5t-44 29.5t-25 45.5t-8 58.5q0 23 3 52t8 64q7 42 12.5 71t10 50.5t7.5 36.5t6 28q19 82 43.5 133.5t61.5 82.5t90.5 45t130.5 20l2 -37q-63 -4 -107 -13.5t-75 -32 t-53 -60.5t-40 -98q-12 -39 -24 -90q1 0 1.5 -0.5t1.5 -0.5q15 25 33 42t37.5 26.5t39 13.5t36.5 4z" />
<glyph unicode="&#x432;" horiz-adv-x="417" d="M257 499q37 0 62.5 -9.5t41.5 -25t23 -35t7 -38.5q0 -16 -5 -33.5t-15.5 -33t-25.5 -28t-36 -19.5q38 -12 53.5 -39t15.5 -59q0 -40 -14.5 -74t-41.5 -59t-65 -39t-84 -14q-69 0 -107 32t-38 92q0 33 7 62l33 154q7 32 20 62t35.5 53t55 37t78.5 14zM173 33q39 0 69 12 t51 31.5t31.5 45.5t10.5 53q0 38 -24 60t-75 22h-57l8 38h46q51 0 81 25.5t31 64.5q0 30 -21.5 52.5t-71.5 22.5q-32 0 -56 -10.5t-41.5 -27.5t-28 -39t-14.5 -44l-37 -174q-2 -11 -3.5 -20.5t-1.5 -18.5q0 -39 23.5 -66t79.5 -27z" />
<glyph unicode="&#x433;" horiz-adv-x="380" d="M158 -8q-61 0 -100.5 27.5t-39.5 82.5q0 36 11.5 63t33.5 47.5t54 35t73 26.5q75 22 109.5 46t34.5 66q0 37 -26 54.5t-71 17.5q-38 0 -75 -15.5t-57 -45.5l-33 22q26 39 69.5 59.5t97.5 20.5q29 0 54.5 -6t44 -19t29.5 -33t11 -48q0 -32 -12 -56t-34 -42t-53 -31.5 t-69 -25.5q-32 -10 -59.5 -19.5t-47 -23.5t-30.5 -34.5t-11 -51.5q0 -42 29.5 -59.5t77.5 -17.5q33 0 70.5 16t63.5 47l31 -22q-58 -81 -176 -81z" />
<glyph unicode="&#x434;" horiz-adv-x="424" d="M241 436q-25 0 -47.5 -8.5t-41.5 -26.5q-19 -19 -34 -48t-25.5 -63t-16 -71t-5.5 -71q0 -13 1.5 -25.5t5.5 -23.5q7 -28 30 -48t69 -20q35 0 61.5 17t44.5 44q12 16 23 41.5t20 55t14.5 59t5.5 53.5v20t-1 19q-4 42 -30 68.5t-74 27.5zM172 -7q-44 0 -72 14t-43.5 36.5 t-21 51.5t-5.5 59q0 23 2.5 46t7.5 44q11 51 24.5 89t32.5 65q23 33 59 54.5t84 21.5q39 0 75 -21t50 -64q4 0 7.5 18t5.5 39.5t3 40t1 20.5q0 32 -5 62t-19.5 52.5t-39.5 36t-65 13.5q-18 0 -40.5 -3t-48.5 -10l-7 36q29 8 53 11t47 3q48 0 79.5 -15.5t50 -41.5t26 -61.5 t7.5 -75.5q0 -46 -8.5 -118.5t-31.5 -170.5q-13 -53 -30.5 -96t-42.5 -73t-58.5 -46.5t-76.5 -16.5z" />
<glyph unicode="&#x435;" horiz-adv-x="406" d="M332 77q-26 -38 -66.5 -60.5t-94.5 -22.5q-41 0 -67.5 13t-42 33.5t-21.5 46t-6 49.5q0 35 4.5 75.5t14.5 81t27 77.5t41.5 66t58 46t76.5 17q72 0 107 -33t35 -81q0 -80 -58 -125.5t-183 -45.5q-12 0 -33.5 1t-41.5 3q-3 -18 -5 -36.5t-2 -33.5q0 -52 22.5 -83.5 t77.5 -31.5q35 0 70 17t55 46zM253 460q-34 0 -61 -15t-47 -42t-34 -64t-22 -82q18 -2 41 -3.5t37 -1.5q51 0 87 9.5t58.5 26.5t33 40t10.5 50q0 37 -27 59.5t-76 22.5z" />
<glyph unicode="&#x436;" horiz-adv-x="783" d="M487 239q-31 -60 -59.5 -119.5t-57.5 -119.5h-39l69 363h-2q-17 -35 -32 -65t-30 -58.5t-31 -58t-36 -63.5q-13 -27 -27.5 -49.5t-34 -39.5t-45 -26.5t-61.5 -9.5q-42 0 -70.5 17.5t-39.5 50.5l31 21q12 -27 33.5 -39.5t47.5 -12.5q39 0 65 18.5t43 45.5q10 18 20.5 47.5 t19 64.5t13.5 71.5t5 68.5q0 49 -21 81t-72 32q-58 0 -97 -50l-27 24q50 65 132 65q33 0 57 -11.5t39.5 -31t22.5 -45t7 -53.5q0 -23 -3 -55.5t-10 -64.5h3q37 64 66.5 127.5t61.5 126.5h33l-71 -375q1 0 1.5 -0.5t1.5 -0.5q22 48 43 89.5t43 86.5q22 43 42.5 81t44.5 66 t53.5 44t69.5 16q43 0 73.5 -17.5t42.5 -51.5l-32 -19q-10 24 -33 37t-49 13q-29 0 -59 -19t-55 -58.5t-41 -102t-16 -149.5q0 -22 4.5 -40t15.5 -31.5t29 -21t44 -7.5q31 0 58 16.5t46 43.5l28 -21q-23 -35 -57 -55.5t-83 -20.5q-37 0 -61.5 11.5t-39 30t-20.5 42.5t-6 50 q0 12 0.5 23t2 23.5t4 28t5.5 36.5h-3z" />
<glyph unicode="&#x437;" horiz-adv-x="370" d="M259 254q28 -9 40.5 -33t12.5 -51q0 -44 -13.5 -77t-37.5 -55t-57 -33t-72 -11q-50 0 -84 21t-51 63l35 18q11 -30 36.5 -47t64.5 -17q57 0 96 34t39 101q0 35 -24 52t-56 17h-50q2 4 4.5 18.5t3.5 18.5h50q19 0 38.5 6.5t34.5 20t24.5 34t9.5 48.5q0 37 -29 55t-68 18 q-37 0 -67 -15.5t-48 -45.5q-4 2 -16.5 10t-15.5 10q24 42 65 61.5t89 19.5q62 0 98 -27t36 -78q0 -14 -3.5 -33.5t-13 -39t-27 -37t-44.5 -26.5z" />
<glyph unicode="&#x438;" horiz-adv-x="435" d="M306 70q-29 -41 -68 -58.5t-76 -17.5q-36 0 -61 12t-40 32.5t-19 48.5t2 60l66 345h43l-64 -337q-5 -24 -3.5 -46t11.5 -38.5t29.5 -26t51.5 -9.5q28 0 53 11t45 30t33.5 44t19.5 53l61 319h43l-96 -492h-43l15 70h-3z" />
<glyph unicode="&#x439;" horiz-adv-x="435" d="M306 70q-29 -41 -68 -58.5t-76 -17.5q-36 0 -61 12t-40 32.5t-19 48.5t2 60l66 345h43l-64 -337q-5 -24 -3.5 -46t11.5 -38.5t29.5 -26t51.5 -9.5q28 0 53 11t45 30t33.5 44t19.5 53l61 319h43l-96 -492h-43l15 70h-3zM212 684q-2 -31 19 -53.5t53 -22.5t60.5 21.5 t39.5 54.5h39q-6 -20 -17.5 -40.5t-29 -36.5t-41 -26t-53.5 -10t-51.5 10t-34.5 26t-18 36t-3 41h37z" />
<glyph unicode="&#x43a;" horiz-adv-x="399" d="M14 0l95 492h43l-44 -223h91q13 0 27.5 3t29 11t28 22.5t24.5 37.5l72 149h42l-67 -142q-17 -36 -37.5 -60.5t-50.5 -32.5q33 -9 43 -34.5t13 -62.5l14 -160h-41l-12 154q-4 49 -25.5 64t-56.5 15h-101l-44 -233h-43z" />
<glyph unicode="&#x43b;" horiz-adv-x="424" d="M284 0q23 114 44.5 226.5t43.5 227.5h-191q-21 -110 -37.5 -189.5t-37.5 -135t-50 -90t-76 -54.5q-3 9 -6.5 17t-6.5 17q29 16 49.5 34t35.5 46.5t28 72.5t27 112l41 208h274q-23 -125 -47 -247t-48 -245h-43v0z" />
<glyph unicode="&#x43c;" horiz-adv-x="521" d="M256 94h-32q-21 69 -36 116.5t-25 81t-17.5 57.5t-13.5 46h-1q-20 -100 -39 -198t-38 -197h-43q23 123 47 245t48 246h41l102 -343q60 86 119 171.5t118 171.5h44l-96 -491h-43q19 100 38 198t39 198z" />
<glyph unicode="&#x43d;" horiz-adv-x="422" d="M332 0h-44l45 233h-233l-45 -233h-44l96 492h43l-43 -223h233l43 223h44z" />
<glyph unicode="&#x43e;" horiz-adv-x="416" d="M253 499q39 0 66.5 -13t44.5 -35t24.5 -49.5t7.5 -57.5q-1 -31 -6 -65.5t-12 -66.5q-11 -53 -27 -94t-39.5 -68.5t-57 -41.5t-79.5 -14q-43 0 -71 12.5t-44 32.5t-22 45t-6 51q0 29 2.5 59t7.5 57q10 57 27.5 103t41.5 77q26 33 60 50.5t82 17.5zM248 460q-34 0 -62 -15 t-47 -43q-12 -18 -23.5 -48t-20.5 -65t-14.5 -71.5t-5.5 -67.5q0 -23 3.5 -44t14.5 -37.5t31.5 -26.5t53.5 -10q46 0 78.5 23t49.5 65q10 22 18.5 50.5t15 59t10 61t3.5 57.5q0 54 -28 83t-77 29z" />
<glyph unicode="&#x43f;" horiz-adv-x="432" d="M154 492q-4 -18 -7.5 -36t-6.5 -36h2q29 41 69 59t78 18q37 0 62 -12.5t39 -33.5t17.5 -49t-2.5 -58l-67 -344h-43l65 332q4 23 4 45t-9 39t-28 27.5t-53 10.5q-38 0 -65.5 -15t-47 -39.5t-31.5 -56.5t-18 -65l-54 -278h-42l96 492h42z" />
<glyph unicode="&#x440;" horiz-adv-x="418" d="M-32 -199q33 174 67 346t68 346h42l-12 -65h2q26 33 59 52.5t80 19.5q63 0 92 -34t29 -97q-1 -31 -5 -68t-11 -67q-11 -51 -26 -95t-38.5 -75.5t-56.5 -49.5t-81 -18q-47 0 -73.5 21t-39.5 52h-2l-52 -268h-42zM257 459q-48 0 -82 -30t-49 -74q-16 -45 -26 -93.5 t-15 -93.5q-1 -6 -1 -12.5v-13.5q0 -22 4.5 -41t15.5 -33.5t28 -23t43 -8.5q41 0 68.5 18t45.5 47t29.5 67t19.5 77q6 28 9 55.5t3 53.5q0 22 -4 41t-14.5 33t-28.5 22.5t-46 8.5z" />
<glyph unicode="&#x441;" horiz-adv-x="368" d="M172 -6q-42 0 -70 12t-44.5 32.5t-23 47t-6.5 55.5q0 37 4.5 78t15 80.5t27.5 75.5t42.5 63.5t60.5 43.5t80 16q51 0 86 -23t43 -68l-40 -19q-5 32 -29.5 51t-61.5 19q-55 0 -90.5 -33t-56 -81t-28.5 -102.5t-8 -96.5q0 -22 4.5 -42t16.5 -35.5t32 -24.5t50 -9 q37 0 68.5 18t46.5 50l38 -20q-23 -42 -63 -65t-94 -23z" />
<glyph unicode="&#x442;" horiz-adv-x="711" d="M558 497q41 0 67 -14t39 -37t15 -51.5t-4 -58.5l-66 -336h-43l65 335q4 22 2.5 43t-11 38t-27.5 27.5t-48 10.5q-33 0 -59 -13.5t-45.5 -35.5t-31.5 -50t-18 -57l-58 -298h-43l66 335q4 22 2.5 43.5t-11.5 39t-28.5 28t-48.5 10.5q-36 0 -62.5 -14.5t-45 -38.5t-30 -55 t-17.5 -64l-55 -284h-42q23 123 47.5 245.5t47.5 245.5h42l-13 -70h2q29 39 66 57.5t75 18.5q48 0 79 -23t36 -62q33 44 72.5 64.5t83.5 20.5z" />
<glyph unicode="&#x443;" horiz-adv-x="360" d="M140 19q27 46 55 104t55 120.5t52.5 126t46.5 121.5h43q-66 -176 -128.5 -311t-126.5 -240q-16 -27 -35.5 -51.5t-43 -42.5t-52 -29t-61.5 -11v37q35 3 66.5 16.5t58.5 51.5q12 16 20.5 30t19.5 37l-64 513h43q5 -52 11 -103.5t12 -103.5q4 -32 7.5 -66t6.5 -68 q3 -29 7.5 -67t4.5 -64h2z" />
<glyph unicode="&#x444;" horiz-adv-x="502" d="M150 -198q9 48 18 95.5t19 95.5q-41 3 -70 15.5t-47.5 32.5t-27 47t-8.5 59q1 42 7.5 83.5t17 79t25 68t32.5 50.5q30 33 69 54t101 18l40 207h43l-41 -207q63 -3 98.5 -29.5t47.5 -67.5q7 -25 7.5 -53t-2.5 -56t-9 -55.5t-13 -52.5q-11 -41 -28.5 -76t-44.5 -60.5 t-65 -40.5t-90 -16l-37 -191h-42zM193 31q22 107 43 214l42 214q-51 1 -87 -20t-59 -59q-12 -21 -25.5 -58t-21.5 -78.5t-9.5 -82t10.5 -68.5q21 -55 107 -62zM236 31q41 0 71.5 13.5t52 37t36 55.5t23.5 69q6 22 11 48t7.5 52t1 49t-8.5 40q-11 27 -36 44.5t-73 19.5z" />
<glyph unicode="&#x445;" horiz-adv-x="366" d="M275 0l-75 217q-2 -3 -13.5 -19t-28.5 -39.5t-36 -50t-36 -50t-29 -40t-14 -18.5h-52l189 253q-2 3 -8.5 21t-15.5 43.5t-19 55t-19 55t-16 43.5t-8 21h49l67 -206l149 206h53l-182 -240q1 -3 8.5 -22t17.5 -46t21 -58t21 -58t17 -46t9 -22h-49z" />
<glyph unicode="&#x446;" horiz-adv-x="441" d="M344 -2q-20 14 -26.5 35t-5.5 39h-1q-28 -40 -70 -59t-80 -19q-39 0 -64.5 13t-39 34.5t-16.5 50.5t3 61l66 339h44l-65 -330q-5 -25 -3.5 -48t11.5 -40.5t29.5 -28t50.5 -10.5t57 13.5t46 35t33 49.5t19 58l58 301h43l-75 -378q-2 -12 -3 -26.5t1.5 -28t9.5 -24.5 t21 -18l-36 -141h-38z" />
<glyph unicode="&#x447;" horiz-adv-x="386" d="M302 0h-43l43 225q-29 -15 -63.5 -22.5t-58.5 -7.5q-75 0 -110.5 36t-20.5 111l29 150h42l-29 -147q-11 -52 11.5 -81.5t87.5 -29.5q26 0 59 9t61 24l44 225h44z" />
<glyph unicode="&#x448;" horiz-adv-x="690" d="M154 -6q-41 0 -67 14t-39 37t-15 51.5t4 58.5l66 336h43l-65 -335q-4 -22 -2.5 -43t11 -38t27.5 -27.5t48 -10.5q33 0 59 13.5t45.5 35.5t31.5 50t18 57l58 298h43l-66 -335q-5 -22 -3 -43.5t12 -39t28.5 -28t48.5 -10.5q36 0 62.5 14.5t45 38.5t30 55t17.5 64l55 284h42 q-23 -123 -47.5 -245.5t-47.5 -245.5h-42l13 70h-2q-29 -39 -66 -57.5t-75 -18.5q-48 0 -79 23t-36 62q-33 -44 -72.5 -64.5t-83.5 -20.5z" />
<glyph unicode="&#x449;" horiz-adv-x="709" d="M580 72q-15 -21 -33 -35.5t-38 -23.5t-40.5 -13t-38.5 -4q-48 0 -79.5 20.5t-35.5 62.5q-33 -45 -71.5 -65t-82.5 -20q-41 0 -66.5 14t-39 36.5t-15.5 51.5t4 59l66 336h43l-65 -335q-4 -22 -2.5 -43t10.5 -38t27.5 -27.5t48.5 -10.5q32 0 58 13t45.5 34.5t32 50 t18.5 58.5l58 298h43q-20 -102 -36.5 -182t-29.5 -153q-4 -23 -2.5 -44.5t11 -38.5t28.5 -27.5t49 -10.5t55.5 12.5t45 34t33 49.5t19.5 59l58 301h43l-69 -355q-2 -15 -5.5 -32t-2.5 -33.5t7.5 -30.5t23.5 -23l-36 -140h-37l32 122q-20 13 -27.5 34t-5.5 39h-1z" />
<glyph unicode="&#x44a;" horiz-adv-x="483" d="M176 454h-142l7 38h186q-4 -18 -9.5 -46t-11.5 -57.5t-11.5 -57.5t-9.5 -46h130q41 0 67.5 -11.5t42 -29.5t21.5 -39.5t6 -40.5q0 -38 -14.5 -69.5t-40 -54t-60.5 -35t-76 -12.5q-39 0 -69 12t-48.5 35t-25 55t1.5 73zM261 32q36 0 63 10.5t46 28t28.5 41t9.5 49.5 q0 37 -26 61t-78 24h-126l-18 -88q-5 -26 -1 -49t16.5 -40t34 -27t51.5 -10z" />
<glyph unicode="&#x44b;" horiz-adv-x="535" d="M236 284q41 0 67.5 -11.5t41.5 -29.5t21 -39.5t6 -40.5q0 -38 -14 -69t-39.5 -53.5t-60.5 -35t-77 -12.5q-67 0 -106 34.5t-39 97.5q0 18 5 43l64 324h43l-42 -208h130zM99 246l-18 -88q-3 -15 -3 -29q0 -42 26.5 -69.5t77.5 -27.5q35 0 62.5 10.5t46 28t28.5 40.5t10 49 q0 38 -26 62t-79 24h-125zM397 0q23 123 47.5 245t47.5 247h44l-96 -492h-43z" />
<glyph unicode="&#x44c;" horiz-adv-x="405" d="M151 492l-42 -207h130q41 0 67.5 -11.5t41.5 -29.5t21 -39.5t6 -40.5q0 -38 -14 -69.5t-39.5 -54t-60.5 -35t-77 -12.5q-39 0 -69 12t-48.5 35t-25 55t1.5 73l64 324h44zM185 32q36 0 63 10.5t45.5 28t28.5 41t10 49.5q0 37 -26 61t-79 24h-125l-18 -88q-5 -26 -1 -49 t16.5 -40t34 -27t51.5 -10z" />
<glyph unicode="&#x44d;" horiz-adv-x="373" d="M120 232q2 9 3.5 18t3.5 19h181q4 26 5.5 44.5t1.5 35.5q0 48 -23 78t-80 30q-32 0 -63.5 -15t-51.5 -42l-32 22q26 37 63 56t88 19q38 0 65 -11.5t44 -31t25 -46.5t8 -58q-1 -33 -6 -72t-13 -77.5t-20 -72.5t-27 -57q-22 -33 -58.5 -55t-93.5 -22q-48 0 -84 19.5 t-48 60.5l37 20q9 -30 36 -46t59 -16q44 0 71 16.5t44 42.5q17 24 28 61.5t18 79.5h-181v0z" />
<glyph unicode="&#x44e;" horiz-adv-x="534" d="M377 499q38 0 64 -12.5t42.5 -33t24 -47t7.5 -54.5q0 -35 -5 -71t-13 -72q-11 -51 -26.5 -91t-39 -67t-55.5 -41.5t-76 -14.5q-39 0 -65 11t-42.5 29t-23.5 42t-7 50q0 27 3 52t7 53h-68q-12 -58 -23 -116.5t-23 -115.5h-42l95 491h43l-43 -223h68q11 55 27 98t39 72.5 t55.5 45t76.5 15.5zM374 460q-30 0 -54.5 -11t-44.5 -37q-21 -26 -35 -71.5t-25 -101.5q-12 -62 -12 -100q0 -19 3.5 -38t14 -34.5t30 -25t51.5 -9.5q41 0 67.5 17.5t44 45.5t27.5 63t18 71q6 30 10 61t4 60q0 48 -24 79t-75 31z" />
<glyph unicode="&#x44f;" horiz-adv-x="415" d="M415 492l-94 -492h-43l44 226h-121q-16 0 -31.5 -3t-29.5 -11.5t-26 -24t-21 -39.5l-54 -148h-43l53 144q12 32 31 60t53 38q-34 13 -50 38t-16 59q0 67 44 110t122 43h182zM238 454q-26 0 -49.5 -6.5t-41 -21t-28 -36t-10.5 -51.5q0 -39 28.5 -57t74.5 -18h117l37 190 h-128z" />
<glyph unicode="&#x451;" horiz-adv-x="406" d="M332 77q-26 -38 -66.5 -60.5t-94.5 -22.5q-41 0 -67.5 13t-42 33.5t-21.5 46t-6 49.5q0 35 4.5 75.5t14.5 81t27 77.5t41.5 66t58 46t76.5 17q72 0 107 -33t35 -81q0 -80 -58 -125.5t-183 -45.5q-12 0 -33.5 1t-41.5 3q-3 -18 -5 -36.5t-2 -33.5q0 -52 22.5 -83.5 t77.5 -31.5q35 0 70 17t55 46zM253 460q-34 0 -61 -15t-47 -42t-34 -64t-22 -82q18 -2 41 -3.5t37 -1.5q51 0 87 9.5t58.5 26.5t33 40t10.5 50q0 37 -27 59.5t-76 22.5zM331 604l10 51h47l-10 -51h-47zM164 604l9 51h48l-10 -51h-47z" />
<glyph unicode="&#x452;" horiz-adv-x="429" d="M81 618h54q5 26 10.5 53t10.5 53h42q-5 -26 -10 -53t-10 -53h208l-7 -36h-208l-34 -173h2q26 37 64 61t83 24q35 0 58.5 -11t37.5 -31t20 -48.5t6 -62.5q0 -27 -3.5 -61.5t-10 -70t-15.5 -68t-21 -54.5q-26 -51 -71.5 -77t-127.5 -28l7 36q47 2 79.5 16t54.5 38t34.5 57 t20.5 74q7 34 9.5 66.5t2.5 58.5q0 67 -21 96.5t-68 29.5q-36 0 -64.5 -17t-50 -44.5t-35.5 -61.5t-20 -68l-50 -263h-43q29 146 57 291t56 291h-54z" />
<glyph unicode="&#x453;" horiz-adv-x="390" d="M245 571l93 152l44 -18l-112 -145zM158 -8q-61 0 -100.5 27.5t-39.5 82.5q0 36 11.5 63t33.5 47.5t54 35t73 26.5q75 22 109.5 46t34.5 66q0 37 -26 54.5t-71 17.5q-38 0 -75 -15.5t-57 -45.5l-33 22q26 39 69.5 59.5t97.5 20.5q29 0 54.5 -6t44 -19t29.5 -33t11 -48 q0 -32 -12 -56t-34 -42t-53 -31.5t-69 -25.5q-32 -10 -59.5 -19.5t-47 -23.5t-30.5 -34.5t-11 -51.5q0 -42 29.5 -59.5t77.5 -17.5q33 0 70.5 16t63.5 47l31 -22q-58 -81 -176 -81z" />
<glyph unicode="&#x454;" horiz-adv-x="373" d="M172 -6q-42 0 -69.5 11t-44 30.5t-23 46t-6.5 57.5q0 26 2 53.5t7 54.5q7 48 23 93t42 80t64 56.5t91 21.5q51 0 86 -23t43 -68q-11 -5 -20 -9.5t-20 -9.5q-5 32 -29.5 51t-61.5 19q-39 0 -68 -16.5t-49 -43.5t-32.5 -61t-19.5 -68h183l-7 -38h-183q-5 -25 -6 -47t-1 -39 q0 -26 5 -46.5t17 -35t32 -22.5t50 -8q37 0 68 18.5t46 50.5l38 -20q-23 -42 -63 -65t-94 -23z" />
<glyph unicode="&#x455;" horiz-adv-x="387" d="M241 499q54 0 88.5 -21t50.5 -60l-40 -20q-23 60 -104 60q-55 0 -88.5 -30t-33.5 -72q0 -19 7.5 -31.5t21.5 -22t33.5 -16t44.5 -13.5q27 -7 49.5 -16t38.5 -23t25 -33.5t9 -47.5q0 -70 -45.5 -115t-137.5 -45q-59 0 -97.5 23t-52.5 67l37 20q14 -35 42 -52.5t76 -17.5 q26 0 50 7t42 21.5t29 35.5t11 50q0 22 -8 36.5t-22.5 24.5t-34 16t-41.5 12q-58 16 -90.5 41t-32.5 72q0 69 48 109.5t125 40.5z" />
<glyph unicode="&#x456;" horiz-adv-x="175" d="M146 628l9 48h46l-9 -48h-46zM26 0l95 493h43l-95 -493h-43z" />
<glyph unicode="&#x457;" horiz-adv-x="175" d="M213 597l10 51h47l-10 -51h-47zM46 597l9 51h48l-10 -51h-47zM26 0l95 493h43l-95 -493h-43z" />
<glyph unicode="&#x458;" horiz-adv-x="182" d="M16 -73q27 141 55 281.5t55 283.5h44q-28 -146 -56 -289t-56 -287q-11 -53 -39.5 -85.5t-83.5 -32.5h-11.5t-11.5 1l7 40h18q38 0 54.5 23t24.5 65zM161 675h47l-9 -47h-47z" />
<glyph unicode="&#x459;" horiz-adv-x="643" d="M472 284q35 0 62 -10t45 -26.5t27.5 -38.5t9.5 -46q0 -38 -14.5 -69t-40 -53.5t-60.5 -35t-76 -12.5q-68 0 -106.5 35t-38.5 98q0 22 4 42l56 285h-156l-38 -200q-11 -59 -25.5 -102.5t-34 -76t-45 -54t-59.5 -34.5l-13 34q33 16 56 41t39 57.5t26.5 73t19.5 87.5l41 213 h241q-11 -53 -21 -104.5t-21 -103.5h122zM342 246l-17 -88q-3 -15 -3 -29q0 -42 26 -69.5t77 -27.5q36 0 63.5 10.5t46 28t28.5 40.5t10 49q0 38 -26 62t-79 24h-126z" />
<glyph unicode="&#x45a;" horiz-adv-x="647" d="M395 492l-42 -207h130q41 0 67.5 -11.5t42 -29.5t21.5 -39.5t6 -40.5q0 -38 -14.5 -69.5t-40 -54t-60.5 -35t-77 -12.5q-39 0 -69 12t-48.5 35t-25 55t1.5 73l16 78h-200q-5 -21 -11.5 -54.5t-13 -69t-13 -68.5t-10.5 -54h-43l95 492h43q-3 -18 -8.5 -46t-11 -58 t-11 -57.5t-9.5 -45.5h200l41 207h44zM429 32q36 0 63 10.5t45.5 28t28.5 41t10 49.5q0 37 -26 61t-79 24h-125l-18 -88q-5 -26 -1 -49t16.5 -40t34 -27t51.5 -10z" />
<glyph unicode="&#x45b;" horiz-adv-x="432" d="M73 614h60l23 113h42q-6 -29 -11.5 -57t-10.5 -56h203l-6 -35h-204q-8 -40 -15.5 -79.5t-15.5 -79.5h2q29 40 69 58.5t78 18.5q36 0 61 -12.5t39.5 -34t18 -50t-2.5 -59.5l-66 -341h-44l65 332q4 22 4 44t-9 39t-27.5 28t-51.5 11q-38 0 -65.5 -15.5t-47.5 -40.5 t-32.5 -57t-18.5 -66l-53 -275h-42q28 145 55.5 289t56.5 290h-60z" />
<glyph unicode="&#x45c;" horiz-adv-x="399" d="M229 571l93 152l44 -18l-112 -145zM14 0l95 492h43l-44 -223h91q13 0 27.5 3t29 11t28 22.5t24.5 37.5l72 149h42l-67 -142q-17 -36 -37.5 -60.5t-50.5 -32.5q33 -9 43 -34.5t13 -62.5l14 -160h-41l-12 154q-4 49 -25.5 64t-56.5 15h-101l-44 -233h-43z" />
<glyph unicode="&#x45e;" horiz-adv-x="360" d="M140 19q27 46 55 104t55 120.5t52.5 126t46.5 121.5h43q-66 -176 -128.5 -311t-126.5 -240q-16 -27 -35.5 -51.5t-43 -42.5t-52 -29t-61.5 -11v37q35 3 66.5 16.5t58.5 51.5q12 16 20.5 30t19.5 37l-64 513h43q5 -52 11 -103.5t12 -103.5q4 -32 7.5 -66t6.5 -68 q3 -29 7.5 -67t4.5 -64h2zM160 684q-2 -31 19 -53.5t53 -22.5t60.5 21.5t39.5 54.5h39q-6 -20 -17.5 -40.5t-29 -36.5t-41 -26t-53.5 -10t-51.5 10t-34.5 26t-18 36t-3 41h37z" />
<glyph unicode="&#x45f;" horiz-adv-x="433" d="M306 70q-29 -41 -68 -58.5t-76 -17.5q-36 0 -61 12t-40 32.5t-19 48.5t2 60l66 345h43l-64 -337q-5 -24 -3.5 -46t11.5 -38.5t29.5 -26t51.5 -9.5q28 0 53 11t45 30t33.5 44t19.5 53l61 319h43l-96 -492h-43l15 70h-3zM228 -23q-3 -12 -7.5 -32t-10 -41t-10 -40.5 t-7.5 -30.5h-39l30 135z" />
<glyph unicode="&#x490;" horiz-adv-x="422" d="M493 654h-299l-126 -654h-44l134 695h302l24 119h42z" />
<glyph unicode="&#x491;" horiz-adv-x="351" d="M385 453h-242l-87 -453h-43l94 492h246l21 109h41z" />
<glyph unicode="&#x4d9;" horiz-adv-x="406" d="M166 -6q-72 0 -105.5 31.5t-33.5 83.5q0 79 60 125t179 46q12 0 34 -1.5t42 -3.5q8 40 8 73q0 51 -22.5 81.5t-76.5 30.5q-35 0 -69.5 -17.5t-55.5 -46.5l-32 20q24 40 65.5 62t94.5 22q38 0 64 -11t42.5 -31.5t24 -48.5t7.5 -61q-2 -59 -13.5 -121.5t-38 -114t-69 -85 t-105.5 -33.5zM168 33q35 0 62.5 15t48.5 42t35 64t22 81q-18 3 -42 4.5t-38 1.5q-96 0 -140.5 -35.5t-44.5 -90.5q0 -36 24.5 -59t72.5 -23z" />
<glyph unicode="&#x1e80;" horiz-adv-x="687" d="M420 606l-107 -256l-148 -350h-48l-6 696h43q0 -78 0.5 -155.5t0.5 -155.5v-153t-1 -153h2l137 325q31 73 62 145.5t61 146.5h42q1 -14 2 -45t2 -73t2.5 -91.5t3.5 -101t3.5 -101t2.5 -91t2 -72t2 -43.5h2q24 64 49 128l50 128l141 362h46l-277 -696h-47 q-2 80 -4.5 159.5t-5.5 159.5q-2 72 -4.5 143.5t-5.5 143.5h-2zM458 744l-148 89l26 39l137 -106z" />
<glyph unicode="&#x1e81;" horiz-adv-x="607" d="M333 432q-42 -115 -92 -221t-110 -211h-45l-38 492h44l21 -306q2 -30 3.5 -62t0.5 -67h2q51 94 101.5 204.5t97.5 230.5h50l25 -301q3 -31 5 -62.5t2 -67.5h2q55 97 104 205.5t89 225.5h45q-23 -68 -48.5 -130.5t-53.5 -122.5t-59.5 -119t-67.5 -120h-45l-26 312 q-2 23 -3.5 53t-0.5 67h-3zM353 558l-102 146l41 22l84 -156z" />
<glyph unicode="&#x1e82;" horiz-adv-x="687" d="M420 606l-107 -256l-148 -350h-48l-6 696h43q0 -78 0.5 -155.5t0.5 -155.5v-153t-1 -153h2l137 325q31 73 62 145.5t61 146.5h42q1 -14 2 -45t2 -73t2.5 -91.5t3.5 -101t3.5 -101t2.5 -91t2 -72t2 -43.5h2q24 64 49 128l50 128l141 362h46l-277 -696h-47 q-2 80 -4.5 159.5t-5.5 159.5q-2 72 -4.5 143.5t-5.5 143.5h-2zM416 750l150 107l28 -38l-163 -91z" />
<glyph unicode="&#x1e83;" horiz-adv-x="607" d="M333 432q-42 -115 -92 -221t-110 -211h-45l-38 492h44l21 -306q2 -30 3.5 -62t0.5 -67h2q51 94 101.5 204.5t97.5 230.5h50l25 -301q3 -31 5 -62.5t2 -67.5h2q55 97 104 205.5t89 225.5h45q-23 -68 -48.5 -130.5t-53.5 -122.5t-59.5 -119t-67.5 -120h-45l-26 312 q-2 23 -3.5 53t-0.5 67h-3zM336 571l93 152l44 -18l-112 -145z" />
<glyph unicode="&#x1e84;" horiz-adv-x="687" d="M420 606l-107 -256l-148 -350h-48l-6 696h43q0 -78 0.5 -155.5t0.5 -155.5v-153t-1 -153h2l137 325q31 73 62 145.5t61 146.5h42q1 -14 2 -45t2 -73t2.5 -91.5t3.5 -101t3.5 -101t2.5 -91t2 -72t2 -43.5h2q24 64 49 128l50 128l141 362h46l-277 -696h-47 q-2 80 -4.5 159.5t-5.5 159.5q-2 72 -4.5 143.5t-5.5 143.5h-2zM344 747l9 51h48l-9 -51h-48zM506 747l10 51h48l-10 -51h-48z" />
<glyph unicode="&#x1e85;" horiz-adv-x="607" d="M333 432q-42 -115 -92 -221t-110 -211h-45l-38 492h44l21 -306q2 -30 3.5 -62t0.5 -67h2q51 94 101.5 204.5t97.5 230.5h50l25 -301q3 -31 5 -62.5t2 -67.5h2q55 97 104 205.5t89 225.5h45q-23 -68 -48.5 -130.5t-53.5 -122.5t-59.5 -119t-67.5 -120h-45l-26 312 q-2 23 -3.5 53t-0.5 67h-3zM425 597l10 51h47l-10 -51h-47zM258 597l9 51h48l-10 -51h-47z" />
<glyph unicode="&#x1ef2;" horiz-adv-x="408" d="M228 341q21 35 42.5 70.5t43.5 70.5l130 214h48l-252 -405l-56 -291h-43l56 291q-23 102 -47 202.5t-48 202.5h43q14 -57 25.5 -114.5t25.5 -114.5q7 -30 14.5 -62.5t15.5 -63.5h2zM317 729l-148 89l26 39l137 -106z" />
<glyph unicode="&#x1ef3;" horiz-adv-x="360" d="M140 19q27 46 55 104t55 120.5t52.5 126t46.5 121.5h43q-66 -176 -128.5 -311t-126.5 -240q-16 -27 -35.5 -51.5t-43 -42.5t-52 -29t-61.5 -11v37q35 3 66.5 16.5t58.5 51.5q12 16 20.5 30t19.5 37l-64 513h43q5 -52 11 -103.5t12 -103.5q4 -32 7.5 -66t6.5 -68 q3 -29 7.5 -67t4.5 -64h2zM231 558l-102 146l41 22l84 -156z" />
<glyph unicode="&#x2013;" horiz-adv-x="492" d="M27 242l8 43h452l-9 -43h-451z" />
<glyph unicode="&#x2014;" horiz-adv-x="990" d="M24 242l8 43h950l-8 -43h-950z" />
<glyph unicode="&#x2015;" horiz-adv-x="987" d="M27 242l8 43h947l-9 -43h-946z" />
<glyph unicode="&#x2018;" horiz-adv-x="175" d="M219 710l-41 -96h15l-12 -61h-57l12 62l56 95h27z" />
<glyph unicode="&#x2019;" horiz-adv-x="175" d="M125 554l41 96h-15l12 61h57l-12 -62l-56 -95h-27z" />
<glyph unicode="&#x201a;" horiz-adv-x="155" d="M-18 -97l41 96h-15l12 60h57l-11 -62l-57 -94h-27z" />
<glyph unicode="&#x201c;" horiz-adv-x="242" d="M201 710l-41 -96h15l-13 -61h-56l12 62l56 95h27zM297 710l-41 -96h14l-12 -61h-57l12 62l56 95h28z" />
<glyph unicode="&#x201d;" horiz-adv-x="242" d="M203 553l42 97h-15l13 61h56l-12 -62l-56 -96h-28zM108 553l42 97h-15l12 61h57l-12 -62l-57 -96h-27z" />
<glyph unicode="&#x201e;" horiz-adv-x="273" d="M-13 -97l41 96h-15l12 60h57l-11 -62l-57 -94h-27zM91 -97l41 96h-15l12 60h57l-11 -62l-57 -94h-27z" />
<glyph unicode="&#x2020;" horiz-adv-x="386" d="M254 413l-117 -602h-44l117 602h-156l8 41h156l47 239h44l-47 -239h157l-8 -41h-157z" />
<glyph unicode="&#x2021;" horiz-adv-x="391" d="M212 413h-157l7 41h158l47 239h44l-47 -239h159l-8 -41h-158l-48 -244h158l-7 -40h-159l-62 -318h-44l62 318h-158l8 40h157z" />
<glyph unicode="&#x2022;" horiz-adv-x="355" d="M265 271q0 -36 -25 -61t-60 -25q-18 0 -33.5 7t-27.5 18.5t-18.5 27t-6.5 33.5q0 36 25 61.5t61 25.5q18 0 33.5 -7t27 -18.5t18 -27.5t6.5 -34z" />
<glyph unicode="&#x2023;" horiz-adv-x="399" d="M367 277l-286 -157v303z" />
<glyph unicode="&#x2026;" horiz-adv-x="559" d="M11 0l11 61h56l-11 -61h-56zM391 0l11 61h56l-11 -61h-56zM200 0l11 61h56l-11 -61h-56z" />
<glyph unicode="&#x2030;" horiz-adv-x="844" d="M164 275q-31 0 -51.5 9t-32 23.5t-14.5 33.5t1 39l44 222q9 45 34.5 70t76.5 25q23 0 42.5 -7.5t32.5 -20.5t19 -32t2 -41l-6 -32l-37 -193q-8 -41 -35 -68.5t-76 -27.5zM425 -3q-31 0 -51.5 9t-32 23.5t-14.5 33.5t1 39l44 222q9 45 34.5 70t76.5 25q23 0 42.5 -7.5 t32.5 -20.5t19 -32t2 -41l-6 -32l-37 -193q-8 -41 -35 -68.5t-76 -27.5zM675 -3q-31 0 -51.5 9t-32 23.5t-14.5 33.5t1 39l44 222q9 45 34.5 70t76.5 25q23 0 42.5 -7.5t32.5 -20.5t19 -32t2 -41l-6 -32l-37 -193q-8 -41 -35 -68.5t-76 -27.5zM483 386q-36 0 -52.5 -18.5 t-22.5 -45.5l-44 -224q-5 -29 9 -48.5t51 -19.5q38 0 54.5 19.5t21.5 46.5q1 6 4.5 23.5l8 40t9.5 48.5t9.5 48.5t7.5 40t4 23.5q5 27 -10.5 46.5t-49.5 19.5zM222 664q-36 0 -52.5 -18.5t-22.5 -45.5l-44 -224q-5 -29 9 -48.5t51 -19.5q38 0 54.5 19.5t21.5 46.5 q1 6 4.5 23.5l8 40t9.5 48.5t9.5 48.5t7.5 40t4 23.5q5 27 -10.5 46.5t-49.5 19.5zM733 386q-36 0 -52.5 -18.5t-22.5 -45.5l-44 -224q-5 -29 9 -48.5t51 -19.5q38 0 54.5 19.5t21.5 46.5q1 6 4.5 23.5l8 40t9.5 48.5t9.5 48.5t7.5 40t4 23.5q5 27 -10.5 46.5t-49.5 19.5z M82 -17h-37l512 731h38z" />
<glyph unicode="&#x2039;" horiz-adv-x="266" d="M236 404l-146 -179l76 -179h-44l-77 179l146 179h45z" />
<glyph unicode="&#x203a;" horiz-adv-x="250" d="M18 46l147 180l-76 178h43l78 -179l-147 -179h-45z" />
<glyph unicode="&#x2044;" horiz-adv-x="162" d="M-153 -17h-37l512 731h38z" />
<glyph unicode="&#x2070;" horiz-adv-x="262" d="M154 365q-31 0 -51.5 9t-32 23.5t-14.5 33.5t1 39l44 222q9 45 34.5 70t76.5 25q23 0 42.5 -7.5t32.5 -20.5t19 -32t2 -41l-6 -32l-37 -193q-8 -41 -35 -68.5t-76 -27.5zM212 754q-36 0 -52.5 -18.5t-22.5 -45.5l-44 -224q-5 -29 9 -48.5t51 -19.5q38 0 54.5 19.5 t21.5 46.5q1 6 4.5 23.5l8 40t9.5 48.5t9.5 48.5t7.5 40t4 23.5q5 27 -10.5 46.5t-49.5 19.5z" />
<glyph unicode="&#x2074;" horiz-adv-x="266" d="M242 436q0 -1 -2 -11.5t-4.5 -22.5t-4.5 -22.5t-2 -11.5h-36l13 68h-167l7 30l187 317h40l-187 -314h126l23 120h38l-24 -120h39l-8 -33h-38z" />
<glyph unicode="&#x2075;" horiz-adv-x="258" d="M90 454q0 -23 12 -40.5t44 -17.5q43 0 64 27.5t29 75.5q3 17 4 33t1 25q0 24 -12.5 38t-41.5 14q-17 0 -38.5 -9t-33.5 -24h-33l42 207h197q-2 -8 -3.5 -16.5t-3.5 -16.5h-163q-6 -34 -12.5 -65.5t-13.5 -66.5q35 22 72 22q81 0 81 -75q0 -16 -2 -34t-5 -36 q-11 -63 -41.5 -97t-87.5 -34q-42 0 -65.5 21t-23.5 62z" />
<glyph unicode="&#x2076;" horiz-adv-x="257" d="M198 603q44 0 61 -25t17 -62q-1 -28 -8.5 -55t-22.5 -48.5t-39.5 -35t-58.5 -13.5q-43 0 -66 23.5t-23 61.5q0 36 11.5 67t26.5 51l147 215h39l-132 -191l1 -1q11 7 25 10t22 3zM149 395q24 0 42 10.5t29 27t16.5 37.5t5.5 42q0 29 -13.5 45t-43.5 16q-23 0 -40 -10.5 t-28.5 -27.5t-17 -37.5t-5.5 -40.5q0 -29 13 -45.5t42 -16.5z" />
<glyph unicode="&#x2077;" horiz-adv-x="240" d="M98 368h-39l216 382h-137l-11 -57h-37l18 90h213l-6 -29z" />
<glyph unicode="&#x2078;" horiz-adv-x="259" d="M219 786q42 0 66.5 -22t25.5 -58q0 -17 -3.5 -36t-11.5 -36.5t-21.5 -32t-32.5 -20.5q18 -10 26 -26t10 -41q0 -28 -7.5 -55t-23 -48t-40.5 -34t-59 -13q-48 0 -72 25.5t-24 63.5q0 16 4 35.5t13 38.5t23.5 34t35.5 23q-16 8 -24.5 25.5t-8.5 36.5q0 28 7.5 53t23 44.5 t38.5 31t55 11.5zM183 568q-27 0 -45.5 -11t-29.5 -27.5t-16 -37t-5 -38.5q0 -22 13.5 -40t48.5 -18q24 0 41.5 10t29 26.5t17 36.5t5.5 41q-1 25 -15 41.5t-44 16.5zM187 598q26 0 43 9t27 24t14 33.5t4 37.5q0 24 -16 38t-45 14q-24 0 -40 -11t-25.5 -27.5t-13.5 -36 t-4 -37.5q1 -20 15.5 -32t40.5 -12z" />
<glyph unicode="&#x2079;" horiz-adv-x="252" d="M166 546q-38 0 -58 20t-21 61q0 26 5.5 54t19.5 51t38 38t61 15q42 0 68 -21t27 -62q0 -35 -11.5 -66.5t-26.5 -53.5l-147 -214h-39q33 48 66 95.5t66 94.5l-1 1q-12 -7 -24.5 -10t-22.5 -3zM178 578q25 0 42.5 10.5t28.5 27.5t16 38.5t5 42.5q0 28 -16 42.5t-43 14.5 q-25 0 -42 -11t-27 -28t-14 -38t-4 -41q0 -29 11.5 -43.5t42.5 -14.5z" />
<glyph unicode="&#x207a;" horiz-adv-x="267" d="M211 527l-20 -103h-32l20 103h-106l6 31h106l20 102h32l-20 -102h106l-6 -31h-106z" />
<glyph unicode="&#x207b;" horiz-adv-x="225" d="M91 520l6 33h169l-6 -33h-169z" />
<glyph unicode="&#x207c;" horiz-adv-x="267" d="M63 476l6 31h244l-6 -31h-244zM81 569l6 32h244l-6 -32h-244z" />
<glyph unicode="&#x207d;" horiz-adv-x="156" d="M137 298q-24 38 -37.5 84.5t-14.5 94.5q0 44 11 88t30.5 85.5t47 79t59.5 69.5l18 -12q-60 -68 -95 -149.5t-34 -164.5q0 -42 9 -83.5t27 -78.5z" />
<glyph unicode="&#x207e;" horiz-adv-x="156" d="M24 312q28 32 51.5 69.5t40.5 78t26.5 82.5t9.5 84t-8.5 83t-27.5 79l22 10q25 -37 38 -82t13 -92q0 -46 -11 -91t-31.5 -87t-48 -79.5t-58.5 -68.5z" />
<glyph unicode="&#x207f;" horiz-adv-x="295" d="M233 278l43 219q6 32 -6 53t-52 21q-25 0 -43 -9.5t-30 -25t-19.5 -35t-11.5 -39.5l-35 -184h-36l61 324h36q-2 -11 -3.5 -20t-3.5 -20q20 22 46 33t50 11q33 0 51.5 -10.5t26 -27.5t7 -38t-4.5 -42l-39 -210h-37z" />
<glyph unicode="&#x2080;" horiz-adv-x="262" d="M100 -93q-31 0 -51.5 9t-32 23.5t-14.5 33.5t1 39l44 222q9 45 34.5 70t76.5 25q23 0 42.5 -7.5t32.5 -20.5t19 -32t2 -41l-6 -32l-37 -193q-8 -41 -35 -68.5t-76 -27.5zM158 296q-36 0 -52.5 -18.5t-22.5 -45.5l-44 -224q-5 -29 9 -48.5t51 -19.5q38 0 54.5 19.5 t21.5 46.5q1 6 4.5 23.5l8 40t9.5 48.5t9.5 48.5t7.5 40t4 23.5q5 27 -10.5 46.5t-49.5 19.5z" />
<glyph unicode="&#x2081;" horiz-adv-x="209" d="M101 -90h-36l72 373l-74 -42l8 41l77 43h35z" />
<glyph unicode="&#x2082;" horiz-adv-x="260" d="M-20 -90l6 32l197 221q36 41 36 78q1 23 -14.5 38t-44.5 15q-26 0 -48 -16.5t-31 -48.5l-37 8q12 42 43.5 66t74.5 24q47 0 71.5 -22t23.5 -61q0 -29 -13.5 -53.5t-32.5 -46.5q-4 -5 -18 -20t-32 -35.5t-39 -44t-39.5 -44t-32 -35.5t-18.5 -20h165l-8 -35h-209z" />
<glyph unicode="&#x2083;" horiz-adv-x="258" d="M164 328q42 0 66 -23t24 -58q0 -13 -3 -30.5t-11 -34.5t-21.5 -32t-34.5 -24q23 -11 29 -28.5t6 -37.5q0 -26 -7 -53t-22.5 -49.5t-41.5 -37t-64 -14.5t-62 22t-25 60l35 6q1 -25 13.5 -40.5t41.5 -15.5q25 0 43 10t30 27t17.5 38.5t5.5 44.5q0 53 -55 53h-26l7 31h24 q37 0 60.5 28.5t23.5 74.5q0 22 -16 36.5t-40 14.5q-29 0 -48.5 -15.5t-28.5 -41.5q-9 2 -18.5 3.5t-18.5 3.5q13 40 43 61t74 21z" />
<glyph unicode="&#x2084;" horiz-adv-x="266" d="M189 -22q0 -1 -2 -11.5t-4.5 -22.5t-4.5 -22.5t-2 -11.5h-36l13 68h-167l7 30l187 317h40l-187 -314h126l23 120h38l-24 -120h39l-8 -33h-38z" />
<glyph unicode="&#x2085;" horiz-adv-x="258" d="M37 -4q0 -23 12 -40.5t44 -17.5q43 0 64 27.5t29 75.5q3 17 4 33t1 25q0 24 -12.5 38t-41.5 14q-17 0 -38.5 -9t-33.5 -24h-33l42 207h197q-2 -8 -3.5 -16.5t-3.5 -16.5h-163q-6 -34 -12.5 -65.5t-13.5 -66.5q35 22 72 22q81 0 81 -75q0 -16 -2 -34t-5 -36 q-11 -63 -41.5 -97t-87.5 -34q-42 0 -65.5 21t-23.5 62z" />
<glyph unicode="&#x2086;" horiz-adv-x="257" d="M145 145q44 0 61 -25t17 -62q-1 -28 -8.5 -55t-22.5 -48.5t-39.5 -35t-58.5 -13.5q-43 0 -66 23.5t-23 61.5q0 36 11.5 67t26.5 51l147 215h39l-132 -191l1 -1q11 7 25 10t22 3zM96 -63q24 0 42 10.5t29 27t16.5 37.5t5.5 42q0 29 -13.5 45t-43.5 16q-23 0 -40 -10.5 t-28.5 -27.5t-17 -37.5t-5.5 -40.5q0 -29 13 -45.5t42 -16.5z" />
<glyph unicode="&#x2087;" horiz-adv-x="240" d="M45 -90h-39l216 382h-137l-11 -57h-37l18 90h213l-6 -29z" />
<glyph unicode="&#x2088;" horiz-adv-x="259" d="M166 328q42 0 66.5 -22t25.5 -58q0 -17 -3.5 -36t-11.5 -36.5t-21.5 -32t-32.5 -20.5q18 -10 26 -26t10 -41q0 -28 -7.5 -55t-23 -48t-40.5 -34t-59 -13q-48 0 -72 25.5t-24 63.5q0 16 4 35.5t13 38.5t23.5 34t35.5 23q-16 8 -24.5 25.5t-8.5 36.5q0 28 7.5 53t23 44.5 t38.5 31t55 11.5zM130 110q-27 0 -45.5 -11t-29.5 -27.5t-16 -37t-5 -38.5q0 -22 13.5 -40t48.5 -18q24 0 41.5 10t29 26.5t17 36.5t5.5 41q-1 25 -15 41.5t-44 16.5zM134 140q26 0 43 9t27 24t14 33.5t4 37.5q0 24 -16 38t-45 14q-24 0 -40 -11t-25.5 -27.5t-13.5 -36 t-4 -37.5q1 -20 15.5 -32t40.5 -12z" />
<glyph unicode="&#x2089;" horiz-adv-x="252" d="M113 88q-38 0 -58 20t-21 61q0 26 5.5 54t19.5 51t38 38t61 15q42 0 68 -21t27 -62q0 -35 -11.5 -66.5t-26.5 -53.5l-147 -214h-39q33 48 66 95.5t66 94.5l-1 1q-12 -7 -24.5 -10t-22.5 -3zM125 120q25 0 42.5 10.5t28.5 27.5t16 38.5t5 42.5q0 28 -16 42.5t-43 14.5 q-25 0 -42 -11t-27 -28t-14 -38t-4 -41q0 -29 11.5 -43.5t42.5 -14.5z" />
<glyph unicode="&#x208a;" horiz-adv-x="267" d="M127 96l-20 -103h-32l20 103h-106l6 31h106l20 102h32l-20 -102h106l-6 -31h-106z" />
<glyph unicode="&#x208b;" horiz-adv-x="225" d="M7 89l6 34h169l-6 -34h-169z" />
<glyph unicode="&#x208c;" horiz-adv-x="267" d="M-21 43l6 31h244l-6 -31h-244zM-3 136l6 32h244l-6 -32h-244z" />
<glyph unicode="&#x208d;" horiz-adv-x="156" d="M84 -146q-24 38 -37.5 84.5t-14.5 94.5q0 44 11 88t30.5 85.5t47 79t59.5 69.5l18 -12q-60 -68 -95 -149.5t-34 -164.5q0 -42 9 -83.5t27 -78.5z" />
<glyph unicode="&#x208e;" horiz-adv-x="156" d="M-29 -132q28 32 51.5 69.5t40.5 78t26.5 82.5t9.5 84t-8.5 83t-27.5 79l22 10q25 -37 38 -82t13 -92q0 -46 -11 -91t-31.5 -87t-48 -79.5t-58.5 -68.5z" />
<glyph unicode="&#x20ab;" horiz-adv-x="410" d="M258 607h98l17 80h39l-16 -80h44q-2 -8 -3.5 -16.5t-2.5 -16.5h-44l-89 -454h-39q2 11 4.5 23.5t4.5 24.5q-23 -29 -51 -41t-56 -12q-42 0 -71 23t-29 75q0 28 3 60t9.5 64t17 61.5t26.5 52.5q18 26 46.5 43t70.5 17q38 0 60.5 -17t30.5 -37l22 117h-99zM177 153 q21 0 37.5 7t29 19t21.5 28t16 33q6 18 11.5 40t9.5 43t6.5 39.5t2.5 30.5q0 32 -20 56t-55 24q-28 0 -49 -13t-35 -32q-9 -14 -16.5 -33t-12.5 -40.5t-9 -44t-6 -41.5q-1 -11 -1.5 -21t-0.5 -20q0 -38 16 -56.5t55 -18.5zM298 46l-7 -37h-268l7 37h268z" />
<glyph unicode="&#x20ac;" horiz-adv-x="410" d="M72 317l14 71h-38l6 31h38l6 31q9 46 22.5 91.5t37.5 80.5t62.5 57t97.5 22q63 0 104.5 -30.5t49.5 -88.5l-44 -14q-7 45 -36 69t-74 24q-49 0 -80.5 -20.5t-51 -53t-30 -72t-17.5 -78.5l-4 -18h210l-6 -31h-210l-13 -71h210l-6 -32h-210l-16 -96q-5 -27 -4 -55t12 -50.5 t34.5 -36.5t62.5 -14q100 0 147 98l41 -14q-29 -65 -78.5 -93.5t-112.5 -28.5q-49 0 -80.5 16t-49 43t-21 63t3.5 76l16 92h-36l6 32h37z" />
<glyph unicode="&#x2103;" horiz-adv-x="682" d="M437 33q60 0 101.5 30.5t64.5 88.5q11 -4 21 -7.5t21 -6.5q-26 -73 -80 -108.5t-129 -35.5q-84 0 -126 43t-42 110q0 19 3.5 42.5t6.5 41.5l43 219q9 46 23 91.5t38.5 80.5t63.5 57t99 22q81 0 125 -39t51 -101q-11 -4 -22 -7.5t-23 -6.5q-2 48 -36.5 79.5t-94.5 31.5 q-51 0 -83 -20t-52 -52t-30.5 -71t-17.5 -78l-38 -198q-5 -23 -7.5 -47.5t-2.5 -41.5q0 -23 6.5 -44t21 -37t38 -26t57.5 -10zM275 590q0 -23 -8.5 -42.5t-23 -34t-34 -23t-42.5 -8.5q-22 0 -41.5 8.5t-34 23t-23 34t-8.5 42.5q0 22 8.5 42t23 34t34 22.5t41.5 8.5 q24 0 43.5 -8.5t34 -22.5t22.5 -34t8 -42zM243 590q0 32 -22 54.5t-54 22.5q-31 0 -53 -22.5t-22 -54.5t21.5 -54.5t53.5 -22.5t54 21.5t22 55.5z" />
<glyph unicode="&#x2105;" horiz-adv-x="628" d="M479 354q52 0 77.5 -30.5t25.5 -75.5q0 -41 -7.5 -85.5t-25.5 -81.5t-48 -61t-75 -24q-56 0 -81.5 27.5t-25.5 69.5q0 28 4.5 60.5t13.5 63.5t21.5 57.5t27.5 42.5q17 17 39.5 27t53.5 10zM475 317q-22 0 -37.5 -8t-26.5 -21t-18.5 -31t-13.5 -37q-8 -28 -14 -60.5 t-6 -56.5q0 -13 2.5 -26t10 -23t20.5 -16t33 -6q34 0 57 19.5t36 49.5t18.5 66t5.5 68q0 36 -14.5 59t-52.5 23zM90 -17h-36q129 183 256 365t255 365h37zM242 702q38 0 62 -18.5t32 -51.5l-35 -18q-5 20 -23 35.5t-40 15.5q-29 0 -49 -14t-33.5 -37t-21.5 -53t-12 -61 q-3 -21 -4 -42t5 -38t21 -28t44 -11q26 0 45 14t33 35l31 -18q-38 -69 -114 -69q-41 0 -63.5 17t-32 43t-8.5 58t7 61q7 39 19 72t30.5 57t44.5 37.5t62 13.5z" />
<glyph unicode="&#x2109;" horiz-adv-x="647" d="M419 655l-54 -281h262l-8 -40h-262l-64 -334h-46l135 696h349l-8 -41h-304zM275 590q0 -23 -8.5 -42.5t-23 -34t-34 -23t-42.5 -8.5q-22 0 -41.5 8.5t-34 23t-23 34t-8.5 42.5q0 22 8.5 42t23 34t34 22.5t41.5 8.5q24 0 43.5 -8.5t34 -22.5t22.5 -34t8 -42zM243 590 q0 32 -22 54.5t-54 22.5q-31 0 -53 -22.5t-22 -54.5t21.5 -54.5t53.5 -22.5t54 21.5t22 55.5z" />
<glyph unicode="&#x2113;" horiz-adv-x="420" d="M366 122q-32 -64 -74 -98t-93 -34q-48 0 -76.5 32t-28.5 89q0 22 5 47t12 63q-14 -11 -32.5 -22.5t-30.5 -19.5v1q0 4 -2 15t-2 12q4 3 13.5 9t20.5 14t22.5 16.5t19.5 15.5l48 246q11 55 29 93t40 61t46.5 33t49.5 10q29 0 50 -21t21 -66q0 -44 -18 -89.5t-51 -92 t-79 -94t-101 -95.5l-14 -67q-3 -17 -5.5 -35.5t-2.5 -31.5q0 -43 21.5 -64.5t51.5 -21.5q71 0 127 108zM164 296q107 95 155 175.5t48 140.5q0 24 -10 40.5t-34 16.5q-16 0 -33.5 -9t-33 -27.5t-29 -48.5t-21.5 -72z" />
<glyph unicode="&#x2116;" horiz-adv-x="752" d="M178 600q-4 -18 -7.5 -37.5t-9 -48.5t-13 -70.5t-19 -102t-28 -144.5t-38.5 -197h-44l134 696h45l112 -406l52 -191h2q30 150 59 298.5t58 298.5h44l-135 -696h-45l-166 600h-1zM682 699q28 0 47.5 -8.5t32 -23t18 -33.5t5.5 -40q0 -20 -2.5 -42t-7.5 -43 q-14 -70 -45.5 -107t-93.5 -37q-30 0 -50 8t-32 22t-17 32t-5 39t2.5 42t7.5 41q7 30 17 57t22 44q17 23 41.5 36t59.5 13zM679 666q-18 0 -33 -5.5t-27 -19.5q-12 -13 -21.5 -34.5t-15.5 -46.5t-10 -51t-4 -46q0 -25 14.5 -44.5t53.5 -19.5q28 0 47 11.5t31 31.5 q9 15 15 34t10.5 40t6.5 41.5t2 37.5q0 32 -17 51.5t-52 19.5zM507 286l7 34h217l-7 -34h-217z" />
<glyph unicode="&#x2117;" horiz-adv-x="746" d="M528 416q0 -25 -6.5 -47.5t-21 -40t-37.5 -27.5t-56 -10h-85v-171h-41v420h124q58 0 90.5 -31t32.5 -93zM486 416q0 41 -20 63t-62 22h-82v-171h83q45 0 63 24.5t18 61.5zM378 -9q-74 0 -133.5 26.5t-101.5 73.5t-65 111t-23 139t23 139.5t65 112t101.5 74t133.5 26.5 q73 0 132.5 -26.5t102 -74t65.5 -112t23 -139.5t-23 -139t-65.5 -111t-102 -73.5t-132.5 -26.5zM378 654q-65 0 -117 -24.5t-89 -66.5t-56.5 -99t-19.5 -123t20.5 -123t57.5 -99t89 -66t115 -24q64 0 116 24t89 66t57 99t20 123q0 67 -20 124t-57 99t-89 66t-116 24z" />
<glyph unicode="&#x2122;" horiz-adv-x="706" d="M607 608q-29 -59 -57 -118t-56 -119h-27q-28 60 -56 118.5t-56 118.5h-2v-296h-34v383h34l129 -276l127 276h33v-383h-35v296zM170 312h-36v349h-102v35h240v-35h-102v-349z" />
<glyph unicode="&#x2126;" horiz-adv-x="482" d="M92 42q-36 26 -47 71t0 100l53 280q8 40 23 78t41 66.5t64 46t92 17.5q49 0 85 -16.5t58.5 -44.5t30 -65.5t-0.5 -79.5l-53 -291q-10 -53 -35 -96.5t-66 -65.5l1 -1h81l-7 -41h-150l10 47q22 6 42 22t35.5 37t26.5 46t16 50l55 291q6 31 2 61t-20 53t-44.5 37.5 t-70.5 14.5q-44 0 -73.5 -14.5t-49.5 -38t-31.5 -54t-17.5 -61.5l-52 -281q-5 -26 -4.5 -51t8 -46.5t22.5 -38t38 -25.5l-9 -49h-154l7 41h92z" />
<glyph unicode="&#x212b;" horiz-adv-x="475" d="M363 176h-262q-20 -45 -41 -88t-42 -88h-46q84 175 167 348t168 348h48q17 -175 33.5 -348t33.5 -348h-45zM240 467q-4 -8 -13 -27t-21.5 -44.5t-25.5 -53.5t-25.5 -53.5t-21.5 -45t-13 -27.5h240q-6 61 -11 121.5t-11 121.5q-4 45 -7 91t-8 91h-2zM334 708 q-31 0 -50.5 20t-19.5 50q0 21 8.5 39t22.5 32t32.5 22t38.5 8q32 0 52.5 -19.5t20.5 -49.5q0 -21 -9 -40t-23.5 -32.5t-33.5 -21.5t-39 -8zM361 852q-26 0 -47.5 -20.5t-21.5 -48.5q0 -21 13 -34.5t34 -13.5q28 0 49.5 20.5t21.5 49.5q0 20 -13.5 33.5t-35.5 13.5z" />
<glyph unicode="&#x212e;" horiz-adv-x="803" d="M188 308v-189q16 -27 40.5 -48t53.5 -35t61.5 -21t64.5 -7q64 0 121.5 27.5t100.5 75.5h45q-48 -58 -119 -90t-149 -32q-70 0 -132 25.5t-108 70t-72.5 103.5t-26.5 126t26.5 126t72.5 103t108 70t132 26q72 0 133.5 -24.5t106.5 -68.5t71 -105t29 -133h-559zM628 509 q-16 26 -40.5 47t-53.5 36t-61.5 23t-64.5 8q-57 0 -115.5 -31t-104.5 -84v-180h440v181z" />
<glyph unicode="&#x2153;" horiz-adv-x="600" d="M485 418q42 0 66 -23t24 -58q0 -13 -3 -30.5t-11 -34.5t-21.5 -32t-34.5 -24q23 -11 29 -28.5t6 -37.5q0 -26 -7 -53t-22.5 -49.5t-41.5 -37t-64 -14.5t-62 22t-25 60l35 6q1 -25 13.5 -40.5t41.5 -15.5q25 0 43 10t30 27t17.5 38.5t5.5 44.5q0 53 -55 53h-26l7 31h24 q37 0 60.5 28.5t23.5 74.5q0 22 -16 36.5t-40 14.5q-29 0 -48.5 -15.5t-28.5 -41.5q-9 2 -18.5 3.5t-18.5 3.5q13 40 43 61t74 21zM53 -17h-37l512 731h38zM173 278h-36l72 373l-74 -42l8 41l77 43h35z" />
<glyph unicode="&#x2154;" horiz-adv-x="600" d="M31 278l6 32l197 221q36 41 36 78q1 23 -14.5 38t-44.5 15q-26 0 -48 -16.5t-31 -48.5l-37 8q12 42 43.5 66t74.5 24q47 0 71.5 -22t23.5 -61q0 -29 -13.5 -53.5t-32.5 -46.5q-5 -5 -18.5 -20t-31.5 -35.5t-39 -44t-39.5 -44t-32 -35.5t-18.5 -20h165l-8 -35h-209z M494 418q42 0 66 -23t24 -58q0 -13 -3 -30.5t-11 -34.5t-21.5 -32t-34.5 -24q23 -11 29 -28.5t6 -37.5q0 -26 -7 -53t-22.5 -49.5t-41.5 -37t-64 -14.5t-62 22t-25 60l35 6q1 -25 13.5 -40.5t41.5 -15.5q25 0 43 10t30 27t17.5 38.5t5.5 44.5q0 53 -55 53h-26l7 31h24 q37 0 60.5 28.5t23.5 74.5q0 22 -16 36.5t-40 14.5q-29 0 -48.5 -15.5t-28.5 -41.5q-9 2 -18.5 3.5t-18.5 3.5q13 40 43 61t74 21zM91 -17h-37l512 731h38z" />
<glyph unicode="&#x2155;" horiz-adv-x="600" d="M348 86q0 -23 12 -40.5t44 -17.5q43 0 64 27.5t29 75.5q3 17 4 33t1 25q0 24 -12.5 38t-41.5 14q-17 0 -38.5 -9t-33.5 -24h-33l42 207h197q-2 -8 -3.5 -16.5t-3.5 -16.5h-163q-6 -34 -12.5 -65.5t-13.5 -66.5q35 22 72 22q81 0 81 -75q0 -16 -2 -34t-5 -36 q-11 -63 -41.5 -97t-87.5 -34q-42 0 -65.5 21t-23.5 62zM42 -17h-37l512 731h38zM170 278h-36l72 373l-74 -42l8 41l77 43h35z" />
<glyph unicode="&#x2156;" horiz-adv-x="600" d="M86 -17h-37l512 731h38zM27 278l6 32l197 221q36 41 36 78q1 23 -14.5 38t-44.5 15q-26 0 -48 -16.5t-31 -48.5l-37 8q12 42 43.5 66t74.5 24q47 0 71.5 -22t23.5 -61q0 -29 -13.5 -53.5t-32.5 -46.5q-4 -5 -18 -20t-32 -35.5t-39 -44t-39.5 -44t-32 -35.5t-18.5 -20h165 l-8 -35h-209zM374 86q0 -23 12 -40.5t44 -17.5q43 0 64 27.5t29 75.5q3 17 4 33t1 25q0 24 -12.5 38t-41.5 14q-17 0 -38.5 -9t-33.5 -24h-33l42 207h197q-2 -8 -3.5 -16.5t-3.5 -16.5h-163q-6 -34 -12.5 -65.5t-13.5 -66.5q35 22 72 22q81 0 81 -75q0 -16 -2 -34t-5 -36 q-11 -63 -41.5 -97t-87.5 -34q-42 0 -65.5 21t-23.5 62z" />
<glyph unicode="&#x2157;" horiz-adv-x="600" d="M367 86q0 -23 12 -40.5t44 -17.5q43 0 64 27.5t29 75.5q3 17 4 33t1 25q0 24 -12.5 38t-41.5 14q-17 0 -38.5 -9t-33.5 -24h-33l42 207h197q-2 -8 -3.5 -16.5t-3.5 -16.5h-163q-6 -34 -12.5 -65.5t-13.5 -66.5q35 22 72 22q81 0 81 -75q0 -16 -2 -34t-5 -36 q-11 -63 -41.5 -97t-87.5 -34q-42 0 -65.5 21t-23.5 62zM211 696q42 0 66 -23t24 -58q0 -13 -3 -30.5t-11 -34.5t-21.5 -32t-34.5 -24q23 -11 29 -28.5t6 -37.5q0 -26 -7 -53t-22.5 -49.5t-41.5 -37t-64 -14.5t-62 22t-25 60l35 6q1 -25 13.5 -40.5t41.5 -15.5q25 0 43 10 t30 27t17.5 38.5t5.5 44.5q0 53 -55 53h-26l7 31h24q37 0 60.5 28.5t23.5 74.5q0 22 -16 36.5t-40 14.5q-29 0 -48.5 -15.5t-28.5 -41.5q-9 2 -18.5 3.5t-18.5 3.5q13 40 43 61t74 21zM66 -17h-37l512 731h38z" />
<glyph unicode="&#x2158;" horiz-adv-x="600" d="M372 86q0 -23 12 -40.5t44 -17.5q43 0 64 27.5t29 75.5q3 17 4 33t1 25q0 24 -12.5 38t-41.5 14q-17 0 -38.5 -9t-33.5 -24h-33l42 207h197q-2 -8 -3.5 -16.5t-3.5 -16.5h-163q-6 -34 -12.5 -65.5t-13.5 -66.5q35 22 72 22q81 0 81 -75q0 -16 -2 -34t-5 -36 q-11 -63 -41.5 -97t-87.5 -34q-42 0 -65.5 21t-23.5 62zM82 -17h-37l512 731h38zM243 346q0 -1 -2 -11.5t-4.5 -22.5t-4.5 -22.5t-2 -11.5h-36l13 68h-167l7 30l187 317h40l-187 -314h126l23 120h38l-24 -120h39l-8 -33h-38z" />
<glyph unicode="&#x2159;" horiz-adv-x="600" d="M446 235q44 0 61 -25t17 -62q-1 -28 -8.5 -55t-22.5 -48.5t-39.5 -35t-58.5 -13.5q-43 0 -66 23.5t-23 61.5q0 36 11.5 67t26.5 51l147 215h39l-132 -191l1 -1q11 7 25 10t22 3zM66 -17h-37l512 731h38zM397 27q24 0 42 10.5t29 27t16.5 37.5t5.5 42q0 29 -13.5 45 t-43.5 16q-23 0 -40 -10.5t-28.5 -27.5t-17 -37.5t-5.5 -40.5q0 -29 13 -45.5t42 -16.5zM175 278h-36l72 373l-74 -42l8 41l77 43h35z" />
<glyph unicode="&#x215a;" horiz-adv-x="600" d="M464 235q44 0 61 -25t17 -62q-1 -28 -8.5 -55t-22.5 -48.5t-39.5 -35t-58.5 -13.5q-43 0 -66 23.5t-23 61.5q0 36 11.5 67t26.5 51l147 215h39l-132 -191l1 -1q11 7 25 10t22 3zM92 364q0 -23 12 -40.5t44 -17.5q43 0 64 27.5t29 75.5q3 17 4 33t1 25q0 24 -12.5 38 t-41.5 14q-17 0 -38.5 -9t-33.5 -24h-33l42 207h197q-2 -8 -3.5 -16.5t-3.5 -16.5h-163q-6 -34 -12.5 -65.5t-13.5 -66.5q35 22 72 22q81 0 81 -75q0 -16 -2 -34t-5 -36q-11 -63 -41.5 -97t-87.5 -34q-42 0 -65.5 21t-23.5 62zM95 -17h-37l512 731h38zM415 27q24 0 42 10.5 t29 27t16.5 37.5t5.5 42q0 29 -13.5 45t-43.5 16q-23 0 -40 -10.5t-28.5 -27.5t-17 -37.5t-5.5 -40.5q0 -29 13 -45.5t42 -16.5z" />
<glyph unicode="&#x215b;" horiz-adv-x="600" d="M476 418q42 0 66.5 -22t25.5 -58q0 -17 -3.5 -36t-11.5 -36.5t-21.5 -32t-32.5 -20.5q18 -10 26 -26t10 -41q0 -28 -7.5 -55t-23 -48t-40.5 -34t-59 -13q-48 0 -72 25.5t-24 63.5q0 16 4 35.5t13 38.5t23.5 34t35.5 23q-16 8 -24.5 25.5t-8.5 36.5q0 28 7.5 53t23 44.5 t38.5 31t55 11.5zM53 -17h-37l512 731h38zM440 200q-27 0 -45.5 -11t-29.5 -27.5t-16 -37t-5 -38.5q0 -22 13.5 -40t48.5 -18q24 0 41.5 10t29 26.5t17 36.5t5.5 41q-1 25 -15 41.5t-44 16.5zM444 230q26 0 43 9t27 24t14 33.5t4 37.5q0 24 -16 38t-45 14q-24 0 -40 -11 t-25.5 -27.5t-13.5 -36t-4 -37.5q1 -20 15.5 -32t40.5 -12zM172 278h-36l72 373l-74 -42l8 41l77 43h35z" />
<glyph unicode="&#x215c;" horiz-adv-x="600" d="M499 418q42 0 66.5 -22t25.5 -58q0 -17 -3.5 -36t-11.5 -36.5t-21.5 -32t-32.5 -20.5q18 -10 26 -26t10 -41q0 -28 -7.5 -55t-23 -48t-40.5 -34t-59 -13q-48 0 -72 25.5t-24 63.5q0 16 4 35.5t13 38.5t23.5 34t35.5 23q-16 8 -24.5 25.5t-8.5 36.5q0 28 7.5 53t23 44.5 t38.5 31t55 11.5zM224 696q42 0 66 -23t24 -58q0 -13 -3 -30.5t-11 -34.5t-21.5 -32t-34.5 -24q23 -11 29 -28.5t6 -37.5q0 -26 -7 -53t-22.5 -49.5t-41.5 -37t-64 -14.5t-62 22t-25 60l35 6q1 -25 13.5 -40.5t41.5 -15.5q25 0 43 10t30 27t17.5 38.5t5.5 44.5q0 53 -55 53 h-26l7 31h24q37 0 60.5 28.5t23.5 74.5q0 22 -16 36.5t-40 14.5q-29 0 -48.5 -15.5t-28.5 -41.5q-9 2 -18.5 3.5t-18.5 3.5q13 40 43 61t74 21zM84 -17h-37l512 731h38zM463 200q-27 0 -45.5 -11t-29.5 -27.5t-16 -37t-5 -38.5q0 -22 13.5 -40t48.5 -18q24 0 41.5 10 t29 26.5t17 36.5t5.5 41q-1 25 -15 41.5t-44 16.5zM467 230q26 0 43 9t27 24t14 33.5t4 37.5q0 24 -16 38t-45 14q-24 0 -40 -11t-25.5 -27.5t-13.5 -36t-4 -37.5q1 -20 15.5 -32t40.5 -12z" />
<glyph unicode="&#x215d;" horiz-adv-x="600" d="M85 -17h-37l512 731h38zM94 364q0 -23 12 -40.5t44 -17.5q43 0 64 27.5t29 75.5q3 17 4 33t1 25q0 24 -12.5 38t-41.5 14q-17 0 -38.5 -9t-33.5 -24h-33l42 207h197q-2 -8 -3.5 -16.5t-3.5 -16.5h-163q-6 -34 -12.5 -65.5t-13.5 -66.5q35 22 72 22q81 0 81 -75 q0 -16 -2 -34t-5 -36q-11 -63 -41.5 -97t-87.5 -34q-42 0 -65.5 21t-23.5 62zM494 418q42 0 66.5 -22t25.5 -58q0 -17 -3.5 -36t-11.5 -36.5t-21.5 -32t-32.5 -20.5q18 -10 26 -26t10 -41q0 -28 -7.5 -55t-23 -48t-40.5 -34t-59 -13q-48 0 -72 25.5t-24 63.5q0 16 4 35.5 t13 38.5t23.5 34t35.5 23q-16 8 -24.5 25.5t-8.5 36.5q0 28 7.5 53t23 44.5t38.5 31t55 11.5zM458 200q-27 0 -45.5 -11t-29.5 -27.5t-16 -37t-5 -38.5q0 -22 13.5 -40t48.5 -18q24 0 41.5 10t29 26.5t17 36.5t5.5 41q-1 25 -15 41.5t-44 16.5zM462 230q26 0 43 9t27 24 t14 33.5t4 37.5q0 24 -16 38t-45 14q-24 0 -40 -11t-25.5 -27.5t-13.5 -36t-4 -37.5q1 -20 15.5 -32t40.5 -12z" />
<glyph unicode="&#x215e;" horiz-adv-x="600" d="M484 418q42 0 66.5 -22t25.5 -58q0 -17 -3.5 -36t-11.5 -36.5t-21.5 -32t-32.5 -20.5q18 -10 26 -26t10 -41q0 -28 -7.5 -55t-23 -48t-40.5 -34t-59 -13q-48 0 -72 25.5t-24 63.5q0 16 4 35.5t13 38.5t23.5 34t35.5 23q-16 8 -24.5 25.5t-8.5 36.5q0 28 7.5 53t23 44.5 t38.5 31t55 11.5zM49 -17h-37l512 731h38zM126 278h-39l216 382h-137l-11 -57h-37l18 90h213l-6 -29zM448 200q-27 0 -45.5 -11t-29.5 -27.5t-16 -37t-5 -38.5q0 -22 13.5 -40t48.5 -18q24 0 41.5 10t29 26.5t17 36.5t5.5 41q-1 25 -15 41.5t-44 16.5zM452 230q26 0 43 9 t27 24t14 33.5t4 37.5q0 24 -16 38t-45 14q-24 0 -40 -11t-25.5 -27.5t-13.5 -36t-4 -37.5q1 -20 15.5 -32t40.5 -12z" />
<glyph unicode="&#x215f;" horiz-adv-x="356" d="M53 -17h-37l512 731h38zM167 278h-36l72 373l-74 -42l8 41l77 43h35z" />
<glyph unicode="&#x2190;" horiz-adv-x="811" d="M756 340v-40h-620l166 -162l-30 -29l-212 212l212 211l30 -29l-166 -163h620z" />
<glyph unicode="&#x2191;" horiz-adv-x="485" d="M261 2h-39v618l-162 -165l-30 30l212 212l212 -212l-29 -30l-164 165v-618z" />
<glyph unicode="&#x2192;" horiz-adv-x="811" d="M680 340l-166 163l31 29l212 -211l-212 -212l-31 29l166 162h-619v40h619z" />
<glyph unicode="&#x2193;" horiz-adv-x="485" d="M261 79l164 166l29 -30l-212 -212l-212 212l30 30l162 -166v619h39v-619z" />
<glyph unicode="&#x2196;" horiz-adv-x="840" d="M192 598l565 -559l-28 -28l-564 561v-232h-40v299h300v-41h-233z" />
<glyph unicode="&#x2198;" horiz-adv-x="840" d="M689 54l-564 559l28 28l563 -561v231h40v-298h-300v41h233z" />
<glyph unicode="&#x21a9;" horiz-adv-x="840" d="M129 340h513q32 0 54.5 9.5t36 26.5t19.5 40t6 49v83q0 52 -27 81t-89 29h-64v39h69q42 0 71.5 -11.5t47.5 -32t26 -48.5t8 -61v-79q0 -75 -40.5 -120t-125.5 -45h-505l164 -162l-30 -29l-210 211l210 212l30 -29z" />
<glyph unicode="&#x21aa;" horiz-adv-x="836" d="M561 503l30 29l210 -212l-210 -211l-30 29l165 162h-506q-85 0 -125.5 45t-40.5 120v79q0 33 8 61t26 48.5t47.5 32t71.5 11.5h69v-39h-64q-62 0 -89 -29t-27 -81v-83q0 -26 6 -49t19.5 -40t36 -26.5t54.5 -9.5h514z" />
<glyph unicode="&#x21b3;" horiz-adv-x="840" d="M171 340h560l-164 163l28 29l210 -212l-209 -211l-29 29l164 162h-602v392h42v-352z" />
<glyph unicode="&#x21b5;" horiz-adv-x="840" d="M754 692h42v-392h-602l164 -162l-29 -29l-209 211l209 212l29 -29l-164 -163h560v352z" />
<glyph unicode="&#x21de;" horiz-adv-x="485" d="M271 364h114v-41h-114v-104h114v-41h-114v-178h-42v178h-114v41h114v104h-114v41h114v251l-162 -162l-28 30l211 210l211 -210l-28 -30l-163 162z" />
<glyph unicode="&#x21df;" horiz-adv-x="485" d="M270 78l163 163l28 -30l-211 -210l-211 210l28 30l162 -163v252h-114v41h114v104h-114v41h114v178h42v-178h114v-41h-114v-104h114v-41h-114z" />
<glyph unicode="&#x21e0;" horiz-adv-x="807" d="M306 339v-39h-177l167 -162l-31 -30l-212 213q53 53 106 105t106 106l31 -29l-167 -164h177zM360 339h98v-40h-98v40zM514 339h98v-40h-98v40zM668 339h78v-40h-78v40z" />
<glyph unicode="&#x21e1;" horiz-adv-x="475" d="M256 386v-97h-40v97h40zM256 233v-98h-40v98h40zM256 79v-79h-40v79h40zM256 441h-39v176l-162 -166l-30 31l213 212l211 -212l-29 -31l-164 166v-176z" />
<glyph unicode="&#x21e2;" horiz-adv-x="807" d="M440 300h-98v40h98v-40zM286 300h-98v40h98v-40zM132 300h-78v40h78v-40zM671 340l-167 163l31 29l212 -211l-212 -212l-31 29l167 162h-177v40h177z" />
</font>
</defs>
</svg>
